<?xml version="1.0" encoding="UTF-8"?>
<svg viewBox="0 0 1100 909" xmlns="http://www.w3.org/2000/svg">
 <g fill-rule="evenodd" stroke-width=".5">
  <path d="m0 454.5v-454.5h1100v909h-1100v-454.5zm556.2-444.7l-0.2-0.3 1-0.3q1-0.2 1.8 13.3 0.7 13.5 1.7 21t2.7 13.3q1.8 5.7 4.8 14.4 3 8.8 4 8.8t1.5 2.5 1.5 2.5 2.5 4 2.5 4 5.2 6q4.3 6 9.3 9.5t5.3 4.5q0.2 1 3 2 2.7 1 5 1.5 2.2 0.5 2.2 1.5t4 1.8q4 0.7 9 2.2t39 6.5 37.5 5.7q3.5 0.8 3.5 1.8t4 1.8q4 0.7 10.8 3.4 6.7 2.8 10.2 4.8t3.8 3q0.2 1 3 2 2.7 1 4 1.5 1.2 0.5 1.7 1.7 0.5 1.3 1.5 1.6 1 0.2 1 1.2t2.8 2.5q2.7 1.5 8.2 6.5t5.8 6q0.2 1 4 4 3.7 3 4 4 0.2 1 3.4 4 3.3 3 9.8 12t10.5 16.5 6.7 13.7q2.8 6.3 4.8 7 2 0.8 2 1.8t7 2.2q7 1.3 20.8 6 13.7 4.8 20.7 6.8t7.3 3q0.2 1 7 3 6.7 2 27.2 11t28.2 12.5q7.8 3.5 7.8 4.5t2.8 2q2.7 1 16 8.8 13.2 7.7 15.2 8 2 0.2 2.5 1.4 0.5 1.3 1.5 1.6 1 0.2 1 1.2t3.8 3q3.7 2 9.4 5.5 5.8 3.5 5.8 4.5t1.5 1 3.5 2.2q2 2.3 7.2 6 5.3 3.8 5.6 4.8 0.2 1 5.2 4.5t6.5 5.7q1.5 2.3 2.5 2.6 1 0.2 4 4 3 3.7 4 4 1 0.2 2.5 2.4 1.5 2.3 2.5 2.6 1 0.2 4.5 5 3.5 4.7 5.3 6 1.7 1.2 5.2 6.7t3.8 7q0.2 1.5 2.4 3.5 2.3 2 7.8 11t5.8 11q0.2 2 1.2 2t2 2.8q1 2.7 6.2 17 5.3 14.2 6.3 22.2t1 29.5-2.7 33.7q-2.8 12.3-4.6 17-1.7 4.8-3 9.3-1.2 4.5-2 5-0.7 0.5-0.4 1.5 0.2 1-0.8 1t-2.5 5-2.5 5-4.2 6.5q-3.3 6.5-4 8-0.8 1.5-1.8 1.5t-4 6-4 6-2.5 2.8q-1.5 2.7-2.5 3-1 0.2-2.5 2.4-1.5 2.3-2.5 2.6-1 0.2-3.5 4-2.5 3.7-3 5-0.5 1.2-10.5 10-10 8.7-11 9-1 0.2-1.5 1.4-0.5 1.3-1.5 1.6-1 0.2-1.5 1.4-0.5 1.3-1.5 1.6-1 0.2-1 1.2t-7.5 6-8 6.2q-0.5 1.3-2.5 1.6-2 0.2-4 2.4-2 2.3-7.8 5.6-5.7 3.2-6 4.2-0.2 1-5.2 3.5t-5.5 3.7q-0.5 1.3-3 1.6-2.5 0.2-2.5 1.2t-3.8 3q-3.7 2-25 12.8-21.2 10.7-24.4 12-3.3 1.2-6 1.7-2.8 0.5-2.8 1.5t-28 11.2q-28 10.3-35 12.3t-12.2 3.7q-5.3 1.8-9 2.3-3.8 0.5-4.3 1.7-0.5 1.3-10 3.3t-14.7 3.7q-5.3 1.8-6 6.3-0.8 4.5-1.8 4.5t-1.8 4.5q-0.7 4.5-1.4 7.5-0.8 3-1.8 3t-2 3.8q-1 3.7-5.8 13-4.7 9.2-7 13.2-2.2 4-3.2 4t-4 5.2q-3 5.3-4 5.6-1 0.2-1.5 2.4-0.5 2.3-4 4.6-3.5 2.2-5 5.2t-18 14.2q-16.5 11.3-28.5 17.3t-19.8 8.7q-7.7 2.8-12 3.6-4.2 0.7-10.7 1.7t-19 1-21.7 6.3q-9.3 6.2-14 7.7-4.8 1.5-5.3 2.7-0.5 1.3-18.5 6.3t-48 5-32.5-1-6.7-1.7q-4.3-0.8-17-5.6-12.8-4.7-19.3-8.7t-10-6.3q-3.5-2.2-3.5-3.2t-2.8-3q-2.7-2-3-3-0.2-1-1.4-1.5-1.3-0.5-1.6-1.5-0.2-1-1.2-1t-1-1.5v-1.5l-1-0.2-1-0.3-0.2-0.3-0.3-0.2-0.3-1-0.2-1-1-0.2-1-0.3-0.2-0.3-0.3-0.2-0.3-0.2-0.2-0.3h4l3 1q3 1 12 2t21.5 0.5 19.5-1.5 13-2.5 14.8-5.2q8.7-3.8 11-5.6 2.2-1.7 3.7-2 1.5-0.2 2-2 0.5-1.7 1.5-2 1-0.2 3.5-4.7t3.7-5q1.3-0.5 3-10.3 1.8-9.7 1.6-10-0.3-0.2-0.8-3.2l-0.5-3-0.3-0.2-0.2-0.3-0.2-0.3-0.3-0.2-0.3-1-0.2-1-1.5 0.2-1.5 0.3-0.2 0.3q-0.3 0.2-8.6 3-8.2 2.7-15.7 3.7t-35.5 1.5-34.5-0.5-17.5-3.7q-11-2.8-11-3.8t-3-1.2q-3-0.3-15-5.8t-16.5-7.2q-4.5-1.8-4.5-2.8t-5.5-4.2q-5.5-3.3-6-4.6-0.5-1.2-9.5-7.7t-9-7.5-1-1.2q-1-0.3-2.5-2.6-1.5-2.2-2.5-2.4-1-0.3-1.5-1.6-0.5-1.2-1.5-1.2t-4.8-5.5q-3.7-5.5-8-7.3-4.2-1.7-9.2-2.7t-5.8-1.7q-0.7-0.8-8.4-2.3-7.8-1.5-7.8-2.5t-8.5-2.5-8.7-2.5q-0.3-1-3.6-1.8-3.2-0.7-10.2-3.7t-13-5-6.5-3.3q-0.5-1.2-3.5-1.4-3-0.3-20.5-8-17.5-7.8-17.5-8.8t-5.2-3q-5.3-2-16.6-7.8-11.2-5.7-11.7-7-0.5-1.2-2-1.2t-1.7-1q-0.3-1-2.6-1.5-2.2-0.5-3.2-1.7-1-1.3-10-6.8t-12-8.8q-3-3.2-9.5-7.2t-6.5-5-3-2.8q-3-1.7-6.5-5.4-3.5-3.8-4.5-4-1-0.3-5-5-4-4.8-5-5-1-0.3-8-8-7-7.8-8-7.8t-5.5-6.2q-4.5-6.3-6.5-10-2-3.8-3-4-1-0.3-4-5.6-3-5.2-4-5.2t-1.2-2q-0.3-2-3.3-7.5t-8-18.5-6.5-18.5-2.5-12.5-1.5-25.5 0.8-25.7q1.2-7.3 3.7-17 2.5-9.8 3.5-9.8t1.2-3q0.3-3 6.6-16.5 6.2-13.5 7.2-13.5t2-2.8q1-2.7 3-6.4 2-3.8 3-3.8t1-1.5 1-1.5 4.2-5q3.3-5 7-8 3.8-3 4-4.5 0.3-1.5 2-3 1.8-1.5 2-2.5 0.3-1 5.6-5.5 5.2-4.5 5.4-5.5 0.3-1 4-4 3.8-3 3.8-4t2-1.5 2-1.5 7-6.2q7-5.3 9.8-7.6 2.7-2.2 5.4-3.7 2.8-1.5 3-2.5 0.3-1 10.8-8t15.8-9.8q5.2-2.7 9-5.4 3.7-2.8 9-4.8 5.2-2 5.4-3 0.3-1 7.8-4.5t11-5.5 5.8-2.5q2.2-0.5 2.2-1.5t5.2-3q5.3-2 17.8-7t19.2-7.8q6.8-2.7 9.8-3.4 3-0.8 3-1.8t3.2-1.5q3.3-0.5 7.8-2t8.2-2.5q3.8-1 3.8-3t1-2 2.2-11l1.3-11-0.3-0.2-0.2-0.3-16.5-0.5q-16.5-0.5-30.5-4.5t-22.5-9-10-7.3q-1.5-2.2-3.5-2.7t-4.5-4.3q-2.5-3.7-3.5-7l-1-3.2-1-0.2-1-0.3-0.2-0.3-0.3-0.2v-3l-0.3-1-0.2-1 1 0.2 1 0.3 4.5 0.5q4.5 0.5 8 1.5t35.5 1 36.5-1 14-6 15.5-9 8.5-5.3q2.5-1.2 3-2.4 0.5-1.3 3-2 2.5-0.8 2.5-1.8t1-1 1-1 3.5-2.5 3.5-2.5 4.5-3.8q4.5-2.7 5.5-3 1-0.2 1-1.2t9.8-6.5q9.7-5.5 10-6.5 0.2-1 7.7-4.8 7.5-3.7 20.5-8.7t23-7.5 16-3.5 25.5-1 21 0.5 12.5 2 29.8 8.8q18.7 7.2 19 7.4 0.2 0.3 1.7 0.8l1.5 0.5 0.2 0.3 0.3 0.2 0.3 0.2 0.2 0.3 1.5 0.3 1.5 0.2 0.2-2 0.3-2-1-3q-1-3 0-5t0.7-8.5q-0.2-6.5-1-7-0.7-0.5 0.3-2t2.5-15.5 2.5-16 1.3-5.5q0.2-3.5 1.2-3.5t1.8-4q0.7-4 6-15.2 5.2-11.3 6.2-13.6 1-2.2 1.8-2.7 0.7-0.5 0.4-0.7z" fill="#fff" stroke="#fff"/>
  <g stroke="#000">
   <path d="m556.2 9.8l-0.2-0.3 1-0.3q1-0.2 1.8 13.3 0.7 13.5 1.7 21t2.7 13.3q1.8 5.7 4.8 14.4 3 8.8 4 8.8t1.5 2.5 1.5 2.5 2.5 4 2.5 4 5.2 6q4.3 6 9.3 9.5t5.3 4.5q0.2 1 3 2 2.7 1 5 1.5 2.2 0.5 2.2 1.5t4 1.8q4 0.7 9 2.2t39 6.5 37.5 5.7q3.5 0.8 3.5 1.8t4 1.8q4 0.7 10.8 3.4 6.7 2.8 10.2 4.8t3.8 3q0.2 1 3 2 2.7 1 4 1.5 1.2 0.5 1.7 1.7 0.5 1.3 1.5 1.6 1 0.2 1 1.2t2.8 2.5q2.7 1.5 8.2 6.5t5.8 6q0.2 1 4 4 3.7 3 4 4 0.2 1 3.4 4 3.3 3 9.8 12t10.5 16.5 6.7 13.7q2.8 6.3 4.8 7 2 0.8 2 1.8t7 2.2q7 1.3 20.8 6 13.7 4.8 20.7 6.8t7.3 3q0.2 1 7 3 6.7 2 27.2 11t28.2 12.5q7.8 3.5 7.8 4.5t2.8 2q2.7 1 16 8.8 13.2 7.7 15.2 8 2 0.2 2.5 1.4 0.5 1.3 1.5 1.6 1 0.2 1 1.2t3.8 3q3.7 2 9.4 5.5 5.8 3.5 5.8 4.5t1.5 1 3.5 2.2q2 2.3 7.2 6 5.3 3.8 5.6 4.8 0.2 1 5.2 4.5t6.5 5.7q1.5 2.3 2.5 2.6 1 0.2 4 4 3 3.7 4 4 1 0.2 2.5 2.4 1.5 2.3 2.5 2.6 1 0.2 4.5 5 3.5 4.7 5.3 6 1.7 1.2 5.2 6.7t3.8 7q0.2 1.5 2.4 3.5 2.3 2 7.8 11t5.8 11q0.2 2 1.2 2t2 2.8q1 2.7 6.2 17 5.3 14.2 6.3 22.2t1 29.5-2.7 33.7q-2.8 12.3-4.6 17-1.7 4.8-3 9.3-1.2 4.5-2 5-0.7 0.5-0.4 1.5 0.2 1-0.8 1t-2.5 5-2.5 5-4.2 6.5q-3.3 6.5-4 8-0.8 1.5-1.8 1.5t-4 6-4 6-2.5 2.8q-1.5 2.7-2.5 3-1 0.2-2.5 2.4-1.5 2.3-2.5 2.6-1 0.2-3.5 4-2.5 3.7-3 5-0.5 1.2-10.5 10-10 8.7-11 9-1 0.2-1.5 1.4-0.5 1.3-1.5 1.6-1 0.2-1.5 1.4-0.5 1.3-1.5 1.6-1 0.2-1 1.2t-7.5 6-8 6.2q-0.5 1.3-2.5 1.6-2 0.2-4 2.4-2 2.3-7.8 5.6-5.7 3.2-6 4.2-0.2 1-5.2 3.5t-5.5 3.7q-0.5 1.3-3 1.6-2.5 0.2-2.5 1.2t-3.8 3q-3.7 2-25 12.8-21.2 10.7-24.4 12-3.3 1.2-6 1.7-2.8 0.5-2.8 1.5t-28 11.2q-28 10.3-35 12.3t-12.2 3.7q-5.3 1.8-9 2.3-3.8 0.5-4.3 1.7-0.5 1.3-10 3.3t-14.7 3.7q-5.3 1.8-6 6.3-0.8 4.5-1.8 4.5t-1.8 4.5q-0.7 4.5-1.4 7.5-0.8 3-1.8 3t-2 3.8q-1 3.7-5.8 13-4.7 9.2-7 13.2-2.2 4-3.2 4t-4 5.2q-3 5.3-4 5.6-1 0.2-1.5 2.4-0.5 2.3-4 4.6-3.5 2.2-5 5.2t-18 14.2q-16.5 11.3-28.5 17.3t-19.8 8.7q-7.7 2.8-12 3.6-4.2 0.7-10.7 1.7t-19 1-21.7 6.3q-9.3 6.2-14 7.7-4.8 1.5-5.3 2.7-0.5 1.3-18.5 6.3t-48 5-32.5-1-6.7-1.7q-4.3-0.8-17-5.6-12.8-4.7-19.3-8.7t-10-6.3q-3.5-2.2-3.5-3.2t-2.8-3q-2.7-2-3-3-0.2-1-1.4-1.5-1.3-0.5-1.6-1.5-0.2-1-1.2-1t-1-1.5v-1.5l-1-0.2-1-0.3-0.2-0.3-0.3-0.2-0.3-1-0.2-1-1-0.2-1-0.3-0.2-0.3-0.3-0.2-0.3-0.2-0.2-0.3h4l3 1q3 1 12 2t21.5 0.5 19.5-1.5 13-2.5 14.8-5.2q8.7-3.8 11-5.6 2.2-1.7 3.7-2 1.5-0.2 2-2 0.5-1.7 1.5-2 1-0.2 3.5-4.7t3.7-5q1.3-0.5 3-10.3 1.8-9.7 1.6-10-0.3-0.2-0.8-3.2l-0.5-3-0.3-0.2-0.2-0.3-0.2-0.3-0.3-0.2-0.3-1-0.2-1-1.5 0.2-1.5 0.3-0.2 0.3q-0.3 0.2-8.6 3-8.2 2.7-15.7 3.7t-35.5 1.5-34.5-0.5-17.5-3.7q-11-2.8-11-3.8t-3-1.2q-3-0.3-15-5.8t-16.5-7.2q-4.5-1.8-4.5-2.8t-5.5-4.2q-5.5-3.3-6-4.6-0.5-1.2-9.5-7.7t-9-7.5-1-1.2q-1-0.3-2.5-2.6-1.5-2.2-2.5-2.4-1-0.3-1.5-1.6-0.5-1.2-1.5-1.2t-4.8-5.5q-3.7-5.5-8-7.3-4.2-1.7-9.2-2.7t-5.8-1.7q-0.7-0.8-8.4-2.3-7.8-1.5-7.8-2.5t-8.5-2.5-8.7-2.5q-0.3-1-3.6-1.8-3.2-0.7-10.2-3.7t-13-5-6.5-3.3q-0.5-1.2-3.5-1.4-3-0.3-20.5-8-17.5-7.8-17.5-8.8t-5.2-3q-5.3-2-16.6-7.8-11.2-5.7-11.7-7-0.5-1.2-2-1.2t-1.7-1q-0.3-1-2.6-1.5-2.2-0.5-3.2-1.7-1-1.3-10-6.8t-12-8.8q-3-3.2-9.5-7.2t-6.5-5-3-2.8q-3-1.7-6.5-5.4-3.5-3.8-4.5-4-1-0.3-5-5-4-4.8-5-5-1-0.3-8-8-7-7.8-8-7.8t-5.5-6.2q-4.5-6.3-6.5-10-2-3.8-3-4-1-0.3-4-5.6-3-5.2-4-5.2t-1.2-2q-0.3-2-3.3-7.5t-8-18.5-6.5-18.5-2.5-12.5-1.5-25.5 0.8-25.7q1.2-7.3 3.7-17 2.5-9.8 3.5-9.8t1.2-3q0.3-3 6.6-16.5 6.2-13.5 7.2-13.5t2-2.8q1-2.7 3-6.4 2-3.8 3-3.8t1-1.5 1-1.5 4.2-5q3.3-5 7-8 3.8-3 4-4.5 0.3-1.5 2-3 1.8-1.5 2-2.5 0.3-1 5.6-5.5 5.2-4.5 5.4-5.5 0.3-1 4-4 3.8-3 3.8-4t2-1.5 2-1.5 7-6.2q7-5.3 9.8-7.6 2.7-2.2 5.4-3.7 2.8-1.5 3-2.5 0.3-1 10.8-8t15.8-9.8q5.2-2.7 9-5.4 3.7-2.8 9-4.8 5.2-2 5.4-3 0.3-1 7.8-4.5t11-5.5 5.8-2.5q2.2-0.5 2.2-1.5t5.2-3q5.3-2 17.8-7t19.2-7.8q6.8-2.7 9.8-3.4 3-0.8 3-1.8t3.2-1.5q3.3-0.5 7.8-2t8.2-2.5q3.8-1 3.8-3t1-2 2.2-11l1.3-11-0.3-0.2-0.2-0.3-16.5-0.5q-16.5-0.5-30.5-4.5t-22.5-9-10-7.3q-1.5-2.2-3.5-2.7t-4.5-4.3q-2.5-3.7-3.5-7l-1-3.2-1-0.2-1-0.3-0.2-0.3-0.3-0.2v-3l-0.3-1-0.2-1 1 0.2 1 0.3 4.5 0.5q4.5 0.5 8 1.5t35.5 1 36.5-1 14-6 15.5-9 8.5-5.3q2.5-1.2 3-2.4 0.5-1.3 3-2 2.5-0.8 2.5-1.8t1-1 1-1 3.5-2.5 3.5-2.5 4.5-3.8q4.5-2.7 5.5-3 1-0.2 1-1.2t9.8-6.5q9.7-5.5 10-6.5 0.2-1 7.7-4.8 7.5-3.7 20.5-8.7t23-7.5 16-3.5 25.5-1 21 0.5 12.5 2 29.8 8.8q18.7 7.2 19 7.4 0.2 0.3 1.7 0.8l1.5 0.5 0.2 0.3 0.3 0.2 0.3 0.2 0.2 0.3 1.5 0.3 1.5 0.2 0.2-2 0.3-2-1-3q-1-3 0-5t0.7-8.5q-0.2-6.5-1-7-0.7-0.5 0.3-2t2.5-15.5 2.5-16 1.3-5.5q0.2-3.5 1.2-3.5t1.8-4q0.7-4 6-15.2 5.2-11.3 6.2-13.6 1-2.2 1.8-2.7 0.7-0.5 0.4-0.7zm164.3 141l1.5 0.2 0.5 1q0.5 1 5.3 3.5 4.7 2.5 9 5.5 4.2 3 4.2 4t6 5.8q6 4.7 15.2 15 9.3 10.2 9.6 11.2 0.2 1 1.2 1t7.8 11q6.7 11 11 23 4.2 12 12.4 14 8.3 2 20.3 6t16.7 5.8q4.8 1.7 7.8 2 3 0.2 3 1.2t10.2 4.5q10.3 3.5 22.6 8 12.2 4.5 12.2 5.5t8.2 4.5q8.3 3.5 10.6 4 2.2 0.5 2.2 1.5t2.5 1.5 2.5 1.5 5 2.5 5 2.5 2.5 1.5 2.5 1.5 6.2 4q6.3 3 6.6 4 0.2 1 7 4.5 6.7 3.5 8 4 1.2 0.5 1.2 1.5t4 2.5 4 2.5 2 1.5 2 1.5 3 2.5 3 2.5 3.8 3q3.7 2 7 5.2 3.2 3.3 7 6 3.7 2.8 8.4 6.8 4.8 4 6.3 6.2 1.5 2.3 2.5 2.6 1 0.2 5 5.7t6.8 8q2.7 2.5 3 3.5 0.2 1 1.2 1t1 1.5 1 1.5 4 5 4 5 2.5 4 2.5 4 1.5 2.5 1.5 2.5 2.5 4.5 2.5 4.5 6.2 13.5q5.3 13.5 7.8 23.5t2 33-3.2 33.8q-2.8 10.7-3.3 14-0.5 3.2-1.5 3.2t-4 9-4 9-4.2 6.5q-3.3 6.5-4 8.5-0.8 2-2 2.5-1.3 0.5-3 3.7-1.8 3.3-2.8 3.6-1 0.2-5 6.4-4 6.3-5 6.6-1 0.2-10.5 11.7t-13.3 14q-3.7 2.5-6 5.5-2.2 3-5 4.5-2.7 1.5-5.4 3-2.8 1.5-2.8 2.5t-1.2 1.5q-1.3 0.5-1.6 1.5-0.2 1-1.7 1t-1.5 1-3.5 2.5-3.5 2.5-4 2.5-4 2.5-3.5 2.5-4 2.7q-0.5 1.3-6.5 4-6 2.8-6.5 4-0.5 1.3-9 5.6-8.5 4.2-8.5 5.2t-4.5 2.8q-4.5 1.7-13.5 6.2t-11 4.8q-2 0.2-2 1.2t-6 3.2q-6 2.3-28 10.8t-23.5 8.8q-1.5 0.2-1.5 1.2t-6.5 2.2q-6.5 1.3-20 5.3t-14.5 4.5l-1 0.5-3.5 0.3-3.5 0.2 0.2-1.5 0.3-1.5 0.3-0.2 0.2-0.3 0.2-0.3 0.3-0.2 0.3-1 0.2-1h2l0.2-1 0.3-1 0.3-0.2 0.2-0.3 1.5-0.5q1.5-0.5 23-9t30-11.8q8.5-3.2 8.5-4.2t2.5-1.5 2.5-1.5 2-1.2q2-0.3 19-9 17-8.8 17.2-9.8 0.3-1 8.6-5.5 8.2-4.5 8.2-5.5t1.5-1.2q1.5-0.3 18.5-13 17-12.8 19.5-16.3t8-7.5 5.7-5q0.3-1 2.6-2.5 2.2-1.5 2.4-2.5 0.3-1 4-4.5 3.8-3.5 5-6 1.3-2.5 3.6-4.5 2.2-2 2.4-3.5 0.3-1.5 1.6-2 1.2-0.5 1.7-1.7 0.5-1.3 2.5-5 2-3.8 3-3.8t4-6.5 4-6.5 1.5-2.5 1.5-2.5 2.2-3.5q1.3-3.5 2.6-8.5 1.2-5 2.2-5t3-7.2q2-7.3 4.8-20 2.7-12.8 3.2-27.8t-0.8-25q-1.2-10-2.2-10t-1.2-4.5q-0.3-4.5-4.6-15.7-4.2-11.3-6.2-16.6-2-5.2-3-5.4-1-0.3-1.5-2.6-0.5-2.2-1.5-2.2t-1-2-1-2.2q-1-0.3-1.5-2.6-0.5-2.2-1.5-2.2t-4-5.5-4-5.5-1.2-1.5q-0.3-1.5-5-8-4.8-6.5-5.8-6.7-1-0.3-1.5-1.6-0.5-1.2-1.5-1.4-1-0.3-3-3.6-2-3.2-3-3.2t-1-1-1-1.2q-1-0.3-1.5-1.6-0.5-1.2-1.5-1.4-1-0.3-1.5-1.6-0.5-1.2-1.5-1.2t-1-1-1-1-1.2-1q-0.3-1-6.8-6.5t-9.2-7q-2.8-1.5-2.8-2.5t-2.2-2.5q-2.3-1.5-5-3-2.8-1.5-2.8-2.5t-10.8-8q-10.7-7-19.4-12-8.8-5-8.8-6t-2-1.2q-2-0.3-5-2.3t-7.5-3.7q-4.5-1.8-4.5-2.8t-13.2-7q-13.3-6-16.6-7-3.2-1-3.2-2t-6-2.5-6-2.5-10-4-10-4-3.5-1.8q-3.5-0.7-7.5-1.4l-4-0.8-0.8 11q-0.7 11-1.7 16.5t-3 10.5-2.5 6.5l-0.5 1.5-0.3 0.2-0.2 0.3-0.2 0.3-0.3 0.2-0.3 1-0.2 1-2.5-0.2-2.5-0.3-0.2-0.3-0.3-0.2-0.3-0.2-0.2-0.3-1-0.5-1-0.5-0.2-0.3-0.3-0.2-0.3-0.2-0.2-0.3-0.2-0.3-0.3-0.2-0.3-0.2-0.2-0.3-0.2-0.3-0.3-0.2-0.3-0.2-0.2-0.3-0.2-0.3-0.3-0.2v-2l0.3-0.2q0.2-0.3 1.2-2.3t2.8-6.3q1.7-4.2 2.2-17.7t-1-22-6.8-20q-5.2-11.5-6.2-11.5t-1-1.5-1-1.7q-1-0.3-1.8-2-0.7-1.8-3-3.8-2.2-2-6.2-8t-5-6-1.2-1q-0.3-1-1.6-1.5-1.2-0.5-1.4-1.5-0.3-1-1.6-1.5-1.2-0.5-1.2-1.5t-1-1-1-1-5.2-5q-5.3-4-13.6-9.5l-8.2-5.5-0.5-0.2q-0.5-0.3-6.7-3-6.3-2.8-17.6-5.6-11.2-2.7-27.2-4.7t-32.5-5-26-6.5-10-4.8q-0.5-1.2-2-1.4-1.5-0.3-7.5-4-6-3.8-6-4.8t-1-1.2q-1-0.3-1.5-1.6-0.5-1.2-1.5-1.4-1-0.3-2.5-2.6-1.5-2.2-2.5-2.4-1-0.3-1.5-1.6-0.5-1.2-1.5-1.2t-2.5-3.5-2.5-3.7q-1-0.3-2.8-3.6l-1.7-3.2-0.5-1-0.5-1-0.3-0.2-0.2-0.3-0.2-0.3-0.3-0.2-0.5-1.5-0.5-1.5 0.5 13q0.5 13 2.2 17.2 1.8 4.3 6.3 13 4.5 8.8 5.5 8.8t6.5 6.2q5.5 6.3 9 8.8t4.5 3l1 0.5 0.2 0.3 0.3 0.2 0.3 0.2 0.2 0.3 0.2 0.3 0.3 0.2 0.3 0.2 0.2 0.3 1 0.5 1 0.5 0.2 0.3 0.3 0.2 0.3 1.5 0.2 1.5-4-0.2-4-0.3-0.2-0.3-0.3-0.2-0.3-0.2q-0.2-0.3-2.7-0.8t-16.5-7-14.5-7.8q-0.5-1.2-3-2-2.5-0.7-7-2.4-4.5-1.8-4.5-2.8t-4.2-3q-4.3-2-9.6-4-5.2-2-5.4-3-0.3-1-5.3-3t-15.5-6-23.2-6.8q-12.8-2.7-29.3-3.2t-33.5 3.5-29 9-12.5 6.3q-0.5 1.2-9.3 5.7-8.7 4.5-12.4 6.5-3.8 2-3.8 3t-5.5 4-5.5 4-3.5 2.5-3.7 2.5q-0.3 1-11 8-10.8 7-10.8 8t-1.5 1-1.5 1-2.5 1.5-2.5 1.5-1.8 1.5q-1.7 0.5-4.4 1.5l-2.8 1-0.2 1-0.3 1-0.3 0.2-0.2 0.3-2 0.5-2 0.5-0.2 0.3-0.3 0.2-0.3 0.2-0.2 0.3h6l0.2-0.3 0.3-0.2 0.3-0.2 0.2-0.3 15.5-5.5q15.5-5.5 25-7.5t10.5-2.5 5.5-0.5h4.5l0.2 0.3 0.3 0.2 0.3 0.2 0.2 0.3 0.2 0.3 0.3 0.2v1l-0.3 0.2-0.2 0.3-1 0.5-1 0.5-1 0.5-1 0.5-0.2 0.3-0.3 0.2-0.3 0.2-0.2 0.3-7.2 2.7q-7.3 2.8-9.6 3.3-2.2 0.5-2.2 1.5t-2.5 1.5-2.5 1.5-2.8 2.5q-2.7 1.5-9.2 7.5t-6.8 7.5q-0.2 1.5-1.2 1.5t-4.8 10q-3.7 10-7.2 33.5t-5.8 31q-2.2 7.5-4.4 9.5-2.3 2-2.6 3-0.2 1-1.4 1.5-1.3 0.5-1.6 1.5-0.2 1-9.2 7.5t-9 7.5-3.8 3q-3.7 2-7.4 4.5-3.8 2.5-3.8 3.5t-1.5 1-3.5 2.2q-2 2.3-6.2 5.6-4.3 3.2-4.6 4.2-0.2 1-5 4.5-4.7 3.5-6.4 6-1.8 2.5-3 3-1.3 0.5-1.6 1.5-0.2 1-4 4.5-3.7 3.5-6 8-2.2 4.5-3.4 5-1.3 0.5-5.3 10.5t-5 13.5-0.5 32 2.5 39 8.3 22.3q6.2 11.7 7.2 13.4 1 1.8 2 1.8t1.5 1.2q0.5 1.3 1.5 1.6 1 0.2 1 1.2t1.2 1.5q1.3 0.5 1.6 1.5 0.2 1 2.7 2t4.5 3.2q2 2.3 5.5 4 3.5 1.8 3.5 2.8t3.8 3q3.7 2 7.2 4.5t3.8 3.5q0.2 1 4.2 3.5t7 6.7q3 4.3 4 4.6 1 0.2 3 4 2 3.7 2.5 6 0.5 2.2 1.7 2.7 1.3 0.5 3.3 10t1 20.5-6.5 22-6.2 12.5q-0.8 1.5-1.8 1.5t-2.5 2.8q-1.5 2.7-5.5 6-4 3.2-6.5 6-2.5 2.7-3.5 3-1 0.2-1 1.2t-3.5 2.8q-3.5 1.7-3.7 2l-0.3 0.2-0.3 0.2-0.2 0.3-1 0.5-1 0.5-1 0.5-1 0.5-0.2 0.3-0.3 0.2-0.3 0.2-0.2 0.3-1 0.5-1 0.5h10q10 0 16-1.5t7.5-2.5 10.5-6.3q9-5.2 9.2-6.2 0.3-1 1.6-1.5 1.2-0.5 1.2-1.5t1-1.2q1-0.3 4-4.3l3-4 0.2-0.3 0.3-0.2 0.5-1 0.5-1 0.3-0.2 0.2-0.3 1-0.5 1-0.5h2l0.2 0.3 0.3 0.2v5l-0.3 0.2-0.2 0.3 0.2 0.3 0.3 0.2 2.5 17q2.5 17 7.5 32t7.3 20q2.2 5 3.2 5t2 2.8q1 2.7 7.2 11.4 6.3 8.8 10.8 14.3t4.8 6.5q0.2 1 6.2 5.8 6 4.7 9 6.4 3 1.8 3 2.8t3.5 2.5 3.5 2.5 6.5 4 6.5 4 2.8 2q2.7 1 18 6.8 15.2 5.7 18.2 6.2t4.5 1l1.5 0.5 0.5 0.3 0.5 0.2 6.5 0.8q6.5 0.7 23.5 0.7h17l-0.2-0.3-0.3-0.2-0.3-0.2-0.2-0.3-0.2-0.3-0.3-0.2-0.3-0.2-0.2-0.3-1-0.5-1-0.5-0.2-0.3-0.3-0.2-0.3-0.2-0.2-0.3-0.2-0.3-0.3-0.2-0.3-0.2-0.2-0.3-0.2-0.3q-0.3-0.2-2-1.4-1.8-1.3-12.3-12.8t-12.5-15.2q-2-3.8-3-3.8t-3.8-6q-2.7-6-4.4-12-1.8-6-2.8-6t-1.8-13.5l-0.7-13.5 0.3-0.2 0.2-0.3h3l0.2 0.3 0.3 0.2 0.3 0.2 0.2 0.3 0.2 0.3 0.3 0.2 0.3 0.2 0.2 0.3 0.2 0.3 0.3 0.2 6.3 5.2q6.2 5.3 18.2 11.8t29 14.2q17 7.8 17.5 9 0.5 1.3 2.5 1.6 2 0.2 2.5 1.4 0.5 1.3 5 3.6 4.5 2.2 7 5 2.5 2.7 7.7 8 5.3 5.2 10.3 12.2t9 16 3.5 23.5-3.8 23q-3.2 8.5-4.2 8.5t-1 1.5-3.8 5q-3.7 3.5-4 4.5-0.2 1-4.4 4-4.3 3-4.6 4-0.2 1-4.2 2.5t-4 2.5-2.8 2q-2.7 1-9 3.8-6.2 2.7-10.2 3.2l-4 0.5-0.2 0.3-0.3 0.2-0.3 0.2-0.2 0.3 2 0.5 2 0.5 15.5 1q15.5 1 31.5-1t28-6.3q12-4.2 12-5.2t2.8-2q2.7-1 10.2-5.5t7.8-5.5q0.2-1 1.7-1t1.5-1 6.2-5.5q6.3-4.5 6.6-5.5 0.2-1 1.2-1t1-1 1-1 1.5-1.2q0.5-1.3 1.5-1.6 1-0.2 2.5-3.2t2.5-3 2.5-3 2.5-3 5.5-6.8q4.5-6.7 5.5-7 1-0.2 2.2-2.7 1.3-2.5 1.8-3.5l0.5-1 0.3-0.2 0.2-0.3 0.2-0.3 0.3-0.2 0.5-1 0.5-1 0.3-0.2 0.2-0.3 0.2-0.3 0.3-0.2 0.3-0.2 0.2-0.3 0.2-0.3 0.3-0.2 0.3 0.2 0.2 0.3 0.2 0.3 0.3 0.2 0.3 0.2 0.2 0.3 0.2 0.3 0.3 0.2 0.3 0.2 0.2 0.3 0.2 0.3 0.3 0.2 0.3 0.2 0.2 0.3 0.2 0.3 0.3 0.2 1.5 4.5q1.5 4.5 1 16.5t-2 15.5-1.8 5.5l-0.2 2-1 0.2-1 0.3-0.2 0.3-0.3 0.2-0.3 1-0.2 1 1.5-0.2 1.5-0.3 1-0.5 1-0.5 1-0.5 1-0.5 2.5-0.5q2.5-0.5 11.5-4.2 9-3.8 9-4.8t2-1.2q2-0.3 8.5-4.3t8.5-6.3q2-2.2 5.5-4 3.5-1.7 6.5-5 3-3.2 4-3.4 1-0.3 2.5-2.6 1.5-2.2 2.5-2.2t6.5-7.2q5.5-7.3 12.7-19.6 7.3-12.2 8.6-17.2 1.2-5 2.2-5t2.2-2q1.3-2 4-3l2.8-1 0.2-1 0.3-1 0.3-0.2 0.2-0.3 1.5-0.5 1.5-0.5 2-0.3 2-0.2-0.2 3-0.3 3-0.3 0.2-0.2 0.3-0.2 0.3-0.3 0.2-0.5 3q-0.5 3-0.8 3.2-0.2 0.3-3.7 9.6-3.5 9.2-4.5 9.4-1 0.3-3 5-2 4.8-3 4.8t-2.5 4-2.5 4-1 1.5-1 1.5-1.5 2-1.5 2.2q-1 0.3-2.5 3-1.5 2.8-2.5 3-1 0.3-1.5 1.6-0.5 1.2-1.5 1.2t-1 1-1 1.2q-1 0.3-1.5 1.6-0.5 1.2-1.5 1.2t-1 1-1 1.2q-1 0.3-1.5 1.6-0.5 1.2-1.5 1.4-1 0.3-1.5 1.6-0.5 1.2-1.5 1.4-1 0.3-3 2.6-2 2.2-3.5 2.4-1.5 0.3-2 1.6-0.5 1.2-4.3 3.2-3.7 2-7.4 4-3.8 2-3.8 3t-7.2 4q-7.3 3-16.8 7t-18.8 6.8q-9.2 2.7-20.7 3.2l-11.5 0.5h-2l-1.5-0.3-1.5-0.2 0.2-1.5 0.3-1.5 0.3-0.2 0.2-0.3 0.2-0.3 0.3-0.2 0.5-1 0.5-1 0.3-0.2 0.2-0.3 0.2-0.3 0.3-0.2 0.3-0.2 0.2-0.3 0.2-0.3q0.3-0.2 4.8-4.2l4.5-4 0.3-0.2 0.2-0.3 0.2-0.3 0.3-0.2 0.3-0.2 0.2-0.3 0.2-0.3 0.3-0.2 0.3-0.2 0.2-0.3 0.2-0.3 0.3-0.2 0.3-0.2 0.2-0.3 0.2-0.3 0.3-0.2 0.3-0.2 0.2-0.3 0.2-0.3 0.3-0.2 0.3-0.2 0.2-0.3 0.2-0.3 0.3-0.2 0.3-0.2 0.2-0.3h-2l-0.2 0.3-0.3 0.2-0.3 0.2-0.2 0.3-0.2 0.3-0.3 0.2-0.3 0.2-0.2 0.3-0.2 0.3-0.3 0.2-0.3 0.2-0.2 0.3-0.2 0.3-0.3 0.2-0.3 0.2-0.2 0.3-1 0.3-1 0.2v1q0 1-1 1.2-1 0.3-1.5 1.6-0.5 1.2-7 5.7t-6.5 5.5-4.8 4q-4.7 3-9.4 5.5-4.8 2.5-4.8 3.5t-7 3.8q-7 2.7-7.5 4-0.5 1.2-3.5 1.4-3 0.3-4.5 1.3t-15.5 4-33.5 3.5-29.5-1-22.5-4.8q-12.5-3.2-12.7-4.2-0.3-1-3-1.5-2.8-0.5-2.8-1.5t-1.8-1.5q-1.7-0.5-4.4-1.5-2.8-1-4.3-2.8l-1.5-1.7-0.2-0.3-0.3-0.2-0.3-0.2-0.2-0.3-1-0.5-1-0.5-0.2-0.3-0.3-0.2-0.3-0.2-0.2-0.3-0.2-0.3-0.3-0.2v-4l0.3-0.2 0.2-0.3h3l0.2 0.3 0.3 0.2 0.3 0.2 0.2 0.3h18q18 0 29-2.5t19.5-6.2q8.5-3.8 8.5-4.8t1-1.2q1-0.3 3-2.6 2-2.2 3-2.2t1.2-1q0.3-1 1.6-1.5 1.2-0.5 1.2-1.5t1-1 2-1.8q1-1.7 4.8-10 3.7-8.2 4.2-17.2t-1-13-5-10.5-9.2-13.7q-5.8-7.3-15.8-14.8t-35-20l-25-12.5-0.2-0.3-0.3-0.2-0.3-0.2-0.2-0.3-0.2-0.3-0.3-0.2-0.3-0.2-0.2-0.3-1.5-0.3-1.5-0.2 0.2 1.5 0.3 1.5 0.3 0.2 0.2 0.3 0.2 0.3 0.3 0.2 0.5 1.5 0.5 1.5 5 8.5q5 8.5 6.7 11.5 1.8 3 2.8 3t2.5 2.2q1.5 2.3 2.5 2.6 1 0.2 1.5 1.4 0.5 1.3 1.5 1.6 1 0.2 2.5 2.4 1.5 2.3 2.5 2.6 1 0.2 1 1.2t1.2 1.5q1.3 0.5 1.6 1.5 0.2 1 4 3 3.7 2 7.4 4 3.8 2 3.8 3t8.5 4.8q8.5 3.7 12 4.2l3.5 0.5 0.2 0.3 0.3 0.2 0.3 1.5 0.2 1.5-1 0.2-1 0.3-2 0.5-2 0.5-0.2 0.3-0.3 0.2-0.3 0.2-0.2 0.3-5.5 0.5q-5.5 0.5-7.5 1t-30 1-36.5-1.2l-8.5-1.8-0.5-0.2q-0.5-0.3-0.5-0.6v-0.2l-3-0.2-3-0.3-2-0.5q-2-0.5-5.5-1.5t-13.5-5-26.5-14.3q-16.5-10.2-16.5-11.2t-6.8-6.5q-6.7-5.5-10.4-9-3.8-3.5-10-12-6.3-8.5-34.8-17.5t-31.8-10.2q-3.2-1.3-22.2-8.8t-35.8-15.8q-16.7-8.2-32.4-16.7-15.8-8.5-16-9.5-0.3-1-6-4-5.8-3-6-4-0.3-1-12-9-11.8-8-11.8-9t-4.5-4.2q-4.5-3.3-8-7-3.5-3.8-4.5-4-1-0.3-13.2-13.6-12.3-13.2-14.6-15.2-2.2-2-2.2-3.5t-1-1.7q-1-0.3-4.5-5.8t-10-17-11.3-25.2q-4.7-13.8-6.2-22.8t-2-25 2-28.5 7.5-25.5 13-26 20.3-28q12.2-15 13.2-15.2 1-0.3 1.5-1.6 0.5-1.2 1.5-1.4 1-0.3 1.5-1.6 0.5-1.2 4.5-3.7t4-3.5 1-1 1-1 13-10.5 13-10.5 1.5-1.2q1.5-0.3 14.3-8.6 12.7-8.2 16.4-10.2 3.8-2 3.8-3t1.8-1.5q1.7-0.5 4.4-1.5 2.8-1 2.8-2t13-7.2q13-6.3 37.2-16.6 24.3-10.2 42-16.2 17.8-6 19.6-18.5 1.7-12.5 4.7-21l3-8.5 0.3-0.2 0.2-0.3 0.2-0.3 0.3-0.2 0.5-1.5 0.5-1.5 0.3-0.2 0.2-0.3h-4l-0.2 0.3-0.3 0.2-0.3 0.2-0.2 0.3-3.5 0.5q-3.5 0.5-16.5 1t-20.5-0.5-18.5-4.5-17-7.5l-6-4-0.2-0.3-0.3-0.2-0.3-0.2-0.2-0.3-0.2-0.3-0.3-0.2-0.3-0.2-0.2-0.3-0.2-0.3-0.3-0.2-0.3-0.2-0.2-0.3-0.2-0.3-0.3-0.2-0.3-2-0.2-2 29.5-0.2q29.5-0.3 39.5-2.8t19.5-7.2q9.5-4.8 9.5-5.8t9.8-7.5q9.7-6.5 18-12 8.2-5.5 8.2-6.5t12.5-8.8q12.5-7.7 14.5-8 2-0.2 2-1.2t15.5-7.8q15.5-6.7 34-10.7t38-3.5 38 5.5 35.5 13.5 18.5 9l1.5 0.5 0.2 0.3 0.3 0.2 0.3 0.2 0.2 0.3 1 0.5 1 0.5 1 0.3 1 0.2-0.2-1.5-0.3-1.5-0.3-0.2-0.2-0.3-0.2-0.3-0.3-0.2-2.5-11q-2.5-11-2-26.5t1.5-22.5 4-18 4.7-12.8q1.8-1.7 4.6 12.6 2.7 14.2 5 21.7 2.2 7.5 3.2 7.5t3 5.2q2 5.3 2.5 7 0.5 1.8 2.7 3.8 2.3 2 4 5.5 1.8 3.5 2.8 3.5t1.5 1.2q0.5 1.3 1.5 1.6 1 0.2 1 1.2t2.5 2 4.5 3.2q2 2.3 5.5 4 3.5 1.8 3.5 2.8t6 2.5 6 2.5 14.5 3.8q14.5 2.7 41 6.7t39 8.5 13 5 2 0.8zm-21 153.2l2.5 0.5 0.2 0.3 0.3 0.2 0.3 0.2 0.2 0.3h4l0.2-0.3 0.3-0.2 0.3-0.2 0.2-0.3-1-0.5-1-0.5-1.5-0.5-1.5-0.5-1-0.5-1-0.5-1.5-0.5q-1.5-0.5-10.5-5t-29.5-11-43-10l-22.5-3.5-2.5-0.5-2.5-0.5-0.2-0.3-0.3-0.2v-4l0.3-0.2 0.2-0.3 8.5-1.5q8.5-1.5 33-1t42 4.5 32.5 9 21 7.3q6 2.2 6 3.2t3.2 2q3.3 1 8.6 3 5.2 2 5.2 3t2.8 2q2.7 1 5 1.5 2.2 0.5 2.2 1.5t6.2 4q6.3 3 6.6 4 0.2 1 4.2 2.5t4 2.5 1.5 1 1.5 1 2 1.5 2 1.5 5.5 4 12.7 11.5q7.3 8.5 7.6 8.7l0.2 0.3 0.2 0.3 0.3 0.2 0.5 1 0.5 1 0.3 0.2 0.2 0.3 0.2 0.3 0.3 0.2 0.5 2 0.5 2v1l-0.3 0.2-0.2 0.3h-3l-0.2-0.3-0.3-0.2-0.3-0.2-0.2-0.3-1-0.5-1-0.5-0.2-0.3-0.3-0.2-0.3-0.2-0.2-0.3-0.2-0.3q-0.3-0.2-2-1.4-1.8-1.3-11.3-4.8l-9.5-3.5-1-0.5-1-0.5h-6l0.2 0.3 0.3 0.2 0.3 0.2 0.2 0.3 0.2 0.3 0.3 0.2 0.5 1.5 0.5 1.5 0.3 0.2 0.2 0.3 1 0.3 1 0.2 1.5 2.2q1.5 2.3 2.5 2.6 1 0.2 1 1.2t1.2 1.5q1.3 0.5 1.6 1.5 0.2 1 7.2 4.8 7 3.7 9 4 2 0.2 2 1.2t6.5 3.8q6.5 2.7 9 3 2.5 0.2 2.5 1.2t3 1.8q3 0.7 13.5 4 10.5 3.2 10.5 4.2t7.2 3.5q7.3 2.5 10 3 2.8 0.5 2.8 1.5t2.8 2q2.7 1 7.4 3 4.8 2 4.8 3t3.8 3q3.7 2 4.2 3t0.8 1.2l0.2 0.3 0.2 0.3 0.3 0.2 0.5 1 0.5 1v4l-0.3 1-0.2 1-1 0.2-1 0.3-2 0.5q-2 0.5-9.5 2.8-7.5 2.2-7.5 3.2t-16 1.8q-16 0.7-28-1.6l-12-2.2-4.5 0.2q-4.5 0.3-4.7 0.6l-0.3 0.2-0.3 0.2-0.2 0.3-0.2 0.3-0.3 0.2-0.3 0.2-0.2 0.3-1 0.3-1 0.2-0.2 1-0.3 1-0.3 0.2-0.2 0.3-0.2 0.3-0.3 0.2-0.3 0.2-0.2 0.3-0.2 0.3-0.3 0.2v5l0.3 0.2 0.2 0.3 1 0.5 1 0.5 2.5 0.5q2.5 0.5 10.5 2t12.5 3 9.7 6.8q5.3 5.2 5.3 26.2t-4.7 32.5q-4.8 11.5-5.8 11.5t-1.8 2q-0.7 2-5.4 5.5-4.8 3.5-4.8 4.5t-1.8 1.5q-1.7 0.5-11 4.7-9.2 4.3-23.7 6.8t-30 1.5-36.5-6.5-35-6-24 2-18 6.5-12.5 9-9.3 12.7q-4.7 7.8-7.2 17.8t-3 21l-0.5 11 0.3-0.2 0.2-0.3 1-0.5 1-0.5 9-3q9-3 13.5-4t12.5-0.5 21.5 4.5 18 5.5 8 1.8l3.5 0.2 0.2-2.5q0.3-2.5 1.8-8t7.8-18q6.2-12.5 7.2-12.7 1-0.3 2.5-2.6 1.5-2.2 4.3-4.2 2.7-2 11-6.2l8.2-4.3 2.5-0.3 2.5-0.2 0.2 1.5 0.3 1.5 0.3 4 0.2 4-1 0.2q-1 0.3-6 3.3t-7 5.3q-2 2.2-3 2.4-1 0.3-3 3.6-2 3.2-3 3.2t-1.5 1.8q-0.5 1.7-3.3 9-2.7 7.2-3.7 12.7t-1.5 14.5 1 12 2 8.5-5.2 8.3q-5.8 2.7-16.8 3.2t-15-0.8q-4-1.2-4-2.2t-10.8-8q-10.7-7-17.4-9.8-6.8-2.7-22.8-3.4l-16-0.8 0.2 2.5 0.3 2.5 0.3 0.2 0.2 0.3 0.2 0.3 0.3 0.2 0.7 2.8q0.8 2.7 1.8 3 1 0.2 2.5 3.7t12 10.3q10.5 6.7 20 10.2t13.5 4.5 22 0.5 24.8-3.2q6.7-2.8 14.4-7.8 7.8-5 10.3-9t3.5-4h1l0.2-1 0.3-1 0.3-1 0.2-1 1-0.2 1-0.3 1-0.3 1-0.2-0.2 1-0.3 1-0.5 3-0.5 3-6 12q-6 12-7.7 13.8-1.8 1.7-2 2l-0.3 0.2-0.3 0.2-0.2 0.3-0.2 0.3-0.3 0.2-0.3 0.2-0.2 0.3-0.2 0.3-0.3 0.2-0.3 0.2-0.2 0.3-0.2 0.3-0.3 0.2-0.3 1-0.2 1 3.5 0.2 3.5 0.3h12.5q12.5 0 20-2.5t9.5-3.2q2-0.8 2-1.8t3.8-3q3.7-2 10.7-9t7.3-8.5l0.2-1.5 1-0.2 1-0.3 0.2-0.3 0.3-0.2 0.3-1 0.2-1 1.5 0.2 1.5 0.3 0.2 0.3 0.3 0.2v4l-0.5 1-0.5 1-2.7 7.2q-2.8 7.3-4.8 10.3t-3 3.3l-1 0.2v3l3.5 0.5q3.5 0.5 3.5 1.5t1.2 1.5q1.3 0.5 2.3 4.5t-3.5 13-9.8 16q-5.2 7-7.7 8t-5 3.8q-2.5 2.7-11 7.7t-30 16.5-22.3 12.2q-0.7 0.8-1 1l-0.2 0.3-0.2 0.3-0.3 0.2-0.3 0.2-0.2 0.3-1.5 0.3-1.5 0.2-0.2-1.5q-0.3-1.5-1.8-6t-5-9l-3.5-4.5-0.3-0.2-0.2-0.3-0.2-0.3-0.3-0.2-0.3-0.2-0.2-0.3-0.2-0.3-0.3-0.2-0.3-0.2-0.2-0.3-0.2-0.3-0.3-0.2-0.3-0.2-0.2-0.3-1.5-0.3-1.5-0.2-0.2 1.5-0.3 1.5-5.3 8q-5.2 8-6.4 8.5-1.3 0.5-1.6 1.5-0.2 1-2.2 2.2-2 1.3-3 1.8l-1 0.5-0.2 0.3-0.3 0.2-0.3 0.2-0.2 0.3-0.2 0.3-0.3 0.2-0.3 0.2-0.2 0.3-1 0.5-1 0.5-0.2 0.3-0.3 0.2-0.3 0.2-0.2 0.3h-1l-0.2-0.3-0.3-0.2-0.3-0.2-0.2-0.3-0.2-0.3-0.3-0.2-0.5-6.5q-0.5-6.5-3.2-12.3l-2.8-5.7-0.2-0.3-0.3-0.2-0.3-0.2-0.2-0.3-0.2-0.3-0.3-0.2-0.5-1-0.5-1-0.3-0.2-0.2-0.3-0.2-0.3-0.3-0.2-0.3-0.2-0.2-0.3-0.2-0.3-0.3-0.2-0.3 0.2-0.2 0.3-0.2 0.3-0.3 0.2-0.3 0.2-0.2 0.3-0.2 0.3-0.3 0.2-0.3 0.2-0.2 0.3-0.2 0.3-0.3 0.2-2.7 4q-2.8 4-6 7-3.3 3-3.6 3.2l-0.2 0.3-0.2 0.3-0.3 0.2-0.3 0.2-0.2 0.3-0.2 0.3-0.3 0.2-0.3 0.2-0.2 0.3-0.2 0.3-0.3 0.2-0.3 0.2-0.2 0.3-0.2 0.3-0.3 0.2-0.3 0.2-0.2 0.3-2 0.3-2 0.2 0.2-1.5 0.3-1.5 0.5-1.5 0.5-1.5 0.5-1q0.5-1 0.5-8t-1-10l-1-3-0.5-2-0.5-2-0.3-0.2-0.2-0.3-1-0.3-1-0.2v2h-2v1q0 1-3 2.5t-3 2.5-1 1.2q-1 0.3-2 0.8l-1 0.5-0.2 0.3-0.3 0.2-0.3 0.2-0.2 0.3-1 0.5-1 0.5-0.2 0.3-0.3 0.2-0.3 0.2-0.2 0.3h-3l-0.2-0.3-0.3-0.2v-2.5q0-2.5 0.5-4.5t-0.5-8-3.3-9q-2.2-3-7.2-6.2-5-3.3-17.5-9l-12.5-5.8-5.5-0.2q-5.5-0.3-13.5-2.8t-20-8.5-13.5-7.7q-1.5-1.8-3-2-1.5-0.3-7.5-5-6-4.8-6.2-5.8-0.3-1-2.6-2.5-2.2-1.5-2.4-2.5-0.3-1-1.6-1.5-1.2-0.5-1.2-2t-1-1.7q-1-0.3-4.8-6-3.7-5.8-8.4-16.6-4.8-10.7-6.3-14.7t-4.3-17.3q-2.7-13.2-3.7-26.7l-1-13.5-0.3 0.2-0.2 0.3-0.2 0.3-0.3 0.2-0.5 2.5-0.5 2.5-0.3 0.2-0.2 0.3-0.2 0.3-0.3 0.2-1.5 5q-1.5 5-1.8 18-0.2 13 0.8 13t1.8 4q0.7 4 1.2 5t1 3l0.5 2 0.3 2 0.2 2-1.5-0.2-1.5-0.3-1.5-0.5-1.5-0.5-0.2-0.3-0.3-0.2-0.3-0.2-0.2-0.3-0.2-0.3-0.3-0.2-0.3-0.2q-0.2-0.3-1.7-0.8t-2-1.8q-0.5-1.2-2-1.4-1.5-0.3-16.5-10.6-15-10.2-15-11.2t-1-1-1.2-1q-0.3-1-5.3-5t-11.7-12.5q-6.8-8.5-7.8-8.5t-4-6.5-4-6.5-3.8-8q-2.7-8-3.2-21t1.2-24q1.8-11 2.8-11t1.2-2.5q0.3-2.5 4.6-12.7 4.2-10.3 5.4-13.6 1.3-3.2 4-8.4 2.8-5.3 3.8-9 1-3.8 2-3.8t1.8-3q0.7-3 6-17.8 5.2-14.7 7.4-28.4 2.3-13.8 5.6-16l3.2-2.3 0.2-0.3 0.3-0.2 0.3-0.2 0.2-0.3 1.5-0.5 1.5-0.5 0.2-0.3 0.3-0.2 0.3-0.2 0.2-0.3h5l0.2 0.3 0.3 0.2v3l-0.5 1-0.5 1-0.7 8q-0.8 8-1.8 8t-0.2 24q0.7 24 1.7 32.5t2.5 14.5 2 10l0.5 4 0.5 1 0.5 1 0.3 0.2 0.2 0.3 0.2 0.3 0.3 0.2 0.5-1 0.5-1 0.5-1 0.5-1 0.5-1 0.5-1 0.5-3.5q0.5-3.5 1.5-8t6.3-19.5q5.2-15 6.2-15t1.5-3 1.5-3 1-2.5 1-2.5 4-7 4-7 1.2-2q0.3-2 1.6-2.5 1.2-0.5 2.4-3l1.3-2.5 0.5-1 0.5-1 0.3-0.2 0.2-0.3 0.2-0.3 0.3-0.2 0.3-0.2 0.2-0.3 0.2-0.3 0.3-0.2 0.3-0.2 0.2-0.3h3l0.2 0.3 0.3 0.2v5l-0.3 0.2-0.2 0.3-0.2 0.3-0.3 0.2-2 22.5q-2 22.5-2 50t2 45.5 4.7 29.2q2.8 11.3 6.8 22.8t6 17.2q2 5.8 3 5.8t1.5 2.5 1.5 2.5 2.8 4.5q1.7 4.5 2.4 6.5 0.8 2 1.8 2t4 5.5 4 5.5 1.5 1.8q0.5 1.7 1.5 2 1 0.2 1 1.7t3 4.3q3 2.7 3.2 3l0.3 0.2 0.3 0.2 0.2 0.3 0.2 0.3 0.3 0.2 0.3 0.2 0.2 0.3 1 0.3 1 0.2 0.2 1 0.3 1 0.3 0.2 0.2 0.3 0.2 0.3 0.3 0.2 0.3 0.2 0.2 0.3 0.2 0.3 0.3 0.2v-2l-0.3-0.2-0.2-0.3-0.2-0.3-0.3-0.2-0.5-1.5-0.5-1.5-0.3-2.5q-0.2-2.5-1.2-2.5t-1.8-4.5q-0.7-4.5-4.7-24.5t-4.5-46.5 2.5-44 6.7-29q3.8-11.5 4.8-11.5t1.5-2.8q0.5-2.7 1.7-6l1.3-3.2 0.3-0.2 0.2-0.3 0.2-0.3 0.3-0.2 0.3-0.2 0.2-0.3 0.2-0.3 0.3-0.2 0.3-0.2 0.2-0.3h2l0.2 0.3 0.3 0.2 0.3 0.2 0.2 0.3 0.2 0.3 0.3 0.2v6l1 17.5q1 17.5 3.7 35.3 2.8 17.7 4 23.4 1.3 5.8 6 21.8 4.8 16 5.8 16t2.2 4.5q1.3 4.5 7.3 14.5t6.5 11l0.5 1 0.3 0.2 0.2 0.3 0.2 0.3 0.3 0.2 0.3 0.2 0.2 0.3 0.2 0.3 0.3 0.2 0.5 1 0.5 1 0.3 0.5 0.2 0.5 1 0.2 1 0.3 4 0.3 4 0.2 2.8-18.5q2.7-18.5 8.2-31t11.8-20.3q6.2-7.7 10.2-10.7t11.5-7 19-6.5 31-2.5 38.5 3 21 3.5l2 0.5 2.5 0.3 2.5 0.2-0.2-1-0.3-1-0.3-0.2-0.2-0.3-1.5-0.5-1.5-0.5-0.2-0.3-0.3-0.2-0.3-0.2-0.2-0.3-1.5-0.5q-1.5-0.5-8-2.5t-40-7l-33.5-5-1-0.5-1-0.5-1-0.5-1-0.5-1-0.5-1-0.5-0.2-0.3-0.3-0.2-0.3-1-0.2-1 4 0.2 4 0.3 34-2.5q34-2.5 35-3t19-0.5h18l1 0.5 1 0.5h4l-0.2-0.3-0.3-0.2-0.3-0.2-0.2-0.3-0.2-0.3-0.3-0.2-0.3-0.2-0.2-0.3-1.5-0.5-1.5-0.5-0.2-0.3-0.3-0.2-0.3-0.2-0.2-0.3-0.2-0.3-0.3-0.2-0.3-0.2-0.2-0.3-2.5-0.5q-2.5-0.5-8-2t-40.5-3.5-47-3.5-30.5-6.5l-18.5-5-1-0.3-1-0.2-0.2-1-0.3-1-0.3-0.2-0.2-0.3-0.2-0.3-0.3-0.2-0.3-0.2-0.2-0.3 12.5 0.5q12.5 0.5 39.5 2t71 1.8l44 0.2v-2l-1-0.2-1-0.3-1.5-0.5-1.5-0.5-0.2-0.3-0.3-0.2-0.3-0.2-0.2-0.3-1.5-0.5q-1.5-0.5-2.5-1t-13-3.5-72-6.5-81.5-6l-21.5-2.5-0.2-0.3-0.3-0.2v-2l0.3-0.2 0.2-0.3 38-1.5q38-1.5 77.5-5t48.5-4l9-0.5 0.2-0.3 0.3-0.2v-2l-0.3-0.2-0.2-0.3-1.5-0.5-1.5-0.5-0.2-0.3-0.3-0.2-0.3-0.2-0.2-0.3-1.5-0.5q-1.5-0.5-6.5-2.5t-19.5-4.5-54.5-4.5-54-5-25.5-7.7q-11.5-4.8-11.7-5.8-0.3-1-3-2.5-2.8-1.5-5.6-5-2.7-3.5-5.4-8.3-2.8-4.7-4-10.4l-1.3-5.8-0.3-0.2-0.2-0.3-0.2-0.3-0.3-0.2-0.3-2-0.2-2 1.5 0.2 1.5 0.3 0.2 0.3 0.3 0.2 0.3 0.2 0.2 0.3 1 0.3 1 0.2 0.2 1 0.3 1 5.7 5.8q5.8 5.7 10.8 8.2t13.5 5 13 3l4.5 0.5 1 0.5 1 0.5h3l-0.2-0.3-0.3-0.2-0.3-0.2-0.2-0.3-0.2-0.3-0.3-0.2-0.5-1-0.5-1-0.3-0.2-0.2-0.3-0.2-0.3q-0.3-0.2-0.8-0.7t-1.5-8l-1-7.5 0.5-1 0.5-1 0.5-2 0.5-2 0.3-1 0.2-1 2 0.2 2 0.3 0.2 0.3 0.3 0.2 0.3 0.2 0.2 0.3 0.2 0.3 0.3 0.2 2 5q2 5 6.5 9t6 8 2 5l0.5 1 0.3 0.2 0.2 0.3h2l4-3q4-3 12.8-4.7 8.7-1.8 12-4.6 3.2-2.7 3.4-3l0.3-0.2 0.3-0.2 0.2-0.3 0.2-0.3 0.3-0.2 0.3-0.5 0.2-0.5v-2l1-0.2 1-0.3v-0.5l-0.5-0.2-0.5-0.3v-0.5l-0.5-0.2-0.5-0.3-1-0.3q-1-0.2-1-1.2t-1-1.2q-1-0.3-6-3.6l-5-3.2-0.5-0.2-0.5-0.3-1-0.5-1-0.5-2-0.5q-2-0.5-13-3.5t-25.5-4.5-40.5-0.5-54.5 6-49.5 5-27.5-1.5-15-5-20.5-11.8q-12-8.2-12-9.2t-1-1-1.2-1q-0.3-1-1.6-1.5-1.2-0.5-1.2-1.5t-2.2-3q-2.3-2-7.8-11t-8.2-19l-2.8-10h-0.5l-0.7-6.8q-0.8-6.7 3.2-6.2t19.5 6 26.5 8 31.5 4.5 69 1.5 78 4 42 6.8q12.5 2.2 12.5 3.2t14.8 4.5q14.7 3.5 19.4 5.3 4.8 1.7 7.3 2.2zm175.7 237.2l-0.2 0.3-0.2 0.3-0.3 0.2-0.5 1-0.5 1-0.3 0.2-0.2 0.3-2 0.3-2 0.2-0.8-3.5q-0.7-3.5-1.4-5.5-0.8-2-1.8-2t-3.5-3.8q-2.5-3.7-7.3-7-4.7-3.2-2.7-9.2t5.5-16 3.8-31.5q0.2-21.5 1.4-22 1.3-0.5 1.6-1.5 0.2-1 13.4-6 13.3-5 17.8-7.5t6.8-4.7q2.2-2.3 3.2-2.6 1-0.2 0.2 10.8-0.7 11 1.3 29t-0.5 29-8.8 21.8q-6.2 10.7-7.2 12.4-1 1.8-2 1.8t-1.5 2-4.3 5.5q-3.7 3.5-5.2 5t-1.8 1.7zm-38.2 49.8l-2 0.5-1 0.5-1 0.5h-3l-0.2-0.3-0.3-0.2-0.3-0.2-0.2-0.3 0.2-0.3 0.3-0.2 0.3-0.2 0.2-0.3 0.2-0.3 0.3-0.2 0.5-1 0.5-1 0.3-0.2 0.2-0.3 0.2-0.3 0.3-0.2 0.3-0.2 0.2-0.3 1-0.3q1-0.2 3.5-4 2.5-3.7 4.7-12 2.3-8.2 0.6-15.7-1.8-7.5-5.3-9t-3.7-2.5l-0.3-1-0.3-0.2-0.2-0.3 0.2-0.3 0.3-0.2 2.7-2.8q2.8-2.7 3.8-3 1-0.2 4.2-4.7 3.3-4.5 7-2.5 3.8 2 3.8 3t1.2 1.5q1.3 0.5 1.6 1.5 0.2 1 1.2 1t3.8 6.5q2.7 6.5 2.2 14t-6.8 16.7q-6.2 9.3-8.7 10.6-2.5 1.2-2.5 2.2t-4 3.2q-4 2.3-6 2.8zm-60.8 1.2l-0.2 0.3-0.2 0.3-0.3 0.2-0.3 0.2-0.2 0.3-1 0.5-1 0.5-0.2 0.3-0.3 0.2-0.3 0.2-0.2 0.3-0.2 0.3-0.3 0.2-0.3 0.2-0.2 0.3-1.5 0.3-1.5 0.2 0.2-4q0.3-4-0.2-10.5t-5-15.5-5-13.5l-0.5-4.5 0.3-0.2 0.2-0.3 17.5-1q17.5-1 24-2.3 6.5-1.2 6 1.3t-3.7 5.5q-3.3 3-7.3 10.5t-4.3 9.5q-0.2 2-1.2 2t-2 2.8q-1 2.7-4.5 8.2t-4.7 6.2q-1.3 0.8-1.6 1z"/>
   <path d="m255.2 270.8q18.8-8.3 19-4.6 0.3 3.8-0.7 6.8t-3.5 9-6.2 9q-3.8 3-3.8 4t-8.5 6.5-8.5 6.5-8.5 6.5-8.5 6.5-3.8 3.5q-3.7 2.5-6.4 4-2.8 1.5-3 2.5-0.3 1-4 4-3.8 3-4 4-0.3 1-1.6 1.5-1.2 0.5-2.2 2.3-1 1.7-6 8.4-5 6.8-6 7-1 0.3-5.2 7.6-4.3 7.2-8.3 19.2t-4 42.5 2.5 40 7.8 22.5q5.2 13 6.2 13.2 1 0.3 4 5 3 4.8 4 5 1 0.3 1.5 1.6 0.5 1.2 1.5 1.2t1 1 1 1.2q1 0.3 1.5 1.6 0.5 1.2 15.5 12 15 10.7 17 13 2 2.2 3.2 2.7 1.3 0.5 5 4 3.8 3.5 4.6 5 0.7 1.5 4.2 8.5t4 20-1 16.5-7.5 13.5-9.7 13q-3.8 3-3.8 4t-1.8 2q-1.7 1-5.4 3-3.8 2-3.8 3t-1.8 1.5q-1.7 0.5-13 4.7-11.2 4.3-21.7 5.8t-27.5-11.2q-17-12.8-17-13.8t-1-1.2q-1-0.3-1.5-1.6-0.5-1.2-1.5-1.4-1-0.3-4-4-3-3.8-4-4-1-0.3-3.5-3.6-2.5-3.2-3.5-3.4-1-0.3-1.5-1.6-0.5-1.2-1.5-1.2t-1.2-1q-0.3-1-1.6-1.5-1.2-0.5-8.2-10.3-7-9.7-14-20.7t-11.5-21.5-7.5-18.5-5.8-24.7q-2.7-16.8-1.7-32.3t2.5-23 5.5-19 9-21 14-23 18-23.5 20.7-20.5q11.8-10.5 11.8-11.5t10-7.8q10-6.7 10.5-8 0.5-1.2 8-5.2t7.5-5 6-4.2q6-3.3 25.2-13.6 19.3-10.2 38-18.4z"/>
  </g>
  <g fill="#c60000" stroke="#c60000">
   <path d="m699.5 304l2.5 0.5 0.2 0.3 0.3 0.2 0.3 0.2 0.2 0.3h4l0.2-0.3 0.3-0.2 0.3-0.2 0.2-0.3-1-0.5-1-0.5-1.5-0.5-1.5-0.5-1-0.5-1-0.5-1.5-0.5q-1.5-0.5-10.5-5t-29.5-11-43-10l-22.5-3.5-2.5-0.5-2.5-0.5-0.2-0.3-0.3-0.2v-4l0.3-0.2 0.2-0.3 8.5-1.5q8.5-1.5 33-1t42 4.5 32.5 9 21 7.3q6 2.2 6 3.2t3.2 2q3.3 1 8.6 3 5.2 2 5.2 3t2.8 2q2.7 1 5 1.5 2.2 0.5 2.2 1.5t6.2 4q6.3 3 6.6 4 0.2 1 4.2 2.5t4 2.5 1.5 1 1.5 1 2 1.5 2 1.5 5.5 4 12.7 11.5q7.3 8.5 7.6 8.7l0.2 0.3 0.2 0.3 0.3 0.2 0.5 1 0.5 1 0.3 0.2 0.2 0.3 0.2 0.3 0.3 0.2 0.5 2 0.5 2v1l-0.3 0.2-0.2 0.3h-3l-0.2-0.3-0.3-0.2-0.3-0.2-0.2-0.3-1-0.5-1-0.5-0.2-0.3-0.3-0.2-0.3-0.2-0.2-0.3-0.2-0.3q-0.3-0.2-2-1.4-1.8-1.3-11.3-4.8l-9.5-3.5-1-0.5-1-0.5h-6l0.2 0.3 0.3 0.2 0.3 0.2 0.2 0.3 0.2 0.3 0.3 0.2 0.5 1.5 0.5 1.5 0.3 0.2 0.2 0.3 1 0.3 1 0.2 1.5 2.2q1.5 2.3 2.5 2.6 1 0.2 1 1.2t1.2 1.5q1.3 0.5 1.6 1.5 0.2 1 7.2 4.8 7 3.7 9 4 2 0.2 2 1.2t6.5 3.8q6.5 2.7 9 3 2.5 0.2 2.5 1.2t3 1.8q3 0.7 13.5 4 10.5 3.2 10.5 4.2t7.2 3.5q7.3 2.5 10 3 2.8 0.5 2.8 1.5t2.8 2q2.7 1 7.4 3 4.8 2 4.8 3t3.8 3q3.7 2 4.2 3t0.8 1.2l0.2 0.3 0.2 0.3 0.3 0.2 0.5 1 0.5 1v4l-0.3 1-0.2 1-1 0.2-1 0.3-2 0.5q-2 0.5-9.5 2.8-7.5 2.2-7.5 3.2t-16 1.8q-16 0.7-28-1.6l-12-2.2v-0.2q0-0.3 0.2-0.6 0.3-0.2-0.4-3.7-0.8-3.5-1.8-3.5t-1.2-1q-0.3-1-8-7.8-7.8-6.7-21.8-14.7t-28.5-12-22-4.5-11.5 1-8.5 2.2l-4.5 0.8v-0.5l-1-0.5-1-0.5-3.5-0.5q-3.5-0.5-7-1.8-3.5-1.2-3.5-2.2t-8-5.5l-8-4.5-0.2-0.5q-0.3-0.5-0.6-0.5h-0.2l-0.5-0.2-0.5-0.3-1-0.3q-1-0.2-1-1.2t-1-1.2q-1-0.3-6-3.6l-5-3.2 2-0.2 2-0.3-0.2-0.3-0.3-0.2-0.3-0.2-0.2-0.3-1-0.5-1-0.5-0.2-0.3-0.3-0.2-0.3-0.2-0.2-0.3-0.2-0.3-0.3-0.2-0.3-0.2-0.2-0.3-0.2-0.3-0.3-0.2-0.3-0.2-0.2-0.3-0.2-0.3-0.3-0.2-0.3-0.2-0.2-0.3-1-0.5q-1-0.5-3.8-2.2-2.7-1.8-12-6-9.2-4.3-20.7-6.8t-25-3-23 1-25.5 7-26.5 6-21.5-1-26-4.5-30-9-26.5-13-15-10.7q-3.5-3.8-4.5-3.8t-1.2-1q-0.3-1-2.6-2.5-2.2-1.5-9.4-12l-7.3-10.5-0.3-0.2-0.2-0.3-0.2-0.3-0.3-0.2-0.5-1-0.5-1-0.3-0.2-0.2-0.3-0.2-0.3-0.3-0.2-0.3 0.2-0.2 0.3-0.2 0.3-0.3 0.2-0.3 3.5-0.2 3.5h-0.5l-0.7-6.8q-0.8-6.7 3.2-6.2t19.5 6 26.5 8 31.5 4.5 69 1.5 78 4 42 6.8q12.5 2.2 12.5 3.2t14.8 4.5q14.7 3.5 19.4 5.3 4.8 1.7 7.3 2.2zm9.7 2.8q-0.2-0.3 2.3 0.7t0.3 0.3q-2.3-0.8-2.6-1z"/>
   <path d="m426.8 364.8l0.2-0.3h5l0.2 0.3 0.3 0.2v3l-0.5 1-0.5 1-0.7 8q-0.8 8-1.8 8t-0.2 24q0.7 24 1.7 32.5t2.5 14.5 2 10l0.5 4 0.5 1 0.5 1 0.3 0.2 0.2 0.3 0.2 0.3 0.3 0.2 0.5-1 0.5-1 0.5-1 0.5-1 0.5-1 0.5-1 0.5-3.5q0.5-3.5 1.5-8t6.3-19.5q5.2-15 6.2-15t1.5-3 1.5-3 1-2.5 1-2.5 4-7 4-7 1.2-2q0.3-2 1.6-2.5 1.2-0.5 2.4-3l1.3-2.5 0.5-1 0.5-1 0.3-0.2 0.2-0.3 0.2-0.3 0.3-0.2 0.3-0.2 0.2-0.3 0.2-0.3 0.3-0.2 0.3-0.2 0.2-0.3h3l0.2 0.3 0.3 0.2v5l-0.3 0.2-0.2 0.3-0.2 0.3-0.3 0.2-2 22.5q-2 22.5-2 50t2 45.5 4.7 29.2q2.8 11.3 6.8 22.8t6 17.2q2 5.8 3 5.8t1.5 2.5 1.5 2.5 2.8 4.5q1.7 4.5 2.4 6.5 0.8 2 1.8 2t4 5.5 4 5.5 1.5 1.8q0.5 1.7 1.5 2 1 0.2 1 1.7t3 4.3q3 2.7 3.2 3l0.3 0.2 0.3 0.2 0.2 0.3 0.2 0.3 0.3 0.2 0.3 0.2 0.2 0.3 1 0.3 1 0.2 0.2 1 0.3 1 0.3 0.2 0.2 0.3 0.2 0.3 0.3 0.2 0.3 0.2 0.2 0.3 0.2 0.3 0.3 0.2v-2l-0.3-0.2-0.2-0.3-0.2-0.3-0.3-0.2-0.5-1.5-0.5-1.5-0.3-2.5q-0.2-2.5-1.2-2.5t-1.8-4.5q-0.7-4.5-4.7-24.5t-4.5-46.5 2.5-44 6.7-29q3.8-11.5 4.8-11.5t1.5-2.8q0.5-2.7 1.7-6l1.3-3.2 0.3-0.2 0.2-0.3 0.2-0.3 0.3-0.2 0.3-0.2 0.2-0.3 0.2-0.3 0.3-0.2 0.3-0.2 0.2-0.3h2l0.2 0.3 0.3 0.2 0.3 0.2 0.2 0.3 0.2 0.3 0.3 0.2v6l1 17.5q1 17.5 3.7 35.3 2.8 17.7 4 23.4 1.3 5.8 6 21.8 4.8 16 5.8 16t2.2 4.5q1.3 4.5 7.3 14.5t6.5 11l0.5 1 0.3 0.2 0.2 0.3 0.2 0.3 0.3 0.2 0.3 0.2 0.2 0.3 0.2 0.3 0.3 0.2 0.5 1 0.5 1 0.3 0.5 0.2 0.5h-0.5l-0.3 0.2-0.2 0.3h-1l-1-0.5-1-0.5-0.2-0.3-0.3-0.2-0.3-0.2-0.2-0.3-2-0.5-2-0.5-0.2-0.3q-0.3-0.2-3.3-2.2t-8.7-9.2q-5.8-7.3-9-17l-3.3-9.8-0.5-1-0.5-1-0.3-0.2-0.2-0.3-1.5-0.3-1.5-0.2-0.2 2.5-0.3 2.5-2 13.5q-2 13.5-1 29t6 32.5 5.5 19l0.5 2 0.3 2 0.2 2-2-0.2-2-0.3-1-0.5-1-0.5-1-0.5q-1-0.5-9-5t-15.2-11.2q-7.3-6.8-14.8-17.3l-7.5-10.5-0.3-0.2-0.2-0.3-0.2-0.3-0.3-0.2-0.5-1-0.5-1-0.5-1-0.5-1-0.3-0.2-0.2-0.3-0.2-0.3-0.3-0.2-0.3 0.2-0.2 0.3-0.2 0.3-0.3 0.2v4l0.3 0.2 0.2 0.3 0.2 0.3 0.3 0.2 0.5 1 0.5 1 8.7 14.8q8.8 14.7 15.3 23.2t15.5 16.5 15 12 7 4.5l1 0.5 1 0.5 1 0.5 1 0.5 1 0.5 0.2 0.3 0.3 0.2 0.3 0.2 0.2 0.3 0.2 0.3 0.3 0.2 0.3 0.5 0.2 0.5-5.5-0.2q-5.5-0.3-13.5-2.8t-20-8.5-13.5-7.7q-1.5-1.8-3-2-1.5-0.3-7.5-5-6-4.8-6.2-5.8-0.3-1-2.6-2.5-2.2-1.5-2.4-2.5-0.3-1-1.6-1.5-1.2-0.5-1.2-2t-1-1.7q-1-0.3-4.8-6-3.7-5.8-8.4-16.6-4.8-10.7-6.3-14.7t-4.3-17.3q-2.7-13.2-3.7-26.7l-1-13.5-0.3 0.2-0.2 0.3-0.2 0.3-0.3 0.2-0.5 2.5-0.5 2.5-0.3 0.2-0.2 0.3-0.2 0.3-0.3 0.2-1.5 5q-1.5 5-1.8 18-0.2 13 0.8 13t1.8 4q0.7 4 1.2 5t1 3l0.5 2 0.3 2 0.2 2-1.5-0.2-1.5-0.3-1.5-0.5-1.5-0.5-0.2-0.3-0.3-0.2-0.3-0.2-0.2-0.3-0.2-0.3-0.3-0.2-0.3-0.2q-0.2-0.3-1.7-0.8t-2-1.8q-0.5-1.2-2-1.4-1.5-0.3-16.5-10.6-15-10.2-15-11.2t-1-1-1.2-1q-0.3-1-5.3-5t-11.7-12.5q-6.8-8.5-7.8-8.5t-4-6.5-4-6.5-3.8-8q-2.7-8-3.2-21t1.2-24q1.8-11 2.8-11t1.2-2.5q0.3-2.5 4.6-12.7 4.2-10.3 5.4-13.6 1.3-3.2 4-8.4 2.8-5.3 3.8-9 1-3.8 2-3.8t1.8-3q0.7-3 6-17.8 5.2-14.7 7.4-28.4 2.3-13.8 5.6-16l3.2-2.3 0.2-0.3 0.3-0.2 0.3-0.2 0.2-0.3 1.5-0.5 1.5-0.5 0.2-0.3 0.3-0.2 0.3-0.2zm67.4 244.4q0.3-0.2 0.6 0 0.2 0.3-0.3 0.3t-0.3-0.3z"/>
  </g>
  <path d="m720.5 150.8l1.5 0.2v1q0 1-1 1t-1 1.5-1.5 1.7l-1.5 0.3-1 0.5-1 0.5 0.2 0.3 0.3 0.2v2l-0.3 1.5-0.2 1.5-0.5-0.2q-0.5-0.3-6.7-3-6.3-2.8-17.6-5.6-11.2-2.7-27.2-4.7t-32.5-5-26-6.5-10-4.8q-0.5-1.2-2-1.4-1.5-0.3-7.5-4-6-3.8-6-4.8t-1-1.2q-1-0.3-1.5-1.6-0.5-1.2-1.5-1.4-1-0.3-2.5-2.6-1.5-2.2-2.5-2.4-1-0.3-1.5-1.6-0.5-1.2-1.5-1.2t-2.5-3.5-2.5-3.7q-1-0.3-2.8-3.6l-1.7-3.2-0.5-1-0.5-1-0.3-0.2-0.2-0.3-0.2-0.3-0.3-0.2-0.5-1.5-0.5-1.5 0.5 13q0.5 13 2.2 17.2 1.8 4.3 6.3 13 4.5 8.8 5.5 8.8t6.5 6.2q5.5 6.3 9 8.8t4.5 3l1 0.5 0.2 0.3 0.3 0.2 0.3 0.2 0.2 0.3 0.2 0.3 0.3 0.2 0.3 0.2 0.2 0.3 1 0.5 1 0.5 0.2 0.3 0.3 0.2 0.3 1.5 0.2 1.5-4-0.2-4-0.3-0.2-0.3-0.3-0.2-0.3-0.2q-0.2-0.3-2.7-0.8t-16.5-7-14.5-7.8q-0.5-1.2-3-2-2.5-0.7-7-2.4-4.5-1.8-4.5-2.8t-4.2-3q-4.3-2-9.6-4-5.2-2-5.4-3-0.3-1-5.3-3t-15.5-6-23.2-6.8q-12.8-2.7-29.3-3.2t-33.5 3.5-29 9-12.5 6.3q-0.5 1.2-9.3 5.7-8.7 4.5-12.4 6.5-3.8 2-3.8 3t-5.5 4-5.5 4-3.5 2.5-3.7 2.5q-0.3 1-11 8-10.8 7-10.8 8t-1.5 1-1.5 1-2.5 1.5-2.5 1.5-1.8 1.5q-1.7 0.5-4.4 1.5l-2.8 1-0.2 1-0.3 1-0.3 0.2-0.2 0.3-2 0.5-2 0.5-0.2 0.3-0.3 0.2-0.3 0.2-0.2 0.3h6l0.2-0.3 0.3-0.2 0.3-0.2 0.2-0.3 15.5-5.5q15.5-5.5 25-7.5t10.5-2.5 5.5-0.5h4.5l0.2 0.3 0.3 0.2 0.3 0.2 0.2 0.3 0.2 0.3 0.3 0.2v1l-0.3 0.2-0.2 0.3-1 0.5-1 0.5-1 0.5-1 0.5-0.2 0.3-0.3 0.2-0.3 0.2-0.2 0.3-7.2 2.7q-7.3 2.8-9.6 3.3-2.2 0.5-2.2 1.5t-2.5 1.5-2.5 1.5-2.8 2.5q-2.7 1.5-9.2 7.5t-6.8 7.5q-0.2 1.5-1.2 1.5t-4.8 10q-3.7 10-7.2 33.5t-5.8 31q-2.2 7.5-4.4 9.5-2.3 2-2.6 3-0.2 1-1.4 1.5-1.3 0.5-1.6 1.5-0.2 1-9.2 7.5t-9 7.5-3.8 3q-3.7 2-7.4 4.5-3.8 2.5-3.8 3.5t-1.5 1-3.5 2.2q-2 2.3-6.2 5.6-4.3 3.2-4.6 4.2-0.2 1-5 4.5-4.7 3.5-6.4 6-1.8 2.5-3 3-1.3 0.5-1.6 1.5-0.2 1-4 4.5-3.7 3.5-6 8-2.2 4.5-3.4 5-1.3 0.5-5.3 10.5t-5 13.5-0.5 32 2.5 39 8.3 22.3q6.2 11.7 7.2 13.4 1 1.8 2 1.8t1.5 1.2q0.5 1.3 1.5 1.6 1 0.2 1 1.2t1.2 1.5q1.3 0.5 1.6 1.5 0.2 1 2.7 2t4.5 3.2q2 2.3 5.5 4 3.5 1.8 3.5 2.8t3.8 3q3.7 2 7.2 4.5t3.8 3.5q0.2 1 4.2 3.5t7 6.7q3 4.3 4 4.6 1 0.2 3 4 2 3.7 2.5 6 0.5 2.2 1.7 2.7 1.3 0.5 3.3 10t1 20.5-6.5 22-6.2 12.5q-0.8 1.5-1.8 1.5t-2.5 2.8q-1.5 2.7-5.5 6-4 3.2-6.5 6-2.5 2.7-3.5 3-1 0.2-1 1.2t-3.5 2.8q-3.5 1.7-3.7 2l-0.3 0.2-0.3 0.2-0.2 0.3-1 0.5-1 0.5-1 0.5-1 0.5-0.2 0.3-0.3 0.2-0.3 0.2-0.2 0.3-1 0.5-1 0.5h10q10 0 16-1.5t7.5-2.5 10.5-6.3q9-5.2 9.2-6.2 0.3-1 1.6-1.5 1.2-0.5 1.2-1.5t1-1.2q1-0.3 4-4.3l3-4 0.2-0.3 0.3-0.2 0.5-1 0.5-1 0.3-0.2 0.2-0.3 1-0.5 1-0.5h2l0.2 0.3 0.3 0.2v5l-0.3 0.2-0.2 0.3 0.2 0.3 0.3 0.2 2.5 17q2.5 17 7.5 32t7.3 20q2.2 5 3.2 5t2 2.8q1 2.7 7.2 11.4 6.3 8.8 10.8 14.3t4.8 6.5q0.2 1 6.2 5.8 6 4.7 9 6.4 3 1.8 3 2.8t3.5 2.5 3.5 2.5 6.5 4 6.5 4 2.8 2q2.7 1 18 6.8 15.2 5.7 18.2 6.2t4.5 1l1.5 0.5 0.5 0.3 0.5 0.2v0.5l-0.2 0.3-0.3 0.2-0.3 0.2-0.2 0.3 0.2 0.3 0.3 0.2 0.3 0.2 0.2 0.3 1.5 0.5 1.5 0.5-2.5 0.5-2.5 0.5-0.2 0.3-0.3 0.2-0.3 0.2-0.2 0.3h-0.5q-0.5 0-4 0h-5.5l-0.2-0.3-0.3-0.2-0.3 1-0.2 1h5v2h2v2l-1-0.2-1-0.3-2.5-0.5-2.5-0.5-2-0.5q-2-0.5-5.5-1.5t-13.5-5-26.5-14.3q-16.5-10.2-16.5-11.2t-6.8-6.5q-6.7-5.5-10.4-9-3.8-3.5-10-12-6.3-8.5-34.8-17.5t-31.8-10.2q-3.2-1.3-22.2-8.8t-35.8-15.8q-16.7-8.2-32.4-16.7-15.8-8.5-16-9.5-0.3-1-6-4-5.8-3-6-4-0.3-1-12-9-11.8-8-11.8-9t-4.5-4.2q-4.5-3.3-8-7-3.5-3.8-4.5-4-1-0.3-13.2-13.6-12.3-13.2-14.6-15.2-2.2-2-2.2-3.5t-1-1.7q-1-0.3-4.5-5.8t-10-17-11.3-25.2q-4.7-13.8-6.2-22.8t-2-25 2-28.5 7.5-25.5 13-26 20.3-28q12.2-15 13.2-15.2 1-0.3 1.5-1.6 0.5-1.2 1.5-1.4 1-0.3 1.5-1.6 0.5-1.2 4.5-3.7t4-3.5 1-1 1-1 13-10.5 13-10.5 1.5-1.2q1.5-0.3 14.3-8.6 12.7-8.2 16.4-10.2 3.8-2 3.8-3t1.8-1.5q1.7-0.5 4.4-1.5 2.8-1 2.8-2t13-7.2q13-6.3 37.2-16.6 24.3-10.2 42-16.2 17.8-6 19.6-18.5 1.7-12.5 4.7-21l3-8.5 0.3-0.2 0.2-0.3 0.2-0.3 0.3-0.2 0.5-1.5 0.5-1.5 0.3-0.2 0.2-0.3h-4l-0.2 0.3-0.3 0.2-0.3 0.2-0.2 0.3-3.5 0.5q-3.5 0.5-16.5 1t-20.5-0.5-18.5-4.5-17-7.5l-6-4-0.2-0.3-0.3-0.2-0.3-0.2-0.2-0.3-0.2-0.3-0.3-0.2-0.3-0.2-0.2-0.3-0.2-0.3-0.3-0.2-0.3-0.2-0.2-0.3-0.2-0.3-0.3-0.2-0.3-2-0.2-2 29.5-0.2q29.5-0.3 39.5-2.8t19.5-7.2q9.5-4.8 9.5-5.8t9.8-7.5q9.7-6.5 18-12 8.2-5.5 8.2-6.5t12.5-8.8q12.5-7.7 14.5-8 2-0.2 2-1.2t15.5-7.8q15.5-6.7 34-10.7t38-3.5 38 5.5 35.5 13.5 18.5 9l1.5 0.5 0.2 0.3 0.3 0.2 0.3 0.2 0.2 0.3 1 0.5 1 0.5 1 0.3 1 0.2-0.2-1.5-0.3-1.5-0.3-0.2-0.2-0.3-0.2-0.3-0.3-0.2-2.5-11q-2.5-11-2-26.5t1.5-22.5 4-18 4.7-12.8q1.8-1.7 4.6 12.6 2.7 14.2 5 21.7 2.2 7.5 3.2 7.5t3 5.2q2 5.3 2.5 7 0.5 1.8 2.7 3.8 2.3 2 4 5.5 1.8 3.5 2.8 3.5t1.5 1.2q0.5 1.3 1.5 1.6 1 0.2 1 1.2t2.5 2 4.5 3.2q2 2.3 5.5 4 3.5 1.8 3.5 2.8t6 2.5 6 2.5 14.5 3.8q14.5 2.7 41 6.7t39 8.5 13 5 2 0.8zm-465.3 120q18.8-8.3 19-4.6 0.3 3.8-0.7 6.8t-3.5 9-6.2 9q-3.8 3-3.8 4t-8.5 6.5-8.5 6.5-8.5 6.5-8.5 6.5-3.8 3.5q-3.7 2.5-6.4 4-2.8 1.5-3 2.5-0.3 1-4 4-3.8 3-4 4-0.3 1-1.6 1.5-1.2 0.5-2.2 2.3-1 1.7-6 8.4-5 6.8-6 7-1 0.3-5.2 7.6-4.3 7.2-8.3 19.2t-4 42.5 2.5 40 7.8 22.5q5.2 13 6.2 13.2 1 0.3 4 5 3 4.8 4 5 1 0.3 1.5 1.6 0.5 1.2 1.5 1.2t1 1 1 1.2q1 0.3 1.5 1.6 0.5 1.2 15.5 12 15 10.7 17 13 2 2.2 3.2 2.7 1.3 0.5 5 4 3.8 3.5 4.6 5 0.7 1.5 4.2 8.5t4 20-1 16.5-7.5 13.5-9.7 13q-3.8 3-3.8 4t-1.8 2q-1.7 1-5.4 3-3.8 2-3.8 3t-1.8 1.5q-1.7 0.5-13 4.7-11.2 4.3-21.7 5.8t-27.5-11.2q-17-12.8-17-13.8t-1-1.2q-1-0.3-1.5-1.6-0.5-1.2-1.5-1.4-1-0.3-4-4-3-3.8-4-4-1-0.3-3.5-3.6-2.5-3.2-3.5-3.4-1-0.3-1.5-1.6-0.5-1.2-1.5-1.2t-1.2-1q-0.3-1-1.6-1.5-1.2-0.5-8.2-10.3-7-9.7-14-20.7t-11.5-21.5-7.5-18.5-5.8-24.7q-2.7-16.8-1.7-32.3t2.5-23 5.5-19 9-21 14-23 18-23.5 20.7-20.5q11.8-10.5 11.8-11.5t10-7.8q10-6.7 10.5-8 0.5-1.2 8-5.2t7.5-5 6-4.2q6-3.3 25.2-13.6 19.3-10.2 38-18.4zm43.8 436.7l0.5 1.5 0.3 0.2 0.2 0.3 0.2 0.3 0.3 0.2 0.5 1 0.5 1 0.3 1 0.2 1-2-0.2-2-0.3-0.2-0.3-0.3-0.2-0.3-0.2-0.2-0.3-2-0.5q-2-0.5-6.5-2t-23.5-9.5-37-17l-18-9-0.2-0.3-0.3-0.2-0.3-0.2-0.2-0.3-0.2-0.3-0.3-0.2-0.3-0.2-0.2-0.3-1.5-0.5-1.5-0.5-0.2-0.3-0.3-0.2-0.3-0.2-0.2-0.3-0.2-0.3-0.3-0.2-0.3-0.2-0.2-0.3h20q17 0 25.5-2t16.3-6.3q7.7-4.2 12-6.7 4.2-2.5 7 10 2.7 12.5 6.7 23t6 14.5 2.5 5.5z" fill="#c70000" stroke="#c70000"/>
  <path d="m722 152v-1l0.5 1q0.5 1 5.3 3.5 4.7 2.5 9 5.5 4.2 3 4.2 4t6 5.8q6 4.7 15.2 15 9.3 10.2 9.6 11.2 0.2 1 1.2 1t7.8 11q6.7 11 11 23 4.2 12 12.4 14 8.3 2 20.3 6t16.7 5.8q4.8 1.7 7.8 2 3 0.2 3 1.2t10.2 4.5q10.3 3.5 22.6 8 12.2 4.5 12.2 5.5t8.2 4.5q8.3 3.5 10.6 4 2.2 0.5 2.2 1.5t2.5 1.5 2.5 1.5 5 2.5 5 2.5 2.5 1.5 2.5 1.5 6.2 4q6.3 3 6.6 4 0.2 1 7 4.5 6.7 3.5 8 4 1.2 0.5 1.2 1.5t4 2.5 4 2.5 2 1.5 2 1.5 3 2.5 3 2.5 3.8 3q3.7 2 7 5.2 3.2 3.3 7 6 3.7 2.8 8.4 6.8 4.8 4 6.3 6.2 1.5 2.3 2.5 2.6 1 0.2 5 5.7t6.8 8q2.7 2.5 3 3.5 0.2 1 1.2 1t1 1.5 1 1.5 4 5 4 5 2.5 4 2.5 4 1.5 2.5 1.5 2.5 2.5 4.5 2.5 4.5 6.2 13.5q5.3 13.5 7.8 23.5t2 33-3.2 33.8q-2.8 10.7-3.3 14-0.5 3.2-1.5 3.2t-4 9-4 9-4.2 6.5q-3.3 6.5-4 8.5-0.8 2-2 2.5-1.3 0.5-3 3.7-1.8 3.3-2.8 3.6-1 0.2-5 6.4-4 6.3-5 6.6-1 0.2-10.5 11.7t-13.3 14q-3.7 2.5-6 5.5-2.2 3-5 4.5-2.7 1.5-5.4 3-2.8 1.5-2.8 2.5t-1.2 1.5q-1.3 0.5-1.6 1.5-0.2 1-1.7 1t-1.5 1-3.5 2.5-3.5 2.5-4 2.5-4 2.5-3.5 2.5-4 2.7q-0.5 1.3-6.5 4-6 2.8-6.5 4-0.5 1.3-9 5.6-8.5 4.2-8.5 5.2t-4.5 2.8q-4.5 1.7-13.5 6.2t-11 4.8q-2 0.2-2 1.2t-6 3.2q-6 2.3-28 10.8t-23.5 8.8q-1.5 0.2-1.5 1.2t-6.5 2.2q-6.5 1.3-20 5.3t-14.5 4.5l-1 0.5-3.5 0.3-3.5 0.2 0.2-1.5 0.3-1.5 0.3-0.2 0.2-0.3 0.2-0.3 0.3-0.2 0.3-1 0.2-1h2l0.2-1 0.3-1 0.3-0.2 0.2-0.3 1.5-0.5q1.5-0.5 23-9t30-11.8q8.5-3.2 8.5-4.2t2.5-1.5 2.5-1.5 2-1.2q2-0.3 19-9 17-8.8 17.2-9.8 0.3-1 8.6-5.5 8.2-4.5 8.2-5.5t1.5-1.2q1.5-0.3 18.5-13 17-12.8 19.5-16.3t8-7.5 5.7-5q0.3-1 2.6-2.5 2.2-1.5 2.4-2.5 0.3-1 4-4.5 3.8-3.5 5-6 1.3-2.5 3.6-4.5 2.2-2 2.4-3.5 0.3-1.5 1.6-2 1.2-0.5 1.7-1.7 0.5-1.3 2.5-5 2-3.8 3-3.8t4-6.5 4-6.5 1.5-2.5 1.5-2.5 2.2-3.5q1.3-3.5 2.6-8.5 1.2-5 2.2-5t3-7.2q2-7.3 4.8-20 2.7-12.8 3.2-27.8t-0.8-25q-1.2-10-2.2-10t-1.2-4.5q-0.3-4.5-4.6-15.7-4.2-11.3-6.2-16.6-2-5.2-3-5.4-1-0.3-1.5-2.6-0.5-2.2-1.5-2.2t-1-2-1-2.2q-1-0.3-1.5-2.6-0.5-2.2-1.5-2.2t-4-5.5-4-5.5-1.2-1.5q-0.3-1.5-5-8-4.8-6.5-5.8-6.7-1-0.3-1.5-1.6-0.5-1.2-1.5-1.4-1-0.3-3-3.6-2-3.2-3-3.2t-1-1-1-1.2q-1-0.3-1.5-1.6-0.5-1.2-1.5-1.4-1-0.3-1.5-1.6-0.5-1.2-1.5-1.2t-1-1-1-1-1.2-1q-0.3-1-6.8-6.5t-9.2-7q-2.8-1.5-2.8-2.5t-2.2-2.5q-2.3-1.5-5-3-2.8-1.5-2.8-2.5t-10.8-8q-10.7-7-19.4-12-8.8-5-8.8-6t-2-1.2q-2-0.3-5-2.3t-7.5-3.7q-4.5-1.8-4.5-2.8t-13.2-7q-13.3-6-16.6-7-3.2-1-3.2-2t-6-2.5-6-2.5-10-4-10-4-3.5-1.8q-3.5-0.7-7.5-1.4l-4-0.8-0.8 11q-0.7 11-1.7 16.5t-3 10.5-2.5 6.5l-0.5 1.5-0.3 0.2-0.2 0.3-0.2 0.3-0.3 0.2-0.3 1-0.2 1-2.5-0.2-2.5-0.3-0.2-0.3-0.3-0.2-0.3-0.2-0.2-0.3-1-0.5-1-0.5-0.2-0.3-0.3-0.2-0.3-0.2-0.2-0.3-0.2-0.3-0.3-0.2-0.3-0.2-0.2-0.3-0.2-0.3-0.3-0.2-0.3-0.2-0.2-0.3-0.2-0.3-0.3-0.2v-2l0.3-0.2q0.2-0.3 1.2-2.3t2.8-6.3q1.7-4.2 2.2-17.7t-1-22-6.8-20q-5.2-11.5-6.2-11.5t-1-1.5-1-1.7q-1-0.3-1.8-2-0.7-1.8-3-3.8-2.2-2-6.2-8t-5-6-1.2-1q-0.3-1-1.6-1.5-1.2-0.5-1.4-1.5-0.3-1-1.6-1.5-1.2-0.5-1.2-1.5t-1-1-1-1-5.2-5q-5.3-4-13.6-9.5l-8.2-5.5 0.2-1.5 0.3-1.5v-2l-0.3-0.2-0.2-0.3 1-0.5 1-0.5 1.5-0.3q1.5-0.2 1.5-1.7t1-1.5 1-1z" fill="#c60000" stroke="#c60000"/>
  <path d="m620.8 348l0.2-1 2 0.2 2 0.3 0.2 0.3 0.3 0.2 0.3 0.2 0.2 0.3 0.2 0.3 0.3 0.2 2 5q2 5 6.5 9t6 8 2 5l0.5 1 0.3 0.2 0.2 0.3h2l4-3q4-3 12.8-4.7 8.7-1.8 12-4.6 3.2-2.7 3.4-3l0.3-0.2 0.3-0.2 0.2-0.3 0.2-0.3 0.3-0.2 0.3-0.5 0.2-0.5 1.8 0.5q1.7 0.5 1.2 7t-1 7-0.5 2.5v2l0.3-0.2 0.2-0.3 10.5-1.5q10.5-1.5 13-2l2.5-0.5 3-0.5 3-0.5v-0.5l4.5-0.8q4.5-0.7 8.5-2.2t11.5-1 22 4.5 28.5 12 21.8 14.7q7.7 6.8 8 7.8 0.2 1 1.2 1t1.8 3.5q0.7 3.5 0.4 3.7-0.2 0.3-0.2 0.6v0.2l-4.5 0.2q-4.5 0.3-4.7 0.6l-0.3 0.2-0.3 0.2-0.2 0.3-0.2 0.3-0.3 0.2-0.3 0.2-0.2 0.3-1 0.3-1 0.2-0.2 1-0.3 1-0.3 0.2-0.2 0.3-0.2 0.3-0.3 0.2-0.3 0.2-0.2 0.3-0.2 0.3-0.3 0.2v5l0.3 0.2 0.2 0.3 1 0.5 1 0.5 2.5 0.5q2.5 0.5 10.5 2t12.5 3 9.7 6.8q5.3 5.2 5.3 26.2t-4.7 32.5q-4.8 11.5-5.8 11.5t-1.8 2q-0.7 2-5.4 5.5-4.8 3.5-4.8 4.5t-1.8 1.5q-1.7 0.5-11 4.7-9.2 4.3-23.7 6.8t-30 1.5-36.5-6.5-35-6-24 2-18 6.5-12.5 9-9.3 12.7q-4.7 7.8-7.2 17.8t-3 21l-0.5 11 0.3-0.2 0.2-0.3 1-0.5 1-0.5 9-3q9-3 13.5-4t12.5-0.5 21.5 4.5 18 5.5 8 1.8l3.5 0.2 0.2-2.5q0.3-2.5 1.8-8t7.8-18q6.2-12.5 7.2-12.7 1-0.3 2.5-2.6 1.5-2.2 4.3-4.2 2.7-2 11-6.2l8.2-4.3 2.5-0.3 2.5-0.2 0.2 1.5 0.3 1.5 0.3 4 0.2 4-1 0.2q-1 0.3-6 3.3t-7 5.3q-2 2.2-3 2.4-1 0.3-3 3.6-2 3.2-3 3.2t-1.5 1.8q-0.5 1.7-3.3 9-2.7 7.2-3.7 12.7t-1.5 14.5 1 12 2 8.5-5.2 8.3q-5.8 2.7-16.8 3.2t-15-0.8q-4-1.2-4-2.2t-10.8-8q-10.7-7-17.4-9.8-6.8-2.7-22.8-3.4l-16-0.8 0.2 2.5 0.3 2.5 0.3 0.2 0.2 0.3 0.2 0.3 0.3 0.2 0.7 2.8q0.8 2.7 1.8 3 1 0.2 2.5 3.7t12 10.3q10.5 6.7 20 10.2t13.5 4.5 22 0.5 24.8-3.2q6.7-2.8 14.4-7.8 7.8-5 10.3-9t3.5-4h1l0.2-1 0.3-1 0.3-1 0.2-1 1-0.2 1-0.3 1-0.3 1-0.2-0.2 1-0.3 1-0.5 3-0.5 3-6 12q-6 12-7.7 13.8-1.8 1.7-2 2l-0.3 0.2-0.3 0.2-0.2 0.3-0.2 0.3-0.3 0.2-0.3 0.2-0.2 0.3-0.2 0.3-0.3 0.2-0.3 0.2-0.2 0.3-0.2 0.3-0.3 0.2-0.3 1-0.2 1 3.5 0.2 3.5 0.3h12.5q12.5 0 20-2.5t9.5-3.2q2-0.8 2-1.8t3.8-3q3.7-2 10.7-9t7.3-8.5l0.2-1.5 1-0.2 1-0.3 0.2-0.3 0.3-0.2 0.3-1 0.2-1 1.5 0.2 1.5 0.3 0.2 0.3 0.3 0.2v4l-0.5 1-0.5 1-2.7 7.2q-2.8 7.3-4.8 10.3t-3 3.3l-1 0.2v3l3.5 0.5q3.5 0.5 3.5 1.5t1.2 1.5q1.3 0.5 2.3 4.5t-3.5 13-9.8 16q-5.2 7-7.7 8t-5 3.8q-2.5 2.7-11 7.7t-30 16.5-22.3 12.2q-0.7 0.8-1 1l-0.2 0.3-0.2 0.3-0.3 0.2-0.3 0.2-0.2 0.3-1.5 0.3-1.5 0.2-0.2-1.5q-0.3-1.5-1.8-6t-5-9l-3.5-4.5-0.3-0.2-0.2-0.3-0.2-0.3-0.3-0.2-0.3-0.2-0.2-0.3-0.2-0.3-0.3-0.2-0.3-0.2-0.2-0.3-0.2-0.3-0.3-0.2-0.3-0.2-0.2-0.3-1.5-0.3-1.5-0.2-0.2 1.5-0.3 1.5-5.3 8q-5.2 8-6.4 8.5-1.3 0.5-1.6 1.5-0.2 1-2.2 2.2-2 1.3-3 1.8l-1 0.5-0.2 0.3-0.3 0.2-0.3 0.2-0.2 0.3-0.2 0.3-0.3 0.2-0.3 0.2-0.2 0.3-1 0.5-1 0.5-0.2 0.3-0.3 0.2-0.3 0.2-0.2 0.3h-1l-0.2-0.3-0.3-0.2-0.3-0.2-0.2-0.3-0.2-0.3-0.3-0.2-0.5-6.5q-0.5-6.5-3.2-12.3l-2.8-5.7-0.2-0.3-0.3-0.2-0.3-0.2-0.2-0.3-0.2-0.3-0.3-0.2-0.5-1-0.5-1-0.3-0.2-0.2-0.3-0.2-0.3-0.3-0.2-0.3-0.2-0.2-0.3-0.2-0.3-0.3-0.2-0.3 0.2-0.2 0.3-0.2 0.3-0.3 0.2-0.3 0.2-0.2 0.3-0.2 0.3-0.3 0.2-0.3 0.2-0.2 0.3-0.2 0.3-0.3 0.2-2.7 4q-2.8 4-6 7-3.3 3-3.6 3.2l-0.2 0.3-0.2 0.3-0.3 0.2-0.3 0.2-0.2 0.3-0.2 0.3-0.3 0.2-0.3 0.2-0.2 0.3-0.2 0.3-0.3 0.2-0.3 0.2-0.2 0.3-0.2 0.3-0.3 0.2-0.3 0.2-0.2 0.3-2 0.3-2 0.2 0.2-1.5 0.3-1.5 0.5-1.5 0.5-1.5 0.5-1q0.5-1 0.5-8t-1-10l-1-3-0.5-2-0.5-2-0.3-0.2-0.2-0.3-1-0.3-1-0.2v2h-2v1q0 1-3 2.5t-3 2.5-1 1.2q-1 0.3-2 0.8l-1 0.5-0.2 0.3-0.3 0.2-0.3 0.2-0.2 0.3-1 0.5-1 0.5-0.2 0.3-0.3 0.2-0.3 0.2-0.2 0.3h-3l-0.2-0.3-0.3-0.2v-2.5q0-2.5 0.5-4.5t-0.5-8-3.3-9q-2.2-3-7.2-6.2-5-3.3-17.5-9l-12.5-5.8-0.2-0.5-0.3-0.5-0.3-0.2-0.2-0.3-0.2-0.3-0.3-0.2-0.3-0.2-0.2-0.3-1-0.5-1-0.5-1-0.5-1-0.5-1-0.5q-1-0.5-7-4.5t-15-12-15.5-16.5-15.3-23.2l-8.7-14.8-0.5-1-0.5-1-0.3-0.2-0.2-0.3-0.2-0.3-0.3-0.2-0.5-2-0.5-2-0.3-0.2-0.2-0.3-0.2-0.3-0.3-0.2-0.3-1-0.2-1 1 0.2 1 0.3 0.2 0.3 0.3 0.2 0.3 0.2 0.2 0.3 0.2 0.3 0.3 0.2 0.3 0.2 0.2 0.3 0.2 0.3 0.3 0.2 0.5 1 0.5 1 0.5 1 0.5 1 0.3 0.2 0.2 0.3 0.2 0.3 0.3 0.2 7.5 10.5q7.5 10.5 14.8 17.3 7.2 6.7 15.2 11.2t9 5l1 0.5 1 0.5 1 0.5 2 0.3 2 0.2-0.2-2-0.3-2-0.5-2q-0.5-2-5.5-19t-6-32.5 1-29l2-13.5 0.3-2.5 0.2-2.5 1.5 0.2 1.5 0.3 0.2 0.3 0.3 0.2 0.5 1 0.5 1 3.3 9.8q3.2 9.7 9 17 5.7 7.2 8.7 9.2t3.3 2.2l0.2 0.3 2 0.5 2 0.5 0.2 0.3 0.3 0.2 0.3 0.2 0.2 0.3 1 0.5 1 0.5h1l0.2-0.3 0.3-0.2h0.5l1 0.2 1 0.3 4 0.3 4 0.2 2.8-18.5q2.7-18.5 8.2-31t11.8-20.3q6.2-7.7 10.2-10.7t11.5-7 19-6.5 31-2.5 38.5 3 21 3.5l2 0.5 2.5 0.3 2.5 0.2-0.2-1-0.3-1-0.3-0.2-0.2-0.3-1.5-0.5-1.5-0.5-0.2-0.3-0.3-0.2-0.3-0.2-0.2-0.3-1.5-0.5q-1.5-0.5-8-2.5t-40-7l-33.5-5-1-0.5-1-0.5-1-0.5-1-0.5-1-0.5-1-0.5-0.2-0.3-0.3-0.2-0.3-1-0.2-1 4 0.2 4 0.3 34-2.5q34-2.5 35-3t19-0.5h18l1 0.5 1 0.5h4l-0.2-0.3-0.3-0.2-0.3-0.2-0.2-0.3-0.2-0.3-0.3-0.2-0.3-0.2-0.2-0.3-1.5-0.5-1.5-0.5-0.2-0.3-0.3-0.2-0.3-0.2-0.2-0.3-0.2-0.3-0.3-0.2-0.3-0.2-0.2-0.3-2.5-0.5q-2.5-0.5-8-2t-40.5-3.5-47-3.5-30.5-6.5l-18.5-5-1-0.3-1-0.2-0.2-1-0.3-1-0.3-0.2-0.2-0.3-0.2-0.3-0.3-0.2-0.3-0.2-0.2-0.3 12.5 0.5q12.5 0.5 39.5 2t71 1.8l44 0.2v-2l-1-0.2-1-0.3-1.5-0.5-1.5-0.5-0.2-0.3-0.3-0.2-0.3-0.2-0.2-0.3-1.5-0.5q-1.5-0.5-2.5-1t-13-3.5-72-6.5-81.5-6l-21.5-2.5-0.2-0.3-0.3-0.2v-2l0.3-0.2 0.2-0.3 38-1.5q38-1.5 77.5-5t48.5-4l9-0.5 0.2-0.3 0.3-0.2v-2l-0.3-0.2-0.2-0.3-1.5-0.5-1.5-0.5-0.2-0.3-0.3-0.2-0.3-0.2-0.2-0.3-1.5-0.5q-1.5-0.5-6.5-2.5t-19.5-4.5-54.5-4.5-54-5-25.5-7.7q-11.5-4.8-11.7-5.8-0.3-1-3-2.5-2.8-1.5-5.6-5-2.7-3.5-5.4-8.3-2.8-4.7-4-10.4l-1.3-5.8-0.3-0.2-0.2-0.3-0.2-0.3-0.3-0.2-0.3-2-0.2-2 1.5 0.2 1.5 0.3 0.2 0.3 0.3 0.2 0.3 0.2 0.2 0.3 1 0.3 1 0.2 0.2 1 0.3 1 5.7 5.8q5.8 5.7 10.8 8.2t13.5 5 13 3l4.5 0.5 1 0.5 1 0.5h3l-0.2-0.3-0.3-0.2-0.3-0.2-0.2-0.3-0.2-0.3-0.3-0.2-0.5-1-0.5-1-0.3-0.2-0.2-0.3-0.2-0.3q-0.3-0.2-0.8-0.7t-1.5-8l-1-7.5 0.5-1 0.5-1 0.5-2 0.5-2 0.3-1z" fill="#fdfdfd" stroke="#fdfdfd"/>
  <path d="m418.8 695.8l0.2-0.3h3l0.2 0.3 0.3 0.2 0.3 0.2 0.2 0.3 0.2 0.3 0.3 0.2 0.3 0.2 0.2 0.3 0.2 0.3 0.3 0.2 6.3 5.2q6.2 5.3 18.2 11.8t29 14.2q17 7.8 17.5 9 0.5 1.3 2.5 1.6 2 0.2 2.5 1.4 0.5 1.3 5 3.6 4.5 2.2 7 5 2.5 2.7 7.7 8 5.3 5.2 10.3 12.2t9 16 3.5 23.5-3.8 23q-3.2 8.5-4.2 8.5t-1 1.5-3.8 5q-3.7 3.5-4 4.5-0.2 1-4.4 4-4.3 3-4.6 4-0.2 1-4.2 2.5t-4 2.5-2.8 2q-2.7 1-9 3.8-6.2 2.7-10.2 3.2l-4 0.5-0.2 0.3-0.3 0.2-0.3 0.2-0.2 0.3 2 0.5 2 0.5 15.5 1q15.5 1 31.5-1t28-6.3q12-4.2 12-5.2t2.8-2q2.7-1 10.2-5.5t7.8-5.5q0.2-1 1.7-1t1.5-1 6.2-5.5q6.3-4.5 6.6-5.5 0.2-1 1.2-1t1-1 1-1 1.5-1.2q0.5-1.3 1.5-1.6 1-0.2 2.5-3.2t2.5-3 2.5-3 2.5-3 5.5-6.8q4.5-6.7 5.5-7 1-0.2 2.2-2.7 1.3-2.5 1.8-3.5l0.5-1 0.3-0.2 0.2-0.3 0.2-0.3 0.3-0.2 0.5-1 0.5-1 0.3-0.2 0.2-0.3 0.2-0.3 0.3-0.2 0.3-0.2 0.2-0.3 0.2-0.3 0.3-0.2 0.3 0.2 0.2 0.3 0.2 0.3 0.3 0.2 0.3 0.2 0.2 0.3 0.2 0.3 0.3 0.2 0.3 0.2 0.2 0.3 0.2 0.3 0.3 0.2 0.3 0.2 0.2 0.3 0.2 0.3 0.3 0.2 1.5 4.5q1.5 4.5 1 16.5t-2 15.5-1.8 5.5l-0.2 2-1 0.2-1 0.3-0.2 0.3-0.3 0.2-0.3 1-0.2 1 1.5-0.2 1.5-0.3 1-0.5 1-0.5 1-0.5 1-0.5 2.5-0.5q2.5-0.5 11.5-4.2 9-3.8 9-4.8t2-1.2q2-0.3 8.5-4.3t8.5-6.3q2-2.2 5.5-4 3.5-1.7 6.5-5 3-3.2 4-3.4 1-0.3 2.5-2.6 1.5-2.2 2.5-2.2t6.5-7.2q5.5-7.3 12.7-19.6 7.3-12.2 8.6-17.2 1.2-5 2.2-5t2.2-2q1.3-2 4-3l2.8-1 0.2-1 0.3-1 0.3-0.2 0.2-0.3 1.5-0.5 1.5-0.5 2-0.3 2-0.2-0.2 3-0.3 3-0.3 0.2-0.2 0.3-0.2 0.3-0.3 0.2-0.5 3q-0.5 3-0.8 3.2-0.2 0.3-3.7 9.6-3.5 9.2-4.5 9.4-1 0.3-3 5-2 4.8-3 4.8t-2.5 4-2.5 4-1 1.5-1 1.5-1.5 2-1.5 2.2q-1 0.3-2.5 3-1.5 2.8-2.5 3-1 0.3-1.5 1.6-0.5 1.2-1.5 1.2t-1 1-1 1.2q-1 0.3-1.5 1.6-0.5 1.2-1.5 1.2t-1 1-1 1.2q-1 0.3-1.5 1.6-0.5 1.2-1.5 1.4-1 0.3-1.5 1.6-0.5 1.2-1.5 1.4-1 0.3-3 2.6-2 2.2-3.5 2.4-1.5 0.3-2 1.6-0.5 1.2-4.3 3.2-3.7 2-7.4 4-3.8 2-3.8 3t-7.2 4q-7.3 3-16.8 7t-18.8 6.8q-9.2 2.7-20.7 3.2l-11.5 0.5h-2l-1.5-0.3-1.5-0.2 0.2-1.5 0.3-1.5 0.3-0.2 0.2-0.3 0.2-0.3 0.3-0.2 0.5-1 0.5-1 0.3-0.2 0.2-0.3 0.2-0.3 0.3-0.2 0.3-0.2 0.2-0.3 0.2-0.3q0.3-0.2 4.8-4.2l4.5-4 0.3-0.2 0.2-0.3 0.2-0.3 0.3-0.2 0.3-0.2 0.2-0.3 0.2-0.3 0.3-0.2 0.3-0.2 0.2-0.3 0.2-0.3 0.3-0.2 0.3-0.2 0.2-0.3 0.2-0.3 0.3-0.2 0.3-0.2 0.2-0.3 0.2-0.3 0.3-0.2 0.3-0.2 0.2-0.3 0.2-0.3 0.3-0.2 0.3-0.2 0.2-0.3h-2l-0.2 0.3-0.3 0.2-0.3 0.2-0.2 0.3-0.2 0.3-0.3 0.2-0.3 0.2-0.2 0.3-0.2 0.3-0.3 0.2-0.3 0.2-0.2 0.3-0.2 0.3-0.3 0.2-0.3 0.2-0.2 0.3-1 0.3-1 0.2v1q0 1-1 1.2-1 0.3-1.5 1.6-0.5 1.2-7 5.7t-6.5 5.5-4.8 4q-4.7 3-9.4 5.5-4.8 2.5-4.8 3.5t-7 3.8q-7 2.7-7.5 4-0.5 1.2-3.5 1.4-3 0.3-4.5 1.3t-15.5 4-33.5 3.5-29.5-1-22.5-4.8q-12.5-3.2-12.7-4.2-0.3-1-3-1.5-2.8-0.5-2.8-1.5t-1.8-1.5q-1.7-0.5-4.4-1.5-2.8-1-4.3-2.8l-1.5-1.7-0.2-0.3-0.3-0.2-0.3-0.2-0.2-0.3-1-0.5-1-0.5-0.2-0.3-0.3-0.2-0.3-0.2-0.2-0.3-0.2-0.3-0.3-0.2v-4l0.3-0.2 0.2-0.3h3l0.2 0.3 0.3 0.2 0.3 0.2 0.2 0.3h18q18 0 29-2.5t19.5-6.2q8.5-3.8 8.5-4.8t1-1.2q1-0.3 3-2.6 2-2.2 3-2.2t1.2-1q0.3-1 1.6-1.5 1.2-0.5 1.2-1.5t1-1 2-1.8q1-1.7 4.8-10 3.7-8.2 4.2-17.2t-1-13-5-10.5-9.2-13.7q-5.8-7.3-15.8-14.8t-35-20l-25-12.5-0.2-0.3-0.3-0.2-0.3-0.2-0.2-0.3-0.2-0.3-0.3-0.2-0.3-0.2-0.2-0.3-1.5-0.3-1.5-0.2 0.2 1.5 0.3 1.5 0.3 0.2 0.2 0.3 0.2 0.3 0.3 0.2 0.5 1.5 0.5 1.5 5 8.5q5 8.5 6.7 11.5 1.8 3 2.8 3t2.5 2.2q1.5 2.3 2.5 2.6 1 0.2 1.5 1.4 0.5 1.3 1.5 1.6 1 0.2 2.5 2.4 1.5 2.3 2.5 2.6 1 0.2 1 1.2t1.2 1.5q1.3 0.5 1.6 1.5 0.2 1 4 3 3.7 2 7.4 4 3.8 2 3.8 3t8.5 4.8q8.5 3.7 12 4.2l3.5 0.5 0.2 0.3 0.3 0.2 0.3 1.5 0.2 1.5-1 0.2-1 0.3-2 0.5-2 0.5-0.2 0.3-0.3 0.2-0.3 0.2-0.2 0.3-5.5 0.5q-5.5 0.5-7.5 1t-30 1-36.5-1.2l-8.5-1.8-0.2-0.5-0.3-0.5h-0.5l-0.2-0.5-0.3-0.5-0.3-1-0.2-1h-5l0.2-1 0.3-1 0.3 0.2 0.2 0.3h5.5q3.5 0 4 0h0.5l0.2-0.3 0.3-0.2 0.3-0.2 0.2-0.3 2.5-0.5 2.5-0.5-1.5-0.5-1.5-0.5-0.2-0.3-0.3-0.2-0.3-0.2-0.2-0.3 0.2-0.3 0.3-0.2 0.3-0.2 0.2-0.3v-0.5l6.5 0.8q6.5 0.7 23.5 0.7h17l-0.2-0.3-0.3-0.2-0.3-0.2-0.2-0.3-0.2-0.3-0.3-0.2-0.3-0.2-0.2-0.3-1-0.5-1-0.5-0.2-0.3-0.3-0.2-0.3-0.2-0.2-0.3-0.2-0.3-0.3-0.2-0.3-0.2-0.2-0.3-0.2-0.3q-0.3-0.2-2-1.4-1.8-1.3-12.3-12.8t-12.5-15.2q-2-3.8-3-3.8t-3.8-6q-2.7-6-4.4-12-1.8-6-2.8-6t-1.8-13.5l-0.7-13.5 0.3-0.2z" fill="#c70000" stroke="#c70000"/>
  <path d="m299 707.5l0.5 1.5 0.3 0.2 0.2 0.3 0.2 0.3 0.3 0.2 0.5 1 0.5 1 0.3 1 0.2 1-2-0.2-2-0.3-0.2-0.3-0.3-0.2-0.3-0.2-0.2-0.3-2-0.5q-2-0.5-6.5-2t-23.5-9.5-37-17l-18-9-0.2-0.3-0.3-0.2-0.3-0.2-0.2-0.3-0.2-0.3-0.3-0.2-0.3-0.2-0.2-0.3-1.5-0.5-1.5-0.5-0.2-0.3-0.3-0.2-0.3-0.2-0.2-0.3-0.2-0.3-0.3-0.2-0.3-0.2-0.2-0.3h20q17 0 25.5-2t16.3-6.3q7.7-4.2 12-6.7 4.2-2.5 7 10 2.7 12.5 6.7 23t6 14.5 2.5 5.5z" stroke="#000"/>
  <path d="m875.2 541.2l-0.2 0.3-0.2 0.3-0.3 0.2-0.5 1-0.5 1-0.3 0.2-0.2 0.3-2 0.3-2 0.2-0.8-3.5q-0.7-3.5-1.4-5.5-0.8-2-1.8-2t-3.5-3.8q-2.5-3.7-7.3-7-4.7-3.2-2.7-9.2t5.5-16 3.8-31.5q0.2-21.5 1.4-22 1.3-0.5 1.6-1.5 0.2-1 13.4-6 13.3-5 17.8-7.5t6.8-4.7q2.2-2.3 3.2-2.6 1-0.2 0.2 10.8-0.7 11 1.3 29t-0.5 29-8.8 21.8q-6.2 10.7-7.2 12.4-1 1.8-2 1.8t-1.5 2-4.3 5.5q-3.7 3.5-5.2 5t-1.8 1.7z" fill="#fdfdfe" stroke="#fdfdfe"/>
  <path d="m377.8 263.8l0.2-0.3 0.2-0.3 0.3-0.2 0.3 0.2 0.2 0.3 0.2 0.3 0.3 0.2 0.5 1 0.5 1 0.3 0.2 0.2 0.3 0.2 0.3 0.3 0.2 7.3 10.5q7.2 10.5 9.4 12 2.3 1.5 2.6 2.5 0.2 1 1.2 1t4.5 3.8q3.5 3.7 15 10.7t26.5 13 30 9 26 4.5 21.5 1 26.5-6 25.5-7 23-1 25 3 20.7 6.8q9.3 4.2 12 6 2.8 1.7 3.8 2.2l1 0.5 0.2 0.3 0.3 0.2 0.3 0.2 0.2 0.3 0.2 0.3 0.3 0.2 0.3 0.2 0.2 0.3 0.2 0.3 0.3 0.2 0.3 0.2 0.2 0.3 0.2 0.3 0.3 0.2 0.3 0.2 0.2 0.3 1 0.5 1 0.5 0.2 0.3 0.3 0.2 0.3 0.2 0.2 0.3-2 0.3-2 0.2-0.5-0.2-0.5-0.3-1-0.5-1-0.5-2-0.5q-2-0.5-13-3.5t-25.5-4.5-40.5-0.5-54.5 6-49.5 5-27.5-1.5-15-5-20.5-11.8q-12-8.2-12-9.2t-1-1-1.2-1q-0.3-1-1.6-1.5-1.2-0.5-1.2-1.5t-2.2-3q-2.3-2-7.8-11t-8.2-19l-2.8-10 0.2-3.5 0.3-3.5 0.3-0.2z" fill="#fdfaf7" stroke="#fdfaf7"/>
  <path d="m837 591l-2 0.5-1 0.5-1 0.5h-3l-0.2-0.3-0.3-0.2-0.3-0.2-0.2-0.3 0.2-0.3 0.3-0.2 0.3-0.2 0.2-0.3 0.2-0.3 0.3-0.2 0.5-1 0.5-1 0.3-0.2 0.2-0.3 0.2-0.3 0.3-0.2 0.3-0.2 0.2-0.3 1-0.3q1-0.2 3.5-4 2.5-3.7 4.7-12 2.3-8.2 0.6-15.7-1.8-7.5-5.3-9t-3.7-2.5l-0.3-1-0.3-0.2-0.2-0.3 0.2-0.3 0.3-0.2 2.7-2.8q2.8-2.7 3.8-3 1-0.2 4.2-4.7 3.3-4.5 7-2.5 3.8 2 3.8 3t1.2 1.5q1.3 0.5 1.6 1.5 0.2 1 1.2 1t3.8 6.5q2.7 6.5 2.2 14t-6.8 16.7q-6.2 9.3-8.7 10.6-2.5 1.2-2.5 2.2t-4 3.2q-4 2.3-6 2.8z" fill="#f8f9fc" stroke="#f8f9fc"/>
  <path d="m776.2 592.2l-0.2 0.3-0.2 0.3-0.3 0.2-0.3 0.2-0.2 0.3-1 0.5-1 0.5-0.2 0.3-0.3 0.2-0.3 0.2-0.2 0.3-0.2 0.3-0.3 0.2-0.3 0.2-0.2 0.3-1.5 0.3-1.5 0.2 0.2-4q0.3-4-0.2-10.5t-5-15.5-5-13.5l-0.5-4.5 0.3-0.2 0.2-0.3 17.5-1q17.5-1 24-2.3 6.5-1.2 6 1.3t-3.7 5.5q-3.3 3-7.3 10.5t-4.3 9.5q-0.2 2-1.2 2t-2 2.8q-1 2.7-4.5 8.2t-4.7 6.2q-1.3 0.8-1.6 1z" fill="#f8f9fb" stroke="#f8f9fb"/>
  <path d="m680.8 357l0.2-1h1q1 0 1 1t7.5 5 7.5 5 3.5 2.2q3.5 1.3 7 1.8l3.5 0.5 1 0.5 1 0.5v1l-3 0.5-3 0.5-2.5 0.5q-2.5 0.5-13 2l-10.5 1.5-0.2 0.3-0.3 0.2v-2q0-2 0.5-2.5t1-7-1.2-7l-1.8-0.5 0.2-1q0.3-1 0.6-2z" fill="#040202" stroke="#040202"/>
 </g>
</svg>
