<?xml version="1.0" encoding="UTF-8" standalone="no"?>
<svg
   xmlns:dc="http://purl.org/dc/elements/1.1/"
   xmlns:cc="http://creativecommons.org/ns#"
   xmlns:rdf="http://www.w3.org/1999/02/22-rdf-syntax-ns#"
   xmlns:svg="http://www.w3.org/2000/svg"
   xmlns="http://www.w3.org/2000/svg"
   viewBox="0 0 2573.3333 1654.6667"
   height="1654.6667"
   width="2573.3333"
   xml:space="preserve"
   id="svg2"
   version="1.1"><metadata
     id="metadata8"><rdf:RDF><cc:Work
         rdf:about=""><dc:format>image/svg+xml</dc:format><dc:type
           rdf:resource="http://purl.org/dc/dcmitype/StillImage" /></cc:Work></rdf:RDF></metadata><defs
     id="defs6"><clipPath
       id="clipPath20"
       clipPathUnits="userSpaceOnUse"><path
         id="path18"
         d="m 17670,10079.5 v 0 l -50,-137.23 -32.7,-12.19 h -0.1 c -24.9,-4.61 -49.7,-11.84 -73.7,-21.88 l -134.3,-55.97 -49.9,-18.68 c -7.3,12.7 -15.3,24.85 -23.9,36.45 h -0.1 c 116.6,64.06 238.1,133.9 364.5,209.5 z M 9708.05,7648.12 v -0.07 c 101.83,-3.67 181.25,-13.87 238.16,-30.59 1.84,-0.55 3.67,-1.05 5.51,-1.56 54.58,-15.12 110.08,-33.63 166.38,-55.59 h -0.1 c -1.4,-8.12 -2.4,-16.29 -3.3,-24.57 -3.9,-38.94 -8.4,-74.53 -13.4,-106.76 v 0 c -57.2,-22.46 -109,-59.57 -149.27,-109.57 -32.73,-40.62 -63.08,-77.61 -90.98,-110.93 -46.71,21.48 -98.04,33 -150.74,33 -0.74,0 -1.52,-0.03 -2.3,-0.03 -0.74,0 -1.53,0.03 -2.27,0.03 -52.69,0 -104.02,-11.52 -150.74,-33 -27.93,33.32 -58.24,70.31 -90.98,110.93 -40.31,50 -92.03,87.15 -149.22,109.57 h -0.03 c -5.08,32.23 -9.54,67.82 -13.44,106.76 -0.82,8.28 -1.95,16.49 -3.32,24.57 56.29,21.96 111.72,40.47 166.29,55.59 1.83,0.51 3.67,1.01 5.5,1.56 56.96,16.72 136.33,26.92 238.21,30.66 l 0.04,-0.03 v 0.03 -0.03 0.03 -0.03 z M 9182.58,5531.84 v -0.04 c 11.8,-12.74 24.57,-24.65 38.12,-35.59 l -0.04,-0.04 c 0.16,-2.07 0.28,-4.14 0.43,-6.17 -16.6,11.99 -31.56,25.23 -44.92,39.69 h -0.04 c 2.15,0.7 4.3,1.44 6.41,2.15 z M 10257.2,4427.07 v -0.04 c -1,-15.78 -0.9,-31.76 0.1,-47.81 v 0 c -43.4,-30.67 -107.1,-65.74 -191,-105.27 42.3,45.89 83.9,84.76 124.8,116.56 h -0.1 c 22.6,12.42 44.7,24.61 66.2,36.56 z M 1748.71,10072.5 v -0.1 c 473.67,-279.08 903.28,-483.34 1288.91,-612.71 h -0.04 c 10.9,-5.98 22.3,-11.76 34.14,-17.27 235.78,-110.19 1370.9,-383.51 3405.23,-819.92 v -0.04 c 6.25,-28.55 16.02,-56.56 29.26,-83.32 l 185.35,-373.91 c 192.62,-530.93 613.05,-1031.75 1261.29,-1502.5 -10.94,-13.75 -20.94,-28.43 -29.88,-43.94 -64.53,-111.72 -64.57,-249.34 -0.08,-361.09 6.06,-10.51 12.15,-20.98 18.24,-31.45 79.96,-160.31 183.87,-288.91 311.72,-385.78 15.78,-114.88 86.53,-218.24 194.42,-272.97 108.24,-54.92 210.39,-88.98 306.4,-102.19 31.13,-4.26 61.76,-6.4 91.88,-6.4 7.57,0 15.11,0.15 22.65,0.43 11.88,0.43 23.71,1.44 35.51,3.04 l 90.74,12.31 c 23.83,3.2 47.27,8.83 70,16.72 19.46,6.75 37.85,13.12 55.2,19.06 2.19,-24.61 4.45,-51.6 6.87,-80.98 0.63,-7.5 1.49,-14.92 2.54,-22.34 9.81,-67.31 27.03,-132.15 51.76,-194.57 0.94,-2.46 1.95,-4.88 2.97,-7.31 36.21,-85.97 90.66,-174.84 163.4,-266.52 h -0.04 c -56.99,-77.19 -81.88,-175.27 -65.98,-272.77 l 54.45,-333.95 c 3.29,-20 8.17,-39.49 14.58,-58.28 -84.18,39.61 -148.01,74.77 -191.49,105.51 v -0.04 c 9.1,131.99 -55.08,260.66 -170.51,331.99 -161.32,99.65 -267.65,180.63 -319.02,242.93 -4.26,5.16 -8.67,10.2 -13.2,15.12 -57.07,61.87 -137.54,197.34 -241.37,406.4 -61.64,124.11 -187.81,200.51 -323.28,200.51 -18.24,0 -36.64,-1.37 -55.08,-4.22 -33.48,-5.15 -65.39,-14.84 -95.12,-28.43 -16.72,6.87 -33.98,12.53 -51.79,16.87 -28.29,6.91 -57.04,10.31 -85.63,10.31 -74.33,0 -147.69,-22.97 -209.41,-66.91 l -641.72,-456.76 -512.7,-276.72 -876.13,779.34 c -66.45,59.14 -151.99,91.33 -240,91.33 -13.44,0 -26.95,-0.78 -40.43,-2.31 l -56.91,-6.4 -911.25,1070.93 c -68.68,80.71 -169.26,127.11 -275.04,127.11 -1.92,0 -3.83,-0.04 -5.78,-0.04 l -54.3,-0.89 -721.92,1097.96 c -67.34,102.43 -181.24,162.74 -301.67,162.74 -15.94,0 -31.96,-1.06 -48.01,-3.2 -1.45,-0.2 -2.85,-0.4 -4.26,-0.59 -100.55,172.66 -262.38,483.28 -485.47,931.87 h -0.04 l 52.89,368.25 c 24.18,168 -71.95,330.15 -230.94,389.61 l -444.53,166.25 -47.42,130.23 z M 3.98047,12406.3 c 622.66053,-314.6 0,0 0,0 120.94153,-695 124.69153,-715.9 124.69153,-715.9 h -0.082 c 103.172,-672 211.922,-1162.9 326.289,-1472.7 h -0.078 c 106.289,-320 318.719,-744.22 637.269,-1272.74 59.88,-99.41 163.91,-163.94 279.53,-173.51 l 30.47,-2.5 749.1,-1450.2 c 41.95,-81.25 113.21,-143.52 199.3,-174.3 l 59.88,-21.44 780.12,-1269.06 c 66.95,-108.91 184.61,-172.04 307.65,-172.04 29.07,0 58.44,3.52 87.5,10.79 h 0.04 l 975.59,-1079.18 c 69.41,-76.76 167.19,-118.95 267.89,-118.95 30.04,0 60.35,3.75 90.24,11.45 l 160.07,41.32 697.74,-685.23 c 68.98,-67.73 160.39,-103.48 253.12,-103.48 50.55,0 101.49,10.59 149.42,32.39 l 236.6,107.61 480.19,-395.62 c 26.64,-21.96 56.06,-39.77 87.31,-53.21 15.27,-203.47 112.62,-393.16 292.03,-569.1 3.87,-3.75 7.81,-7.46 11.84,-11.05 88.9,-79.69 191.25,-127.81 307.07,-144.38 16.95,-2.46 34.06,-3.67 51.21,-3.67 9.25,0 18.55,0.35 27.85,1.1 l 230.78,17.85 h 0.04 c 5.82,-1.53 12.85,-3.95 21.05,-7.31 0.9,-0.39 1.8,-0.74 2.7,-1.13 16.83,-6.72 30.23,-13.59 40.12,-20.59 -18.68,-46.48 -66.02,-98.71 -142.04,-156.68 v -0.04 c -14.68,-4.96 -39.76,-7.46 -75.15,-7.46 -75.31,0 -192.5,18.75 -312.42,27.11 -220.32,15.35 -750.47,85.63 -750.47,85.63 322.54,-547.93 414.1,-655.08 414.1,-655.08 l 237.81,-278.16 0.04,-0.04 C 7881.05,1094.57 8448.83,590.039 9043.67,213.242 c 4.26,-2.691 8.56,-5.312 12.93,-7.812 C 9250.74,93.5508 9416.05,28.5508 9552.5,10.4688 h 0.04 c 29.53,-3.9063 58.36,-5.85942 86.52,-5.85942 23.48,0 46.45,1.37109 68.95,4.0625 h 0.04 c 22.5,-2.69141 45.47,-4.0625 68.9,-4.0625 28.17,0 57.03,1.95312 86.57,5.85942 136.48,18.082 301.78,83.082 495.88,194.9612 4.4,2.5 8.7,5.121 13,7.812 594.8,376.797 1162.6,881.328 1703.3,1513.558 v 0.04 l 237.8,278.16 c 197.7,290.62 311.6,795.59 311.6,795.59 -493.2,-150.9 -672.3,-210.24 -672.3,-210.24 -114.1,-37.81 -212.8,-43.01 -288.1,-43.01 -35.3,0 -60.4,2.5 -75.1,7.46 v 0 c -76,57.97 -123.3,110.2 -142.1,156.72 v -0.04 c 9.9,7.04 23.3,13.91 40.1,20.63 0.9,0.39 1.8,0.74 2.8,1.13 8.2,3.36 15.2,5.78 21,7.31 v 0 l 230.8,-17.85 c 9.3,-0.75 18.6,-1.1 27.9,-1.1 17.1,0 34.2,1.21 51.2,3.67 115.8,16.57 218.1,64.69 307.1,144.38 4,3.59 7.9,7.3 11.8,11.05 179.4,175.94 276.7,365.63 292,569.1 l -0.1,-0.03 c 31.3,13.43 60.8,31.28 87.4,53.24 l 422.1,347.73 v -0.04 c 76.8,-38.2 154.3,-76.6 232.6,-115.08 50.8,-25 105.2,-37.1 159.2,-37.1 97.2,0 192.7,39.14 262.6,113.08 l 111.3,117.78 629.3,617.96 160.1,-41.32 c 29.9,-7.7 60.1,-11.45 90.2,-11.45 100.7,0 198.5,42.19 267.9,118.95 l 975.6,1079.18 h 0.1 c 29,-7.27 58.4,-10.79 87.4,-10.79 123.1,0 240.7,63.13 307.7,172.04 l 780.1,1269.06 59.9,21.44 c 86.1,30.78 157.3,93.05 199.2,174.3 l 749.1,1450.2 30.5,2.5 c 115.9,9.6 220,74.33 279.9,173.98 318.9,531.02 531.9,957.38 639.2,1279.07 0.9,3 1.9,5.9 2.8,8.9 158.8,520.9 266.8,1013.2 324.1,1477.1 12.7,102.7 -25.3,674.9 -25.3,674.9 -469.7,-289.3 -527.9,-326.5 -527.9,-326.5 -788.7,-504.5 -1659.4,-952.6 -2612,-1344.4 h -0.1 c -606.9,-222.3 -1266.5,-438.4 -1978.8,-648.1 v 0 c -1292,-365.15 -2269.7,-618.55 -2933.1,-760.15 -150.9,-32.23 -628,-150.55 -628,-150.55 l 365.4,-329.76 h -0.1 c -133.2,-27.78 -242.3,-129.46 -276.4,-265.71 -13.2,-52.65 -25.2,-91.17 -36,-115.58 -212.7,106.25 -392.5,174.69 -539.5,205.27 -0.8,0.16 -1.6,0.35 -2.4,0.51 -121.63,24.45 -239.91,36.68 -354.87,36.68 -11.13,0 -22.23,-0.35 -33.32,-0.35 -11.06,0 -22.15,0.35 -33.28,0.35 -114.96,0 -233.25,-12.23 -354.89,-36.68 -0.78,-0.16 -1.6,-0.35 -2.42,-0.51 -146.95,-30.58 -326.8,-99.02 -539.45,-205.27 -10.78,24.41 -22.77,62.93 -35.98,115.58 -34.18,136.29 -143.24,237.93 -276.48,265.71 l 321.13,305.51 c -425.35,135.5 -571.8,172.03 -571.8,172.03 -1680.23,419.02 -2591.91,653.28 -2734.96,702.72 -6.13,2.1 -12.34,4.1 -18.63,5.9 -789.96,226 -1420.31,426.3 -1891.02,601.1 -2.81,1 -5.62,2 -8.47,3 -813.44,279 -1775.28,760.5 -2885.471,1444.4 l -0.078,-0.1 z" /></clipPath><linearGradient
       id="linearGradient28"
       spreadMethod="pad"
       gradientTransform="matrix(7.5,0,0,-7.5,7056.86,11336.8)"
       gradientUnits="userSpaceOnUse"
       y2="1646.6"
       x2="351.57001"
       y1="115.076"
       x1="351.57001"><stop
         id="stop24"
         offset="0"
         style="stop-opacity:1;stop-color:#faee4c" /><stop
         id="stop26"
         offset="1"
         style="stop-opacity:1;stop-color:#ea820e" /></linearGradient></defs><g
     transform="matrix(1.3333333,0,0,-1.3333333,0,1654.6667)"
     id="g10"><g
       transform="scale(0.1)"
       id="g12"><g
         id="g14"><g
           clip-path="url(#clipPath20)"
           id="g16"><g
             transform="scale(1.18362)"
             id="g22"><path
               id="path30"
               style="fill:url(#linearGradient28);fill-opacity:1;fill-rule:nonzero;stroke:none"
               d="m 14928.7,8515.85 v -0.03 l -42.2,-115.93 -27.6,-10.3 v 0 c -21.1,-3.9 -42,-10 -62.3,-18.49 l -113.5,-47.29 -42.2,-15.78 c -6.1,10.73 -12.9,21 -20.2,30.8 v 0 c 98.5,54.12 201.1,113.13 307.9,177.02 z M 8202,6461.64 v -0.06 c 86.03,-3.1 153.13,-11.72 201.22,-25.85 1.55,-0.46 3.09,-0.88 4.65,-1.32 46.1,-12.77 92.97,-28.41 140.53,-46.96 h -0.04 c -1.15,-6.86 -2.07,-13.76 -2.77,-20.76 -3.3,-32.9 -7.09,-62.97 -11.35,-90.2 h -0.04 c -48.31,-18.97 -92.04,-50.33 -126.07,-92.57 -27.65,-34.32 -53.29,-65.57 -76.86,-93.72 -39.47,18.15 -82.83,27.88 -127.36,27.88 -0.62,0 -1.28,-0.03 -1.94,-0.03 -0.63,0 -1.29,0.03 -1.92,0.03 -44.52,0 -87.88,-9.73 -127.36,-27.88 -23.59,28.15 -49.2,59.4 -76.86,93.72 -34.06,42.24 -77.75,73.63 -126.07,92.57 h -0.03 c -4.29,27.23 -8.06,57.3 -11.35,90.2 -0.69,7 -1.65,13.93 -2.81,20.76 47.56,18.55 94.39,34.19 140.5,46.96 1.54,0.44 3.1,0.86 4.64,1.32 48.13,14.13 115.18,22.75 201.26,25.91 l 0.03,-0.03 v 0.03 -0.03 0.03 -0.03 z M 7758.05,4673.66 v -0.03 c 9.97,-10.76 20.76,-20.82 32.21,-30.07 l -0.04,-0.03 c 0.14,-1.75 0.24,-3.5 0.37,-5.22 -14.03,10.13 -26.67,21.32 -37.95,33.54 h -0.04 c 1.82,0.59 3.63,1.21 5.42,1.81 z m 907.94,-933.38 v -0.03 c -0.87,-13.33 -0.83,-26.84 0.09,-40.4 h -0.04 c -36.65,-25.91 -90.46,-55.54 -161.41,-88.94 35.81,38.78 70.95,71.62 105.44,98.48 h -0.02 c 19.07,10.5 37.71,20.8 55.9,30.89 z m -7188.56,4769.6 v -0.03 c 400.18,-235.81 763.14,-408.38 1088.95,-517.68 h -0.03 c 9.21,-5.05 18.84,-9.94 28.84,-14.59 199.2,-93.1 1158.23,-324.01 2876.96,-692.72 v -0.04 c 5.28,-24.12 13.54,-47.78 24.73,-70.39 l 156.59,-315.9 c 162.74,-448.57 517.95,-871.69 1065.62,-1269.42 -9.24,-11.61 -17.69,-24.01 -25.24,-37.12 -54.52,-94.39 -54.55,-210.66 -0.07,-305.07 5.12,-8.88 10.26,-17.73 15.41,-26.57 67.56,-135.44 155.35,-244.09 263.36,-325.94 13.33,-97.05 73.11,-184.38 164.26,-230.62 91.45,-46.4 177.75,-75.17 258.87,-86.34 26.3,-3.59 52.18,-5.4 77.63,-5.4 6.39,0 12.76,0.12 19.13,0.36 10.04,0.36 20.03,1.22 30,2.57 l 76.66,10.4 c 20.14,2.7 39.94,7.46 59.15,14.13 16.44,5.7 31.97,11.08 46.63,16.1 1.85,-20.79 3.76,-43.6 5.81,-68.42 0.53,-6.34 1.26,-12.6 2.14,-18.87 8.29,-56.87 22.84,-111.65 43.73,-164.39 0.8,-2.08 1.65,-4.12 2.51,-6.17 30.59,-72.64 76.6,-147.72 138.05,-225.18 h -0.03 c -48.15,-65.21 -69.18,-148.08 -55.74,-230.45 l 46,-282.14 c 2.78,-16.9 6.9,-33.37 12.32,-49.24 -71.12,33.46 -125.05,63.17 -161.79,89.14 v -0.04 c 7.69,111.52 -46.53,220.23 -144.06,280.49 -136.29,84.19 -226.12,152.61 -269.52,205.25 -3.6,4.35 -7.33,8.61 -11.16,12.77 -48.21,52.27 -116.2,166.73 -203.92,343.35 -52.08,104.86 -158.68,169.41 -273.13,169.41 -15.41,0 -30.95,-1.16 -46.54,-3.57 -28.28,-4.35 -55.24,-12.54 -80.36,-24.02 -14.13,5.81 -28.71,10.59 -43.75,14.26 -23.91,5.83 -48.2,8.7 -72.35,8.7 -62.8,0 -124.78,-19.4 -176.92,-56.53 L 5874,4264.07 l -433.17,-233.8 -740.21,658.44 c -56.14,49.97 -128.41,77.16 -202.76,77.16 -11.36,0 -22.77,-0.66 -34.16,-1.95 l -48.08,-5.41 -769.89,904.8 c -58.02,68.19 -143,107.39 -232.37,107.39 -1.62,0 -3.24,-0.04 -4.88,-0.04 l -45.88,-0.75 -609.92,927.63 c -56.9,86.54 -153.13,137.5 -254.88,137.5 -13.46,0 -27,-0.9 -40.56,-2.71 -1.22,-0.17 -2.41,-0.34 -3.6,-0.5 -84.95,145.88 -221.67,408.31 -410.15,787.31 h -0.04 l 44.69,311.12 c 20.42,141.94 -60.79,278.93 -195.12,329.17 l -375.56,140.46 -40.07,109.99 z M 3.36296,10481.6 c 526.06404,-265.7 0,0 0,0 C 105.542,9894.47 108.71,9876.85 108.71,9876.85 h -0.069 c 87.167,-567.78 179.046,-982.52 275.671,-1244.26 h -0.066 c 89.8,-270.36 269.274,-628.77 538.407,-1075.3 50.59,-83.98 138.487,-138.5 236.167,-146.59 l 25.74,-2.11 632.89,-1225.23 c 35.44,-68.64 95.65,-121.25 168.38,-147.26 l 50.59,-18.11 659.1,-1072.19 c 56.57,-92.01 155.97,-145.35 259.92,-145.35 24.56,0 49.38,2.98 73.93,9.12 h 0.03 l 824.25,-911.76 c 58.64,-64.85 141.25,-100.5 226.33,-100.5 25.38,0 50.99,3.17 76.24,9.67 l 135.23,34.91 589.5,-578.93 c 58.28,-57.22 135.51,-87.42 213.85,-87.42 42.71,0 85.75,8.94 126.24,27.36 l 199.9,90.92 405.7,-334.24 c 22.5,-18.56 47.36,-33.6 73.76,-44.96 12.9,-171.9 95.15,-332.17 246.73,-480.82 3.27,-3.16 6.6,-6.3 10,-9.33 75.11,-67.33 161.58,-107.98 259.43,-121.98 14.32,-2.08 28.78,-3.1 43.27,-3.1 7.81,0 15.67,0.29 23.53,0.93 l 194.98,15.08 h 0.03 c 4.92,-1.3 10.86,-3.34 17.78,-6.18 0.77,-0.33 1.53,-0.62 2.29,-0.95 14.22,-5.68 25.54,-11.49 33.89,-17.4 -15.78,-39.27 -55.78,-83.39 -120,-132.37 v -0.04 c -12.4,-4.19 -33.6,-6.3 -63.49,-6.3 -63.63,0 -162.64,15.84 -263.96,22.9 -186.14,12.97 -634.04,72.35 -634.04,72.35 272.5,-462.93 349.85,-553.45 349.85,-553.45 l 200.92,-235.01 0.04,-0.03 c 456.78,-534.155 936.48,-960.416 1439.04,-1278.759 3.6,-2.274 7.23,-4.488 10.92,-6.6 C 7815.64,79.0379 7955.3,24.1216 8070.58,8.84469 h 0.04 c 24.95,-3.30026 49.3,-4.95039 73.1,-4.95039 19.83,0 39.24,1.15839 58.25,3.43227 h 0.03 c 19.01,-2.27388 38.42,-3.43227 58.21,-3.43227 23.8,0 48.19,1.65013 73.14,4.95039 115.31,15.27691 254.98,70.19321 419,164.71631 3.7,2.112 7.32,4.326 10.92,6.6 502.57,318.343 982.23,744.604 1439.03,1278.759 v 0.03 l 200.9,235.01 c 167.1,245.53 263.3,672.16 263.3,672.16 -416.7,-127.49 -568,-177.62 -568,-177.62 -96.4,-31.95 -179.77,-36.34 -243.37,-36.34 -29.86,0 -51.02,2.11 -63.46,6.3 h -0.04 c -64.19,48.98 -104.18,93.11 -119.99,132.41 l -0.04,-0.03 c 8.35,5.94 19.67,11.75 33.9,17.43 0.76,0.33 1.55,0.62 2.31,0.95 6.92,2.84 12.84,4.88 17.79,6.18 h 0.03 l 194.98,-15.08 c 7.82,-0.64 15.67,-0.93 23.53,-0.93 14.46,0 28.91,1.02 43.27,3.1 97.79,14 184.29,54.65 259.39,121.98 3.4,3.03 6.8,6.17 10,9.33 151.6,148.65 233.9,308.92 246.7,480.82 v -0.03 c 26.4,11.35 51.3,26.43 73.8,44.99 l 356.6,293.78 0.1,-0.04 c 64.8,-32.27 130.3,-64.71 196.4,-97.22 42.9,-21.12 89,-31.35 134.6,-31.35 82,0 162.8,33.07 221.8,95.54 l 94.1,99.51 531.6,522.09 135.3,-34.91 c 25.2,-6.5 50.8,-9.67 76.2,-9.67 85.1,0 167.7,35.65 226.3,100.5 l 824.3,911.76 v 0 c 24.6,-6.14 49.4,-9.12 73.9,-9.12 104,0 203.4,53.34 259.9,145.35 l 659.1,1072.19 50.6,18.11 c 72.8,26.01 132.9,78.62 168.4,147.26 l 632.9,1225.23 25.7,2.11 c 97.9,8.11 185.9,62.8 236.4,146.99 269.5,448.64 449.5,808.86 540.1,1080.67 0.8,2.47 1.6,4.98 2.4,7.53 134.2,440.05 225.4,856.01 273.8,1247.89 10.7,86.76 -21.4,570.22 -21.4,570.22 -396.8,-244.5 -446,-275.8 -446,-275.8 -666.3,-426.27 -1401.9,-804.87 -2206.8,-1135.86 h -0.1 c -512.7,-187.88 -1070,-370.42 -1671.7,-547.61 h -0.1 C 10860.1,8196.26 10034.1,7982.17 9473.62,7862.53 9346.2,7835.3 8943.1,7735.34 8943.1,7735.34 l 308.65,-278.6 h -0.03 c -112.58,-23.47 -204.73,-109.38 -233.57,-224.49 -11.15,-44.48 -21.28,-77.03 -30.39,-97.65 -179.7,89.77 -331.61,147.59 -455.77,173.43 -0.69,0.13 -1.38,0.29 -2.08,0.42 -102.73,20.66 -202.67,30.99 -299.79,30.99 -9.41,0 -18.78,-0.29 -28.15,-0.29 -9.35,0 -18.72,0.29 -28.12,0.29 -97.13,0 -197.06,-10.33 -299.83,-30.99 -0.66,-0.13 -1.35,-0.29 -2.05,-0.42 -124.15,-25.84 -276.1,-83.66 -455.76,-173.43 -9.11,20.62 -19.24,53.17 -30.4,97.65 -28.88,115.14 -121.02,201.02 -233.59,224.49 l 271.31,258.11 c -359.36,114.48 -483.09,145.34 -483.09,145.34 -1419.57,354.02 -2189.82,551.94 -2310.68,593.68 -5.17,1.82 -10.42,3.47 -15.74,4.99 -667.41,190.92 -1199.97,360.22 -1597.65,507.84 -2.38,0.86 -4.75,1.72 -7.16,2.54 -687.25,235.77 -1499.87,642.53 -2437.836,1220.26 h -0.066 z" /></g></g></g><path
         id="path32"
         style="fill:#ea820e;fill-opacity:1;fill-rule:nonzero;stroke:none"
         d="m 10896.3,6797.85 -781.4,-320.27 -247.2,-263.32 186.1,-159.77 372.8,40.08 185.2,68.13 220.7,304.18 63.8,330.97" /><path
         id="path34"
         style="fill:#ea820e;fill-opacity:1;fill-rule:nonzero;stroke:none"
         d="m 8519.73,6797.85 781.4,-320.27 247.23,-263.32 -186.09,-159.77 -372.82,40.08 -185.19,68.13 -220.67,304.18 -63.86,330.97" /><path
         id="path36"
         style="fill:#faee4c;fill-opacity:1;fill-rule:nonzero;stroke:none"
         d="m 10670.4,6652.15 -9.4,-24.92 c -39.1,-109.38 -79.7,-193.83 -121.7,-253.32 -36.9,-54.3 -84,-93.91 -141.3,-118.79 -28.6,-11.76 -61.1,-17.74 -97.6,-17.97 -17.9,0.12 -36.3,1.72 -55.3,4.84 -9.9,0.08 -37.6,7.46 -82.9,22.11 -41.9,18.09 -65.1,29.81 -69.6,35.24 -12.9,8.94 -23.4,18.32 -31.4,28.12 -16.3,19.81 -19,40 -8.2,60.55 11.3,20.43 32.2,41.01 62.7,61.76 47.2,31.05 102.6,62.26 166.1,93.59 224.5,96.33 354.9,148.79 391.3,157.34 24.2,6.64 36.5,6.84 36.7,0.51 0.9,-6.91 -12.3,-23.28 -39.4,-49.06" /><path
         id="path38"
         style="fill:#faee4c;fill-opacity:1;fill-rule:nonzero;stroke:none"
         d="m 8745.66,6652.15 9.38,-24.92 c 39.14,-109.38 79.73,-193.83 121.76,-253.32 36.87,-54.3 83.98,-93.91 141.29,-118.79 28.47,-11.76 61.01,-17.74 97.5,-17.97 17.96,0.12 36.4,1.72 55.31,4.84 10,0.08 37.65,7.46 83.01,22.11 41.87,18.09 65.04,29.81 69.53,35.24 12.97,8.94 23.44,18.32 31.4,28.12 16.29,19.81 19.03,40 8.21,60.55 -11.25,20.43 -32.15,41.01 -62.66,61.76 -47.27,31.05 -102.69,62.26 -166.21,93.59 -224.38,96.33 -354.8,148.79 -391.21,157.34 -24.3,6.64 -36.52,6.84 -36.72,0.51 -0.86,-6.91 12.27,-23.28 39.41,-49.06" /><path
         id="path40"
         style="fill:#faee4c;fill-opacity:1;fill-rule:nonzero;stroke:none"
         d="m 10589.8,6524.02 223.3,-61.68 c 9.4,-2.57 14.9,-12.26 12.3,-21.64 -2.5,-9.37 -12.3,-14.88 -21.6,-12.3 l -223.4,61.68 c -9.4,2.58 -14.9,12.26 -12.3,21.64 2.6,9.37 12.3,14.88 21.7,12.3 z" /><path
         id="path42"
         style="fill:#faee4c;fill-opacity:1;fill-rule:nonzero;stroke:none"
         d="m 8826.29,6524.02 -223.4,-61.68 c -9.37,-2.57 -14.84,-12.26 -12.27,-21.64 2.58,-9.37 12.27,-14.88 21.65,-12.3 l 223.39,61.68 c 9.38,2.58 14.89,12.26 12.31,21.64 -2.62,9.37 -12.31,14.88 -21.68,12.3 z" /><path
         id="path44"
         style="fill:#faee4c;fill-opacity:1;fill-rule:nonzero;stroke:none"
         d="m 10491.2,6340.74 163.7,-135.27 c 7.5,-6.17 8.6,-17.27 2.4,-24.77 -6.2,-7.5 -17.3,-8.55 -24.8,-2.38 l -163.7,135.27 c -7.5,6.18 -8.6,17.27 -2.4,24.77 6.2,7.5 17.3,8.55 24.8,2.38 z" /><path
         id="path46"
         style="fill:#faee4c;fill-opacity:1;fill-rule:nonzero;stroke:none"
         d="m 8924.88,6340.74 -163.75,-135.27 c -7.5,-6.17 -8.55,-17.27 -2.38,-24.77 6.21,-7.5 17.3,-8.55 24.8,-2.38 l 163.75,135.27 c 7.5,6.18 8.56,17.27 2.35,24.77 -6.17,7.5 -17.27,8.55 -24.77,2.38 z" /><path
         id="path48"
         style="fill:#faee4c;fill-opacity:1;fill-rule:nonzero;stroke:none"
         d="m 10360.9,6261.02 7.7,-207.78 c 0.3,-9.72 -7.2,-17.89 -17,-18.24 -9.7,-0.35 -17.8,7.23 -18.2,16.95 l -7.7,207.78 c -0.3,9.72 7.2,17.89 17,18.24 9.6,0.35 17.9,-7.23 18.2,-16.95 z" /><path
         id="path50"
         style="fill:#faee4c;fill-opacity:1;fill-rule:nonzero;stroke:none"
         d="m 9055.16,6261.02 -7.7,-207.78 c -0.35,-9.72 7.23,-17.89 16.95,-18.24 9.69,-0.35 17.86,7.23 18.25,16.95 l 7.69,207.78 c 0.35,9.72 -7.23,17.89 -16.95,18.24 -9.73,0.35 -17.89,-7.23 -18.24,-16.95 z" /><path
         id="path52"
         style="fill:#faee4c;fill-opacity:1;fill-rule:nonzero;stroke:none"
         d="m 10174.3,6278.2 -95.2,-203.51 c -4.1,-8.79 -14.6,-12.58 -23.4,-8.48 -8.8,4.14 -12.6,14.61 -8.5,23.4 l 95.2,203.51 c 4.1,8.83 14.5,12.62 23.4,8.52 8.8,-4.14 12.6,-14.61 8.5,-23.44 z" /><path
         id="path54"
         style="fill:#faee4c;fill-opacity:1;fill-rule:nonzero;stroke:none"
         d="m 9241.76,6278.2 95.15,-203.51 c 4.14,-8.79 14.61,-12.58 23.44,-8.48 8.79,4.14 12.58,14.61 8.48,23.4 l -95.16,203.51 c -4.1,8.83 -14.61,12.62 -23.4,8.52 -8.82,-4.14 -12.61,-14.61 -8.51,-23.44 z" /><g
         transform="scale(1.07678)"
         id="g56"><path
           id="path58"
           style="fill:#1ca6ed;fill-opacity:1;fill-rule:nonzero;stroke:none"
           d="m 8796.57,722.461 1221.83,535.049 396.6,597.85 -625.26,828.94 648.86,785.29 713.3,183.42 c 473.4,217.81 752.2,377.61 836.4,479.33 l 326.1,-138.55 729.5,683.04 511.9,93.55 784.9,1027.85 515.5,110.71 435,981.88 340.5,154.03 668.3,1584.95 c -813,-214.9 -2038.2,-482.41 -3675.3,-802.48 l -1452,-1523.24 -747.4,209.53 -276.2,-242.01 -54.1,-374.41 -378.51,-290 -465.11,20.96 -89.75,-620.23 -118.52,-184.79 -112.24,47.88 -878.64,-2885.56 744.34,-1262.989" /></g><path
         id="path60"
         style="fill:#1ca6ed;fill-opacity:1;fill-rule:nonzero;stroke:none"
         d="m 9944.06,777.93 -1315.62,576.13 -427.03,643.75 673.28,892.58 -698.67,845.59 -768.13,197.5 c -509.73,234.53 -809.92,406.6 -900.55,516.13 l -351.21,-149.18 -785.43,735.47 -551.25,100.74 -845.19,1106.76 -555.04,119.22 -468.44,1057.26 -366.68,165.86 -719.57,1706.64 c 875.51,-231.4 2194.69,-519.45 3957.58,-864.1 l 1563.48,-1640.19 804.72,225.62 297.39,-260.59 58.24,-403.16 407.61,-312.26 500.83,22.57 96.64,-667.85 127.57,-198.98 120.9,51.56 946.11,-3107.11 -801.54,-1359.96" /><path
         id="path62"
         style="fill:#1ca6ed;fill-opacity:1;fill-rule:nonzero;stroke:none"
         d="m 9676.41,6532.77 807.39,403.83 481.2,420.59 120.2,403.9 -126.5,314.89 -259.9,-252.93 -677.9,262.42 -619.96,13.67 275.47,-1566.37" /><path
         id="path64"
         style="fill:#1ca6ed;fill-opacity:1;fill-rule:nonzero;stroke:none"
         d="m 9739.65,6532.77 -807.35,403.83 -481.28,420.59 -120.16,403.9 126.48,314.89 259.96,-252.93 677.86,262.42 619.94,13.67 -275.45,-1566.37" /><path
         id="path66"
         style="fill:#17398d;fill-opacity:1;fill-rule:nonzero;stroke:none"
         d="m 9527.73,3886.21 43.01,6.64 c 229.65,34.3 398.79,74.49 507.46,120.55 197.4,82.5 353.8,174.18 469.2,275.04 26.4,21.79 62.1,59.76 107.2,113.9 l -383.5,-50.54 c 237.2,99.8 445.2,241.72 623.8,425.78 102.3,91.8 232.1,311.76 389.5,659.88 46.6,-195.27 57.7,-370 33.5,-524.14 95.7,214.22 145.5,368.75 149.4,463.63 13.7,70.9 -2.9,217.78 -49.7,440.67 l 252.7,-72.66 c -49.6,56.64 -81.3,117.81 -95,183.52 -15.7,59.06 -28.2,185 -37.5,377.89 l 409.8,-561.53 -214.8,-280.27 -156.6,-565.47 c -246,-171.83 -458,-310.62 -636,-416.37 l -40.2,-266.64 -376.4,-544.18 -1094.89,-448.24 99.02,662.54" /><path
         id="path68"
         style="fill:#17398d;fill-opacity:1;fill-rule:nonzero;stroke:none"
         d="m 9888.32,3886.21 -43.01,6.64 c -229.65,34.3 -398.79,74.49 -507.42,120.55 -197.42,82.5 -353.83,174.18 -469.22,275.04 -26.37,21.79 -62.15,59.76 -107.3,113.9 L 9145,4351.8 c -237.3,99.8 -445.23,241.72 -623.87,425.78 -102.3,91.8 -232.15,311.76 -389.49,659.88 -46.6,-195.27 -57.77,-370 -33.48,-524.14 -95.7,214.22 -145.5,368.75 -149.37,463.63 -13.71,70.9 2.85,217.78 49.65,440.67 l -252.74,-72.66 c 49.65,56.64 81.33,117.81 95.08,183.52 15.7,59.06 28.2,185 37.46,377.89 l -409.76,-561.53 214.76,-280.27 156.6,-565.47 c 246.02,-171.83 458.01,-310.62 635.98,-416.37 l 40.16,-266.64 376.52,-544.18 1094.8,-448.24 -98.98,662.54" /><path
         id="path70"
         style="fill:#17398d;fill-opacity:1;fill-rule:nonzero;stroke:none"
         d="m 9681.13,4691.91 60.78,53.52 c 291.69,256.99 465.39,437.23 521.29,540.59 72.5,90.97 149.5,291.83 230.9,602.53 32,-50.19 51.1,-99.68 57.5,-148.43 8,-44.53 10.5,-135 7.3,-271.41 17.4,115.39 42.3,189.3 74.6,221.76 2.9,5.15 15.9,16.48 39.2,33.94 106.4,59.18 158.1,89.93 155.2,92.23 30.6,21.29 72.5,63.05 125.5,125.31 l 87.9,110.51 -200,-70.31 c 144.7,75.94 240.4,149.76 287.1,221.4 51.2,65.67 102.4,197.9 153.5,396.61 -69.8,-88.75 -128.1,-129.11 -175.1,-121.1 31.3,120.98 14.8,244.18 -49.3,369.69 l -165.4,-379.26 -231.3,-361.64 -525,-119.61 -167.52,-52.15 c -89.76,-407.3 -144.61,-643.51 -164.53,-708.55 l -144.61,-54.96 -201.52,-339.73 223.51,-140.94" /><path
         id="path72"
         style="fill:#17398d;fill-opacity:1;fill-rule:nonzero;stroke:none"
         d="m 9734.92,4691.91 -60.78,53.52 c -291.64,256.99 -465.43,437.23 -521.29,540.59 -72.58,90.97 -149.53,291.83 -230.86,602.53 -31.99,-50.19 -51.17,-99.68 -57.54,-148.43 -8.08,-44.53 -10.5,-135 -7.38,-271.41 -17.38,115.39 -42.23,189.3 -74.53,221.76 -2.85,5.15 -15.94,16.48 -39.22,33.94 -106.37,59.18 -158.12,89.93 -155.23,92.23 -30.59,21.29 -72.39,63.05 -125.47,125.31 l -87.89,110.51 200.04,-70.31 c -144.69,75.94 -240.39,149.76 -287.07,221.4 -51.25,65.67 -102.47,197.9 -153.6,396.61 69.81,-88.75 128.17,-129.11 175.16,-121.1 -31.29,120.98 -14.88,244.18 49.26,369.69 l 165.35,-379.26 231.4,-361.64 524.96,-119.61 167.5,-52.15 c 89.77,-407.3 144.61,-643.51 164.57,-708.55 l 144.61,-54.96 201.49,-339.73 -223.48,-140.94" /><path
         id="path74"
         style="fill:#17398d;fill-opacity:1;fill-rule:nonzero;stroke:none"
         d="m 9702.03,7269.34 10.27,-6.25 c 44.77,-25.51 81.45,-55.79 109.97,-90.79 25.54,-29.88 61.44,-91.71 107.69,-185.58 78.84,59.22 135.84,114.61 171.14,166.25 35.9,47.69 85.7,141.29 149.3,280.7 4,-70.55 12.8,-117.11 26.5,-139.69 18.7,-24.18 39.7,-19.68 62.8,13.44 31.2,30.7 52.1,182.42 62.6,455.24 83.6,-275.36 119.7,-425.16 108.4,-449.3 135,138.94 219.7,231.17 254.3,276.6 40.4,49.77 68.1,100.35 83,151.76 l -146.5,-70.12 -121.8,82.15 379.6,284.57 52.6,-275.55 -353.4,-607.15 -440.3,-252.1 -282.93,-248.17 -284.65,-87.58 51.41,701.57" /><path
         id="path76"
         style="fill:#17398d;fill-opacity:1;fill-rule:nonzero;stroke:none"
         d="m 9713.98,7269.34 -10.27,-6.25 c -44.76,-25.51 -81.41,-55.79 -109.92,-90.79 -25.55,-29.88 -61.45,-91.71 -107.74,-185.58 -78.82,59.22 -135.85,114.61 -171.09,166.25 -35.98,47.69 -85.74,141.29 -149.37,280.7 -3.91,-70.55 -12.74,-117.11 -26.45,-139.69 -18.75,-24.18 -39.69,-19.68 -62.81,13.44 -31.25,30.7 -52.07,182.42 -62.58,455.24 -83.59,-275.36 -119.73,-425.16 -108.4,-449.3 -134.96,138.94 -219.73,231.17 -254.26,276.6 -40.43,49.77 -68.12,100.35 -83.04,151.76 l 146.44,-70.12 121.88,82.15 -379.57,284.57 -52.7,-275.55 353.44,-607.15 440.35,-252.1 282.85,-248.17 284.69,-87.58 -51.45,701.57" /><path
         id="path78"
         style="fill:#17398d;fill-opacity:1;fill-rule:nonzero;stroke:none"
         d="m 10898.3,1880.78 -41.7,9.34 c -184.3,37.58 -319.1,84.84 -404.4,141.83 -78.8,48.44 -155.6,151.57 -230.2,309.34 -41.9,-128.71 -63.9,-238.99 -66.2,-330.82 -5.6,-86.95 4.7,-244.81 30.9,-473.63 -53.3,181.71 -94.2,298.98 -122.7,351.83 -28.1,59.61 -72.12,111.06 -131.97,154.26 l -219.92,-284.73 -104.57,373.25 312.23,110.35 252.13,543.2 381.7,-92.46 486,-438.56 -141.3,-373.2" /><path
         id="path80"
         style="fill:#17398d;fill-opacity:1;fill-rule:nonzero;stroke:none"
         d="m 8517.77,1880.78 41.64,9.34 c 184.3,37.58 319.11,84.84 404.42,141.83 78.87,48.44 155.58,151.57 230.23,309.34 41.84,-128.71 63.91,-238.99 66.17,-330.82 5.59,-86.95 -4.68,-244.81 -30.85,-473.63 53.32,181.71 94.21,298.98 122.65,351.83 28.13,59.61 72.15,111.06 131.99,154.26 l 219.93,-284.73 104.57,373.25 -312.27,110.35 -252.15,543.2 -381.6,-92.46 -486.02,-438.56 141.29,-373.2" /><path
         id="path82"
         style="fill:#17398d;fill-opacity:1;fill-rule:nonzero;stroke:none"
         d="m 9716.05,1503.44 108.56,140.47 c 196.69,-153.05 326.79,-262.78 390.49,-329.18 26.5,-27 47.7,-51.84 63.5,-74.46 l 18.8,-31.91 8.8,-27.85 -2.2,-23.36 -5,-9.22 c -23.8,-27.89 -80.7,-42.27 -170.7,-43.05 -108.7,-1.56 -274.35,10.39 -496.93,35.74 l 84.68,362.82" /><path
         id="path84"
         style="fill:#17398d;fill-opacity:1;fill-rule:nonzero;stroke:none"
         d="m 9699.96,1503.44 -108.51,140.47 c -196.68,-153.05 -326.84,-262.78 -390.47,-329.18 -26.53,-27 -47.74,-51.84 -63.6,-74.46 l -18.75,-31.91 -8.79,-27.85 2.23,-23.36 5,-9.22 c 23.75,-27.89 80.63,-42.27 170.7,-43.05 108.68,-1.56 274.34,10.39 496.92,35.74 l -84.73,362.82" /><g
         transform="scale(1.03283)"
         id="g86"><path
           id="path88"
           style="fill:#17398d;fill-opacity:1;fill-rule:nonzero;stroke:none"
           d="m 15691.3,8216.83 608.7,-34.39 -452.6,-798.88 -2418.1,86.61 -498.6,43.99 15.1,-353.78 819.2,-273.86 774.3,118.49 784.8,-197.84 -457.4,-628.81 -1374.4,-7.52 -169.3,-195.73 765.9,-438.15 -508.6,-606.64 -770.9,296.44 -311.9,-129.73 512.6,-378.51 -416.5,-372.61 -697.8,60.29 -616.5,-63.27 486.3,-240.55 -441.6,-278.06 -794.3,460.28 207.5,243.3 c 364.5,-118.61 614.7,-178.05 750.5,-178.33 166.1,-5.1 335.8,37.76 509.3,128.6 l -779.1,420.27 169.9,468.29 824.5,-470.95 434.3,439.64 -1217.5,895.82 606.1,183.46 803.7,-608.01 527.9,402.99 -1181.9,488 305.1,742.65 953.2,727.07 2248.1,49.43" /></g><path
         id="path90"
         style="fill:#17398d;fill-opacity:1;fill-rule:nonzero;stroke:none"
         d="m 3209.53,8486.6 -628.67,-35.51 467.46,-825.11 2497.46,89.45 514.96,45.43 -15.58,-365.39 -846.02,-282.85 -799.76,122.38 -810.55,-204.34 472.38,-649.45 1419.57,-7.77 174.81,-202.15 -791.02,-452.54 525.35,-626.56 796.13,306.17 322.19,-133.98 -529.49,-390.94 430.2,-384.85 720.78,62.27 636.72,-65.35 -502.23,-248.44 455.98,-287.19 820.42,475.39 -214.25,251.29 c -376.53,-122.54 -634.92,-183.9 -775.2,-184.18 -171.48,-5.27 -346.83,38.99 -526.01,132.82 l 804.64,434.06 -175.42,483.67 -851.57,-486.41 -448.59,454.07 1257.5,925.23 -626.02,189.49 -830.11,-627.97 -545.24,416.21 1220.67,504.03 -315.04,767.03 -984.53,750.94 -2321.92,51.05" /><path
         id="path92"
         style="fill:#17398d;fill-opacity:1;fill-rule:nonzero;stroke:none"
         d="m 10339.4,4712.34 -21.4,-6.05 c -91.4,-21.45 -176.7,-66.06 -256.1,-133.87 -69.32,-56.48 -189.2,-193.24 -359.63,-410.27 l -28.4,137.03 c 100.23,105.51 175.04,179.92 224.45,223.2 65.47,56.14 126.78,95.2 183.98,117.19 46.1,21.02 131.8,45.27 257.1,72.77" /><path
         id="path94"
         style="fill:#17398d;fill-opacity:1;fill-rule:nonzero;stroke:none"
         d="m 9076.64,4712.34 21.41,-6.05 c 91.36,-21.45 176.68,-66.06 256.01,-133.87 69.38,-56.48 189.3,-193.24 359.69,-410.27 l 28.44,137.03 c -100.24,105.51 -175.08,179.92 -224.46,223.2 -65.5,56.14 -126.79,95.2 -183.98,117.19 -46.05,21.02 -131.76,45.27 -257.11,72.77" /><path
         id="path96"
         style="fill:#fdfdfe;fill-opacity:1;fill-rule:nonzero;stroke:none"
         d="m 9722.97,6312.73 302.63,366.45 392.1,160.9 355.5,332.58 223.2,438.47 373.9,498.05 668.5,193.87 158,-164.34 -378.9,-408.83 -324.3,-508.79 -300.3,-218.59 -170.4,-199.73 -559.2,-199.53 -145.7,-131.99 -425.42,-195 c 9.33,-263.63 9.92,-509.14 1.72,-736.56 l -73.99,-241.8 -187.61,-87.3 -121.02,683.12 211.29,419.02" /><path
         id="path98"
         style="fill:#fdfdfe;fill-opacity:1;fill-rule:nonzero;stroke:none"
         d="m 9693.05,6312.73 -302.58,366.45 -392.15,160.9 -355.47,332.58 -223.24,438.47 -373.87,498.05 -668.55,193.87 -157.93,-164.34 378.86,-408.83 324.38,-508.79 300.27,-218.59 170.35,-199.73 559.18,-199.53 145.79,-131.99 425.39,-195 c -9.38,-263.63 -9.93,-509.14 -1.76,-736.56 l 73.98,-241.8 187.62,-87.3 121.06,683.12 -211.33,419.02" /><g
         transform="scale(1.13265)"
         id="g100"><path
           id="path102"
           style="fill:#fdfdfe;fill-opacity:1;fill-rule:nonzero;stroke:none"
           d="m 10059.5,6260.63 749.9,881.17 151.4,464.73 -417.1,130.49 521,308.49 903.5,234.69 2218.4,509.18 1275.7,653.93 837.7,367.47 -310.1,-1339.62 -560.4,-350.73 -1176.6,-313.64 -817.4,-26.76 -1667.8,-418.75 -824.9,-1150.17 -883.3,49.52" /></g><path
         id="path104"
         style="fill:#fdfdfe;fill-opacity:1;fill-rule:nonzero;stroke:none"
         d="m 8022.15,7091.09 -849.38,998.05 -171.48,526.37 472.42,147.81 -590.04,349.41 -1023.44,265.82 -2512.57,576.72 -1444.89,740.63 -948.899,416.3 351.249,-1517.36 634.76,-397.26 1332.62,-355.24 925.9,-30.31 1888.98,-474.3 934.38,-1302.73 1000.39,56.09" /><path
         id="path106"
         style="fill:#fdfdfe;fill-opacity:1;fill-rule:nonzero;stroke:none"
         d="m 11350.3,4746.13 556.3,-261.48 326.2,68.59 -671.4,379.3 187.2,523.2 213,4.69 501.8,-307.46 423.5,309.88 -690.5,253.99 -302.7,578.16 355.4,334.88 587.8,-436.68 623.6,-97.18 323.8,337.1 -975.4,580.71 296.9,536.17 524.7,-289.06 990.1,-268.79 182.1,503.63 -1291.3,299.22 276.9,444.22 1149.9,-118.67 559.7,453.12 -1688.9,181.49 -921.1,-729.85 -1121,-1007.15 c 148.8,-686.95 213.1,-1122.38 192.7,-1306.32 0.2,-22.11 -12.3,-54.61 -37.8,-97.46 -3.9,-14.85 -50.2,-43.33 -138.9,-85.43 -11.8,-9.89 -21.9,-23.33 -30.3,-40.36 -14.3,-12.38 -39.4,-127.69 -75.2,-345.86 -13.1,-56.6 -32.6,-106.52 -58.7,-149.8 -34.8,-69.3 -124.3,-151.56 -268.4,-246.8" /><path
         id="path108"
         style="fill:#fdfdfe;fill-opacity:1;fill-rule:nonzero;stroke:none"
         d="m 8065.74,4746.13 -556.25,-261.48 -326.25,68.59 671.33,379.3 -187.19,523.2 -212.97,4.69 -501.71,-307.46 -423.64,309.88 690.59,253.99 302.65,578.16 -355.35,334.88 -587.77,-436.68 -623.63,-97.18 -323.83,337.1 975.47,580.71 -296.92,536.17 -524.76,-289.06 -990.08,-268.79 -182.11,503.63 1291.37,299.22 -276.96,444.22 -1149.84,-118.67 -559.73,453.12 1688.91,181.49 921.09,-729.85 1120.98,-1007.15 c -148.83,-686.95 -213.05,-1122.38 -192.69,-1306.32 -0.24,-22.11 12.34,-54.61 37.77,-97.46 3.94,-14.85 50.27,-43.33 138.94,-85.43 11.8,-9.89 21.88,-23.33 30.24,-40.36 14.33,-12.38 39.41,-127.69 75.27,-345.86 13.05,-56.6 32.62,-106.52 58.67,-149.8 34.77,-69.3 124.26,-151.56 268.4,-246.8" /><path
         id="path110"
         style="fill:#999fc1;fill-opacity:1;fill-rule:nonzero;stroke:none"
         d="m 14196.5,8319.3 991.9,69.41 -201.6,-243.24 c -281.6,0.15 -481.6,2.54 -600.2,7.07 -48.4,1.72 -92.3,3.98 -131.8,6.72 l -55.2,4.65 c -34.2,3.36 -62.4,7.46 -84.6,12.26 -21.7,4.85 -37.4,10.39 -47.1,16.68 l -10.7,9.88 c -4.4,6.88 -4.3,14.3 0.1,22.27 8.8,19.57 55.2,51.02 139.2,94.3" /><path
         id="path112"
         style="fill:#999fc1;fill-opacity:1;fill-rule:nonzero;stroke:none"
         d="m 5219.57,8319.3 -991.87,69.41 201.6,-243.24 c 281.48,0.15 481.56,2.54 600.19,7.07 48.32,1.72 92.27,3.98 131.76,6.72 l 55.16,4.65 c 34.25,3.36 62.46,7.46 84.61,12.26 21.75,4.85 37.46,10.39 47.1,16.68 l 10.71,9.88 c 4.41,6.88 4.37,14.3 -0.04,22.27 -8.91,19.57 -55.27,51.02 -139.22,94.3" /><path
         id="path114"
         style="fill:#999fc1;fill-opacity:1;fill-rule:nonzero;stroke:none"
         d="m 13437.5,7451.76 548,-93.4 548,-93.36 c -99.6,-60.78 -199.1,-121.52 -298.7,-182.3 -265.7,123 -531.5,246.01 -797.3,369.06" /><path
         id="path116"
         style="fill:#999fc1;fill-opacity:1;fill-rule:nonzero;stroke:none"
         d="m 5978.52,7451.76 -548.01,-93.4 -547.97,-93.36 c 99.57,-60.78 199.14,-121.52 298.71,-182.3 265.74,123 531.48,246.01 797.27,369.06" /><path
         id="path118"
         style="fill:#999fc1;fill-opacity:1;fill-rule:nonzero;stroke:none"
         d="m 12550.1,6613.24 946.2,-366.17 c -155.9,-55.04 -311.9,-110.04 -467.7,-165.08 -159.5,177.07 -319,354.18 -478.5,531.25" /><path
         id="path120"
         style="fill:#999fc1;fill-opacity:1;fill-rule:nonzero;stroke:none"
         d="M 6865.94,6613.24 6392.85,6430.16 5919.8,6247.07 c 155.9,-55.04 311.8,-110.04 467.7,-165.08 159.49,177.07 318.95,354.18 478.44,531.25" /><path
         id="path122"
         style="fill:#999fc1;fill-opacity:1;fill-rule:nonzero;stroke:none"
         d="m 11945.9,5487.89 367.3,-85.04 367.2,-85 c -87.9,-49.92 -175.9,-99.84 -263.9,-149.76 -156.9,106.6 -313.7,213.2 -470.6,319.8" /><path
         id="path124"
         style="fill:#999fc1;fill-opacity:1;fill-rule:nonzero;stroke:none"
         d="m 7470.16,5487.89 -367.27,-85.04 -367.27,-85 c 87.97,-49.92 175.9,-99.84 263.87,-149.76 156.88,106.6 313.75,213.2 470.67,319.8" /><path
         id="path126"
         style="fill:#999fc1;fill-opacity:1;fill-rule:nonzero;stroke:none"
         d="m 11524.2,4769.73 234.9,-116.88 235,-116.87 c -81.8,0.31 -163.5,0.66 -245.2,0.97 -74.9,77.58 -149.8,155.2 -224.7,232.78" /><path
         id="path128"
         style="fill:#999fc1;fill-opacity:1;fill-rule:nonzero;stroke:none"
         d="m 7891.88,4769.73 -234.97,-116.88 -234.92,-116.87 c 81.72,0.31 163.4,0.66 245.12,0.97 74.92,77.58 149.84,155.2 224.77,232.78" /><path
         id="path130"
         style="fill:#999fc1;fill-opacity:1;fill-rule:nonzero;stroke:none"
         d="m 9776.05,6309.06 15.28,19.18 c 89.72,116.53 176.21,196.29 259.47,239.38 48.1,26.99 98.8,51.29 151.9,72.81 9,5.19 105.4,41.45 289.3,108.67 63.6,24.88 110.3,44.45 140.5,58.67 78.8,34.69 162.4,81.33 250.9,139.96 66.2,44.61 134,98.6 203.4,161.88 80.9,73.36 186.6,178.75 317.2,316.21 l 34.4,20.74 c 59.1,35.2 93.2,44.73 102,28.6 11.9,-16.68 11,-59.46 -2.9,-128.32 l -476.8,-452.54 -219.8,-86.8 -608.6,-319.8 -456.25,-178.64" /><path
         id="path132"
         style="fill:#999fc1;fill-opacity:1;fill-rule:nonzero;stroke:none"
         d="m 9639.96,6309.06 -15.27,19.18 c -89.69,116.53 -176.17,196.29 -259.46,239.38 -48.12,26.99 -98.78,51.29 -151.91,72.81 -8.94,5.19 -105.39,41.45 -289.3,108.67 -63.55,24.88 -110.35,44.45 -140.43,58.67 -78.82,34.69 -162.46,81.33 -250.93,139.96 -66.21,44.61 -134.03,98.6 -203.48,161.88 -80.82,73.36 -186.52,178.75 -317.11,316.21 l -34.41,20.74 c -59.14,35.2 -93.17,44.73 -102.04,28.6 -11.95,-16.68 -10.97,-59.46 2.93,-128.32 l 476.8,-452.54 219.81,-86.8 608.51,-319.8 456.29,-178.64" /><path
         id="path134"
         style="fill:#999fc1;fill-opacity:1;fill-rule:nonzero;stroke:none"
         d="m 11207.3,7175.12 -97.5,38.94 -97.5,38.91 c -23.4,-22.93 -46.8,-45.86 -70.2,-68.79 60.4,-30.82 120.7,-61.64 181.1,-92.46 28.1,27.77 56.1,55.58 84.1,83.4" /><path
         id="path136"
         style="fill:#999fc1;fill-opacity:1;fill-rule:nonzero;stroke:none"
         d="m 8208.71,7175.12 97.54,38.94 97.54,38.91 c 23.4,-22.93 46.8,-45.86 70.19,-68.79 -60.39,-30.82 -120.78,-61.64 -181.17,-92.46 -28.01,27.77 -56.05,55.58 -84.1,83.4" /><path
         id="path138"
         style="fill:#999fc1;fill-opacity:1;fill-rule:nonzero;stroke:none"
         d="m 10928.2,7122.85 60.3,-36.05 60.3,-36.1 c -20.7,-13.86 -41.3,-27.69 -62,-41.56 -39.5,22.7 -79.1,45.39 -118.7,68.09 l 60.1,45.62" /><path
         id="path140"
         style="fill:#999fc1;fill-opacity:1;fill-rule:nonzero;stroke:none"
         d="m 8487.85,7122.85 -60.27,-36.05 -60.28,-36.1 c 20.63,-13.86 41.29,-27.69 61.92,-41.56 39.57,22.7 79.14,45.39 118.71,68.09 l -60.08,45.62" /><path
         id="path142"
         style="fill:#999fc1;fill-opacity:1;fill-rule:nonzero;stroke:none"
         d="m 11082.7,7344.26 15.6,15.12 c 84,80.54 141.2,140.82 171.7,180.74 12.1,14.26 31,40.62 56.8,79.06 100,168.59 157.8,261.02 173.3,277.23 49.6,63.43 89.8,105.97 120.6,127.65 57.6,44.73 125.2,80.12 202.9,106.06 63.5,22.73 159.2,48.12 287.2,76.13 l -349.1,9.57 -404.2,-209.34 -174.1,-256.52 -284.6,-343.48 183.9,-62.22" /><path
         id="path144"
         style="fill:#999fc1;fill-opacity:1;fill-rule:nonzero;stroke:none"
         d="m 8333.4,7344.26 -15.67,15.12 c -83.98,80.54 -141.21,140.82 -171.75,180.74 -12.03,14.26 -30.98,40.62 -56.76,79.06 -100,168.59 -157.74,261.02 -173.24,277.23 -49.65,63.43 -89.85,105.97 -120.63,127.65 -57.62,44.73 -125.27,80.12 -202.89,106.06 -63.48,22.73 -159.26,48.12 -287.26,76.13 l 349.1,9.57 404.25,-209.34 174.11,-256.52 284.64,-343.48 -183.9,-62.22" /><path
         id="path146"
         style="fill:#999fc1;fill-opacity:1;fill-rule:nonzero;stroke:none"
         d="m 9807.03,5615.51 -7.15,8.4 c -32.15,36.25 -53.43,67.14 -63.83,92.61 -4.06,8.56 -7.5,22.7 -10.27,42.5 -0.55,2.86 -1.05,11.25 -1.52,25.12 0.66,40.47 0.66,63.71 0,69.81 -1.17,16.13 -2.7,26.99 -4.57,32.57 -4.42,20.36 -20.2,40.9 -47.27,61.6 l 60.43,57.74 40.59,-29.14 4.8,-248.28 26.25,118.4 40.51,48.16 69.14,-112.19 -10.78,-135.11 -37.62,-186.61 -140.19,-270.54 -108.75,95.66 c 44.57,11.49 83.4,31.45 116.48,59.81 31.92,27.22 57.11,65.07 75.63,113.51 9.61,29.38 15.19,60.59 16.68,93.75 1.13,21.84 1.44,43.13 0.89,63.79 -2.69,70.35 -3.86,108.52 -3.51,114.57 0.19,24.1 0.9,41.25 2.07,51.41 3.67,38.2 12.62,88.04 26.8,149.53 -10.82,-16.29 -21.18,-32.66 -31.1,-49.1 -26.79,-45.28 -40.7,-83.56 -41.72,-114.93 -1.99,-40.19 7.35,-91.21 28.01,-153.04" /><path
         id="path148"
         style="fill:#999fc1;fill-opacity:1;fill-rule:nonzero;stroke:none"
         d="m 9608.98,5615.51 7.19,8.4 c 32.15,36.25 53.44,67.14 63.83,92.61 4.06,8.56 7.5,22.7 10.27,42.5 0.55,2.86 1.06,11.25 1.49,25.12 -0.63,40.47 -0.63,63.71 0.04,69.81 1.17,16.13 2.69,26.99 4.57,32.57 4.41,20.36 20.15,40.9 47.26,61.6 l -60.43,57.74 -40.58,-29.14 -4.85,-248.28 -26.25,118.4 -40.47,48.16 -69.14,-112.19 10.79,-135.11 37.61,-186.61 140.16,-270.54 108.75,95.66 c -44.53,11.49 -83.36,31.45 -116.45,59.81 -31.91,27.22 -57.15,65.07 -75.62,113.51 -9.61,29.38 -15.2,60.59 -16.68,93.75 -1.17,21.84 -1.45,43.13 -0.9,63.79 2.7,70.35 3.83,108.52 3.48,114.57 -0.2,24.1 -0.86,41.25 -2.03,51.41 -3.72,38.2 -12.62,88.04 -26.8,149.53 10.82,-16.29 21.17,-32.66 31.05,-49.1 26.84,-45.28 40.75,-83.56 41.72,-114.93 2.03,-40.19 -7.3,-91.21 -28.01,-153.04" /><g
         transform="scale(1.14141)"
         id="g150"><path
           id="path152"
           style="fill:#999fc1;fill-opacity:1;fill-rule:nonzero;stroke:none"
           d="m 10196.8,6292.72 43.8,32.89 c 225.7,162.49 390,311.97 492.8,448.38 29.3,36.48 70.5,101.1 123.8,193.88 l 401.1,756.46 c 933,188.26 1595,335.76 1985.9,442.47 702,199.9 1435.2,426.01 2199.5,678.27 l -770.9,-556.98 841.1,325.35 368.1,973.69 418,232.95 -484.6,-1432.44 -1850,-769.12 -1807,-157.25 -653,-790.25 c -359.7,-262.02 -585.4,-416.81 -676.9,-464.31 -99.8,-58.99 -186.4,-99.62 -260,-121.87 -48.6,-14.43 -93.8,-18.99 -135.9,-13.64 -95.6,16.35 -174.3,90.21 -235.8,221.52" /></g><path
         id="path154"
         style="fill:#999fc1;fill-opacity:1;fill-rule:nonzero;stroke:none"
         d="m 7777.34,7182.58 -50.04,37.54 c -257.57,185.47 -445.07,356.09 -562.46,511.79 -33.39,41.64 -80.54,115.39 -141.36,221.29 l -457.74,863.44 c -1064.96,214.88 -1820.58,383.24 -2266.79,505.04 -801.29,228.16 -1638.09,486.25 -2510.51,774.22 l 879.92,-635.78 -960,371.36 -420.16,1111.42 -477.18,265.9 553.16,-1635.05 2111.64,-877.89 2062.46,-179.49 745.35,-901.99 c 410.59,-299.07 668.17,-475.75 772.66,-529.97 113.83,-67.34 212.77,-113.71 296.72,-139.1 55.43,-16.48 107.15,-21.68 155.11,-15.58 109.18,18.67 198.95,102.97 269.22,252.85" /><path
         id="path156"
         style="fill:#999fc1;fill-opacity:1;fill-rule:nonzero;stroke:none"
         d="m 13862.1,9393.09 -68,-253.52 -68.1,-253.55 c 106,24.45 212.1,48.9 318.1,73.36 52.8,192.96 105.7,385.93 158.6,578.9 -113.6,-48.4 -227.1,-96.8 -340.6,-145.19" /><path
         id="path158"
         style="fill:#999fc1;fill-opacity:1;fill-rule:nonzero;stroke:none"
         d="m 5553.95,9393.09 68.04,-253.52 68.01,-253.55 c -106.02,24.45 -212.03,48.9 -318.05,73.36 -52.85,192.96 -105.7,385.93 -158.59,578.9 113.55,-48.4 227.07,-96.8 340.59,-145.19" /><path
         id="path160"
         style="fill:#999fc1;fill-opacity:1;fill-rule:nonzero;stroke:none"
         d="m 14470.7,9445.59 -36.1,-199.38 -36.2,-199.33 c 73.5,21.79 147.1,43.59 220.7,65.42 24.6,159.3 49.2,318.6 73.8,477.93 -74,-48.24 -148.1,-96.44 -222.2,-144.64" /><path
         id="path162"
         style="fill:#999fc1;fill-opacity:1;fill-rule:nonzero;stroke:none"
         d="m 4945.31,9445.59 36.17,-199.38 36.14,-199.33 c -73.52,21.79 -147.07,43.59 -220.63,65.42 -24.61,159.3 -49.26,318.6 -73.9,477.93 74.1,-48.24 148.16,-96.44 222.22,-144.64" /><path
         id="path164"
         style="fill:#0a1032;fill-opacity:1;fill-rule:nonzero;stroke:none"
         d="m 11020,7395.66 11.5,39.96 c 53.2,171.76 80.4,324.77 81.7,459.07 3.6,118.32 -26.1,310.86 -88.9,577.69 -30.1,-120.15 -64.4,-205.82 -102.9,-257.03 -34.4,-52.77 -109.4,-123.08 -225,-210.94 -285.7,160.94 -509.5,258.25 -671.4,291.96 -208.01,41.83 -400,39.33 -576.05,-7.5 l 18.32,-281.72 c 251.6,11.01 445.19,-3.4 580.73,-43.2 198.1,-54.77 402.4,-145.55 613.2,-272.39 156.2,87.66 256.2,179.61 300.1,275.82 -7.3,-135.78 -31.6,-248.94 -72.8,-339.53 -57,-131.17 -132.7,-243.59 -227.1,-337.26 -51.7,-46.29 -86.4,-59.46 -104.2,-39.54 -2.2,0.83 -6.2,8.79 -12,23.91 -15.1,71.68 -25.3,112.7 -30.6,123.05 -5.3,17.11 -18.9,51.01 -40.5,101.76 -12.3,-122.66 -30.7,-223.32 -55.2,-302 -28.9,-90.35 -69.6,-164.41 -122,-222.22 -18.7,-17.27 -32.9,-18.05 -42.5,-2.31 -10.3,16.88 -17.3,56.72 -21.2,119.61 -194.3,-241.21 -328.16,-379.3 -401.48,-414.22 l -125.98,201.72 -34.65,-47.3 c -78.63,-102.5 -108.16,-188.64 -88.59,-258.44 21.17,-69.81 86.64,-154.45 196.37,-254.02 56.17,105.78 122.3,186.68 198.4,242.65 19.64,15.51 59.93,38.32 120.83,68.44 287.8,122.42 458.9,201.99 513.3,238.71 112.2,65.66 209.5,135.47 292.2,209.45 101.9,89.54 187.6,177.27 257.1,263.21 l -140.7,52.61" /><path
         id="path166"
         style="fill:#0a1032;fill-opacity:1;fill-rule:nonzero;stroke:none"
         d="m 8396.09,7395.66 -11.56,39.96 c -53.2,171.76 -80.43,324.77 -81.64,459.07 -3.59,118.32 26.02,310.86 88.83,577.69 30.12,-120.15 64.45,-205.82 102.97,-257.03 34.33,-52.77 109.29,-123.08 224.92,-210.94 285.74,160.94 509.57,258.25 671.44,291.96 207.97,41.83 400,39.33 576.06,-7.5 l -18.32,-281.72 c -251.6,11.01 -445.2,-3.4 -580.74,-43.2 -198.05,-54.77 -402.46,-145.55 -613.17,-272.39 -156.21,87.66 -256.25,179.61 -300.08,275.82 7.27,-135.78 31.49,-248.94 72.74,-339.53 56.95,-131.17 132.69,-243.59 227.15,-337.26 51.64,-46.29 86.36,-59.46 104.14,-39.54 2.22,0.83 6.21,8.79 11.99,23.91 15.12,71.68 25.35,112.7 30.66,123.05 5.32,17.11 18.79,51.01 40.51,101.76 12.27,-122.66 30.67,-223.32 55.12,-302 28.91,-90.35 69.61,-164.41 122.03,-222.22 18.71,-17.27 32.85,-18.05 42.5,-2.31 10.24,16.88 17.31,56.72 21.17,119.61 194.34,-241.21 328.21,-379.3 401.53,-414.22 l 125.93,201.72 34.69,-47.3 c 78.63,-102.5 108.16,-188.64 88.59,-258.44 -21.21,-69.81 -86.67,-154.45 -196.4,-254.02 -56.13,105.78 -122.27,186.68 -198.36,242.65 -19.65,15.51 -59.92,38.32 -120.9,68.44 -287.73,122.42 -458.83,201.99 -513.32,238.71 -112.07,65.66 -209.45,135.47 -292.11,209.45 -101.91,89.54 -187.62,177.27 -257.11,263.21 l 140.74,52.61" /><path
         id="path168"
         style="fill:#0a1032;fill-opacity:1;fill-rule:nonzero;stroke:none"
         d="m 9671.8,6487.5 113.04,-170.94 c 129.96,108.95 226.06,179.3 288.26,211.1 l 505.5,201.13 206,89.45 c 129.5,59.77 241.9,127.66 337.4,203.6 98,75.74 217.4,208.39 358.4,397.89 l -203.3,-26.68 c 85.2,59.25 145.2,111.44 180,156.6 9.8,1.6 69.1,94.84 177.9,279.73 34.4,50.7 56,80.39 64.6,89.1 87.2,101.44 216.1,192.14 386.6,272.14 -249.3,2.58 -418.5,-34.29 -507.5,-110.58 -40.5,-27.5 -88.1,-77.27 -142.9,-149.26 -142.8,-225.47 -221.8,-343.28 -237,-353.48 -56.5,-67.07 -132.4,-139.64 -227.5,-217.73 l 12.3,227.81 79.5,389.03 c 53.5,85.7 116,156.36 187.4,211.95 156.5,120.04 311.7,193.4 465.6,220.08 124.2,30.66 360.5,32.03 708.7,4.14 -154.6,-553.6 -607.5,-1082.38 -1358.5,-1586.45 18.3,-114.22 -7.1,-253.47 -76.4,-417.77 83.6,-3.32 147.1,6.64 190.5,29.84 -7.9,-13.67 -15.8,-27.26 -23.8,-40.86 -115,-237.03 -308.2,-372.93 -579.7,-407.69 23.3,-59.42 99.4,-92.77 228.5,-100.12 -95.9,-48.63 -177.3,-71.72 -244.5,-69.3 l -90.8,12.31 c -197.4,68.55 -302.4,100.58 -315,96.13 -36.2,8.17 -74.7,-1.48 -115.7,-28.9 -33.3,-28.95 -56.94,-69.81 -70.92,-122.62 -8.68,-2.66 -21.64,-108.67 -38.87,-318.05 -5.74,-39.45 -15.82,-77.34 -30.16,-113.63 -34.1,-80.9 -97.54,-171.41 -190.31,-271.45 l -75.55,226.76 83.71,-72.26 c 41.61,46.83 71.29,93.94 89.07,141.25 29.65,47.11 39.22,206.13 28.67,477.07 -25.24,-40.86 -34.34,-121.49 -27.31,-241.84 -9.41,17.66 -18.43,35.27 -27.03,52.81 -18.04,35.2 -29.61,69.53 -34.72,102.97 5.19,92.03 4.06,141.17 -3.44,147.46 -11.25,29.49 -37.38,62.46 -78.4,98.95 l -20.78,239.49 352.23,44.02 c -1.61,-95.82 31.01,-148.63 97.81,-158.47 126.4,-27.46 251.6,-21.49 375.9,17.89 85.5,28.79 163.6,99.22 234.5,211.29 43,60.5 78.9,176.71 107.5,348.67 l -211.2,-97.19 c -22,-119.61 -98,-214.53 -228,-284.73 -75.6,-42.38 -158.2,-28.71 -248.1,41.02 -105.2,-120.04 -280.6,-205.04 -526.19,-255.04 l 73.99,373.36" /><path
         id="path170"
         style="fill:#0a1032;fill-opacity:1;fill-rule:nonzero;stroke:none"
         d="m 9744.26,6487.5 -113.05,-170.94 c -130,108.95 -226.05,179.3 -288.24,211.1 l -505.51,201.13 -206.01,89.45 c -129.46,59.77 -241.96,127.66 -337.47,203.6 -97.89,75.74 -217.34,208.39 -358.32,397.89 l 203.21,-26.68 c -85.2,59.25 -145.16,111.44 -179.92,156.6 -9.81,1.6 -69.11,94.84 -177.93,279.73 -34.42,50.7 -55.98,80.39 -64.61,89.1 -87.19,101.44 -216.02,192.14 -386.57,272.14 249.3,2.58 418.48,-34.29 507.54,-110.58 40.47,-27.5 88.13,-77.27 142.89,-149.26 142.74,-225.47 221.72,-343.28 236.96,-353.48 56.52,-67.07 132.34,-139.64 227.54,-217.73 l -12.31,227.81 -79.49,389.03 c -53.59,85.7 -116.06,156.36 -187.46,211.95 -156.53,120.04 -311.68,193.4 -465.51,220.08 -124.3,30.66 -360.55,32.03 -708.83,4.14 154.73,-553.6 607.58,-1082.38 1358.56,-1586.45 -18.32,-114.22 7.15,-253.47 76.4,-417.77 -83.59,-3.32 -147.07,6.64 -190.47,29.84 7.89,-13.67 15.79,-27.26 23.75,-40.86 115,-237.03 308.29,-372.93 579.73,-407.69 -23.28,-59.42 -99.45,-92.77 -228.48,-100.12 95.82,-48.63 177.35,-71.72 244.54,-69.3 l 90.74,12.31 c 197.38,68.55 302.38,100.58 315.04,96.13 36.13,8.17 74.68,-1.48 115.66,-28.9 33.28,-28.95 56.95,-69.81 70.94,-122.62 8.67,-2.66 21.64,-108.67 38.87,-318.05 5.74,-39.45 15.78,-77.34 30.15,-113.63 34.06,-80.9 97.5,-171.41 190.31,-271.45 l 75.51,226.76 -83.71,-72.26 c -41.56,46.83 -71.25,93.94 -89.02,141.25 -29.69,47.11 -39.26,206.13 -28.71,477.07 25.27,-40.86 34.37,-121.49 27.34,-241.84 9.41,17.66 18.44,35.27 27.03,52.81 18.05,35.2 29.61,69.53 34.73,102.97 -5.2,92.03 -4.06,141.17 3.4,147.46 11.29,29.49 37.42,62.46 78.4,98.95 l 20.78,239.49 -352.19,44.02 c 1.6,-95.82 -31.02,-148.63 -97.85,-158.47 -126.33,-27.46 -251.6,-21.49 -375.86,17.89 -85.47,28.79 -163.67,99.22 -234.53,211.29 -43.01,60.5 -78.83,176.71 -107.46,348.67 l 211.13,-97.19 c 21.99,-119.61 98.05,-214.53 228.08,-284.73 75.51,-42.38 158.21,-28.71 248.05,41.02 105.2,-120.04 280.63,-205.04 526.21,-255.04 l -73.98,373.36" /><g
         transform="scale(1.16147)"
         id="g172"><path
           id="path174"
           style="fill:#0a1032;fill-opacity:1;fill-rule:nonzero;stroke:none"
           d="m 10409.5,7101.12 150.6,233.14 c -286.8,111.25 -567.17,235.96 -840.87,374.12 1455.57,363.03 2249.17,567.3 2381.07,612.87 687.8,196.76 1238,371.74 1650.8,524.93 722.8,247.98 1572.4,672.78 2548.9,1274.42 -86.4,-564.88 -175.7,-971.29 -267.8,-1219.19 -83.4,-254.02 -257.4,-600.53 -521.9,-1039.5 l -197.9,-16.38 -724,-1401.54 -154.5,-55.26 -728.9,-1185.76 -175.1,51.69 -970.9,-1074.01 -308,79.48 -726.1,-713.1 -340.5,154.84 948.8,843.96 213.4,-24.05 891.8,1048.04 217.6,-3.46 715.4,1088.1 c 46.4,-142.2 115.8,-145.26 208.2,-9.15 80.9,99.11 273,455.01 576.3,1067.64 l -59.3,412.77 516.9,193.31 407.9,1119.55 c -288.7,-345.47 -794.1,-629.52 -1516.1,-852.1 -1292.7,-431.94 -2587.5,-764.56 -3884.2,-997.89 l 415.4,-98.48 -203.8,-411.15 -223.2,22.16" /></g><path
         id="path176"
         style="fill:#0a1032;fill-opacity:1;fill-rule:nonzero;stroke:none"
         d="m 7325.7,8247.73 -174.96,270.79 c 333.24,129.21 658.79,274.06 976.72,434.53 -1690.58,421.64 -2612.42,658.9 -2765.55,711.83 -798.82,228.52 -1437.96,431.72 -1917.34,609.72 -839.49,288 -1826.29,781.4 -2960.468,1480.2 100.386,-656.1 204.058,-1128.2 311.058,-1416.1 96.828,-295 298.9,-697.49 606.21,-1207.33 l 229.8,-19.03 840.86,-1627.85 179.49,-64.18 846.6,-1377.22 203.33,60.03 1127.69,-1247.42 357.74,92.31 843.35,-828.24 395.47,179.84 -1101.95,980.23 -247.89,-27.93 -1035.74,1217.27 -252.78,-4.02 -830.97,1263.79 c -53.91,-165.16 -134.53,-168.72 -241.88,-10.63 -93.9,115.12 -316.99,528.48 -669.26,1240.04 l 68.91,479.41 -600.39,224.53 -473.83,1300.3 c 335.35,-401.2 922.31,-731.2 1760.98,-989.67 1501.44,-501.68 3005.23,-888.01 4511.29,-1159.02 l -482.42,-114.38 236.71,-477.54 259.22,25.74" /><g
         transform="scale(1.08297)"
         id="g178"><path
           id="path180"
           style="fill:#0a1032;fill-opacity:1;fill-rule:nonzero;stroke:none"
           d="m 10520.9,6586.41 50,25.76 c 377.7,158.31 678.1,420.36 900.9,786.14 -60.7,-224.43 -146,-410.23 -255.8,-557.36 l 130.3,114.06 c 168.1,120.44 412.1,465.63 731.8,1035.63 l 1828,399.87 c 218.8,51.19 820.8,225.91 1806.1,524.17 l -540,-543.39 1127.8,470.02 -179,-558.57 -1076.8,-444.02 339.2,-26.55 -358.9,-496.68 c -776.1,-20.23 -1662.2,0.65 -2658.3,62.73 l 616.6,328.7 834.3,-87.51 338.6,268.5 -1201.4,-251.4 -340.2,-390.09 2856,-147.85 -227.8,-392.84 -1190.7,-33.32 491.4,-158.39 -273.7,-288.88 c -945.3,143.41 -1532.2,266.34 -1760.4,368.71 l -478.2,189.03 99.4,188.25 1062.4,-334.73 291.1,171.51 -1243,84.05 46.8,-135.44 -210.5,-126.93 c 172.8,-173.1 984.4,-409.47 2434.9,-709.06 l -535,-489.75 -1022.8,153.68 386.2,-251.87 -384.8,-279.21 c -828.4,335.01 -1461.7,667.18 -1900.1,996.46 l 181.4,281.63 989.8,-571.06 297.5,112.9 -991.2,225.84 -384.6,-237.48 c 819.6,-584.88 1541.7,-928.55 2166.3,-1030.92 l -637.4,-311.02 -494,185.5 183.8,-180.53 -334.5,-184.28 -1129.6,652.58 138,101.63 443,-250.82 277.2,132.84 -758.2,76.01 -172.2,-180.64 c 274.5,-157.95 748.2,-417.76 1421.1,-779.51 l 305.7,-84.22 -245.4,-259.66 c -614.3,302.22 -1177.3,595.43 -1689.1,879.59 80.4,113.12 110.9,345.88 91.4,698.28 l 185.7,-44.05 c -143.9,178.55 -221.6,303.68 -233.2,375.35 -81.5,-291.19 -233.9,-552.27 -456.9,-783.29 l 92.6,309.04 c -214.8,-236.4 -367.55,-391.14 -458.26,-464.21 -35.82,-51.11 -240.99,-179.27 -615.46,-384.4 -93.61,-68.75 -186.71,-162.46 -279.26,-281.13 l -50.27,308.36 c 366.02,276.41 649.17,558.04 849.51,844.9 38.92,-118.67 16.01,-240.99 -68.79,-366.9 338.73,326.9 562.33,596.27 670.73,808.07 l 24.5,-226.3 c 90.4,234.08 127.8,407.05 112.4,518.78 -4.6,112.72 -72.2,276.52 -202.7,491.39 l 236,154.3" /></g><path
         id="path182"
         style="fill:#0a1032;fill-opacity:1;fill-rule:nonzero;stroke:none"
         d="m 8022.23,7132.89 -54.14,27.89 c -409.11,171.45 -734.34,455.24 -975.71,851.37 65.74,-243.05 158.13,-444.26 277.11,-603.6 l -141.09,123.52 c -182.15,130.43 -446.37,504.26 -792.58,1121.56 l -1979.65,433.05 c -236.95,55.43 -888.9,244.65 -1955.94,567.66 l 584.77,-588.48 -1221.37,509.02 193.83,-604.92 1166.21,-480.86 -367.42,-28.75 388.71,-537.89 c 840.43,-21.91 1800.04,0.7 2878.83,67.93 l -667.74,355.98 -903.55,-94.77 -366.6,290.78 1301.01,-272.26 368.4,-422.46 -3092.89,-160.12 246.64,-425.43 1289.53,-36.09 -532.18,-171.53 296.4,-312.85 c 1023.79,155.31 1659.3,288.44 1906.45,399.3 l 517.89,204.72 -107.66,203.87 -1150.54,-362.5 -315.28,185.74 1346.21,91.02 -50.74,-146.68 228.01,-137.46 C 6150,6992.19 5271.05,6736.21 3700.23,6411.76 l 579.42,-530.39 1107.65,166.44 -418.24,-272.77 416.68,-302.38 c 897.11,362.81 1583.01,722.54 2057.78,1079.14 l -196.49,305 -1071.95,-618.44 -322.15,122.26 1073.48,244.58 416.44,-257.19 C 6455.23,5714.61 5673.24,5342.42 4996.8,5231.56 l 690.27,-336.83 535,200.89 -199.06,-195.5 362.26,-199.57 1223.4,706.72 -149.45,110.07 -479.81,-271.64 -300.15,143.87 821.05,82.31 186.53,-195.63 C 7389.57,5105.2 6876.52,4823.83 6147.73,4432.07 l -331.01,-91.21 265.74,-281.21 c 665.31,327.3 1275.08,644.84 1829.3,952.58 -87.11,122.5 -120.12,374.57 -99.03,756.21 l -201.13,-47.7 c 155.82,193.36 240,328.87 252.58,406.49 88.36,-315.35 253.28,-598.09 494.84,-848.28 l -100.27,334.68 c 232.58,-256.01 398.01,-423.59 496.29,-502.73 38.79,-55.35 260.98,-194.14 666.48,-416.29 101.41,-74.45 202.23,-175.94 302.46,-304.45 l 54.46,333.94 c -396.41,299.34 -703.09,604.34 -920,915 -42.19,-128.51 -17.35,-260.98 74.49,-397.34 -366.84,354.02 -608.98,645.74 -726.41,875.12 l -26.48,-245.08 c -97.89,253.51 -138.48,440.82 -121.76,561.83 5,122.07 78.17,299.46 219.53,532.15 l -255.58,167.11" /><path
         id="path184"
         style="fill:#0a1032;fill-opacity:1;fill-rule:nonzero;stroke:none"
         d="m 12985.6,4354.84 -695.7,-573.12 -331.7,-13.87 -1195.1,623.24 185.4,120.82 986.2,-545.78 526,304.77 -623.2,187.81 253.6,-180.19 -206.2,-124.89 -831.2,355.94 c -76.4,-53.55 -139.4,-85.47 -188.9,-95.74 -52.2,-13.4 -134.6,-16.68 -247.1,-9.85 195.1,120.59 331.1,227.39 407.8,320.43 80.4,87.19 180.2,250.71 299.3,490.63 l 52.8,-336.37 420.6,-294.41 253.6,-37.11 -694,290.27 c 44,30.43 80.4,67.58 109.3,111.49 27.7,38.79 76.1,125.7 145.2,260.66 l 660,-469.73 713.3,-385" /><path
         id="path186"
         style="fill:#0a1032;fill-opacity:1;fill-rule:nonzero;stroke:none"
         d="m 6430.47,4354.84 695.7,-573.12 331.68,-13.87 1195.08,623.24 -185.35,120.82 -986.25,-545.78 -526.02,304.77 623.24,187.81 -253.59,-180.19 206.21,-124.89 831.17,355.94 c 76.45,-53.55 139.38,-85.47 188.83,-95.74 52.27,-13.4 134.69,-16.68 247.23,-9.85 -195.2,120.59 -331.13,227.39 -407.85,320.43 -80.43,87.19 -180.24,250.71 -299.38,490.63 l -52.73,-336.37 -420.63,-294.41 -253.55,-37.11 693.98,290.27 c -43.98,30.43 -80.43,67.58 -109.33,111.49 -27.66,38.79 -76.06,125.7 -145.2,260.66 l -659.92,-469.73 -713.32,-385" /><path
         id="path188"
         style="fill:#0a1032;fill-opacity:1;fill-rule:nonzero;stroke:none"
         d="m 10895.5,4500.7 -31.8,-36.64 c -135,-161.21 -263.3,-284.61 -384.9,-370.31 -106,-78.01 -292.7,-169.57 -560.01,-274.69 l 372.01,-35.27 c -310.68,-138.87 -481.19,-239.38 -511.5,-301.45 -32.54,-41.05 -55.82,-82.38 -69.85,-123.9 l -125.19,-398.24 9.96,-740.08 109.37,-338.64 135,205.51 c 82.19,-88.75 161.91,-162.26 239.11,-220.58 -14.8,187.34 38.7,461.68 160.6,823 99,-203.16 286.4,-458.94 562.3,-767.38 -200.2,52.5 -369.5,152.46 -507.7,299.88 -29.4,-181.71 -39.6,-324.41 -30.4,-428.08 5,-101.37 36.3,-266.21 94.1,-494.49 -245.3,180.35 -435.39,337.65 -570.35,471.87 l -93.05,-212.89 12.7,-154.02 137.42,160.39 c 36.02,-72.66 128.91,-164.92 278.68,-276.8 -165.05,67.07 -259.38,127.23 -283.02,180.35 -5.03,-22.22 -78.94,-96.91 -221.71,-224.02 -79.26,-70.12 -134.03,-171.6 -164.26,-304.49 -15.67,-107.46 -4.06,-216.917 34.88,-328.441 66.56,-155.391 147.93,-235.629 244.1,-240.699 90.16,-21.371 239.18,27.89 447.11,147.73 564.3,357.422 1105,838.48 1622.1,1443.2 l 237.8,278.17 c -312.8,-76.88 -531.2,-70.86 -655.2,18.04 -213.8,159.3 -315.8,333.05 -305.9,521.29 35,132.7 126.8,228.83 275.5,288.36 52.9,21.68 103.9,33.6 152.9,35.74 l 263.8,-20.39 c 43.6,6.25 82.7,24.89 117.2,55.86 153.1,150.08 210.9,308.21 173.4,474.42 -8.1,42.3 -54.4,114.96 -138.9,217.89 -402.5,290.31 -744.7,513.55 -1026.3,669.8" /><path
         id="path190"
         style="fill:#0a1032;fill-opacity:1;fill-rule:nonzero;stroke:none"
         d="m 8520.59,4500.7 31.75,-36.64 c 135,-161.21 263.32,-284.61 384.89,-370.31 106.05,-78.01 292.73,-169.57 560.04,-274.69 l -372.04,-35.27 c 310.71,-138.87 481.22,-239.38 511.53,-301.45 32.5,-41.05 55.78,-82.38 69.84,-123.9 l 125.16,-398.24 -9.92,-740.08 -109.38,-338.64 -135,205.51 c -82.19,-88.75 -161.87,-162.26 -239.1,-220.58 14.84,187.34 -38.71,461.68 -160.63,823 -98.98,-203.16 -286.44,-458.94 -562.34,-767.38 200.27,52.5 369.49,152.46 507.7,299.88 29.49,-181.71 39.61,-324.41 30.43,-428.08 -4.97,-101.37 -36.29,-266.21 -94.07,-494.49 245.28,180.35 435.39,337.65 570.35,471.87 l 93.01,-212.89 -12.65,-154.02 -137.43,160.39 c -36.01,-72.66 -128.9,-164.92 -278.67,-276.8 165.04,67.07 259.38,127.23 283.01,180.35 5.04,-22.22 78.95,-96.91 221.72,-224.02 79.26,-70.12 134.02,-171.6 164.22,-304.49 15.7,-107.46 4.06,-216.917 -34.85,-328.441 C 9861.56,455.898 9780.2,375.66 9684.02,370.59 9593.91,349.219 9444.84,398.48 9236.91,518.32 8672.7,875.742 8131.99,1356.8 7614.84,1961.52 l -237.81,278.17 c 312.85,-76.88 531.25,-70.86 655.24,18.04 213.78,159.3 315.78,333.05 305.89,521.29 -35.04,132.7 -126.87,228.83 -275.46,288.36 -52.93,21.68 -103.91,33.6 -152.97,35.74 l -263.75,-20.39 c -43.6,6.25 -82.7,24.89 -117.31,55.86 -153.08,150.08 -210.86,308.21 -173.32,474.42 8.09,42.3 54.38,114.96 138.91,217.89 402.5,290.31 744.61,513.55 1026.33,669.8" /><path
         id="path192"
         style="fill:#1ca6ed;fill-opacity:1;fill-rule:nonzero;stroke:none"
         d="m 11422,3691.48 -134.5,52.43 -105.5,-69.61 -45.3,-48.99 -57.7,21.64 -20.6,56.21 -69.7,21.68 -96.8,96.8 60.9,82.42 93.3,97.97 126.2,18.56 204.8,-91.45 94.7,30.16 115.6,-67.54 54.4,-49.06 92.6,-10 75.5,-171.65 33.7,-120.39 -8,-45.43 -146.2,78.05 -87.3,10.08 -79.9,72.11 -100.2,36.01" /><path
         id="path194"
         style="fill:#1ca6ed;fill-opacity:1;fill-rule:nonzero;stroke:none"
         d="m 7994.02,3691.48 134.57,52.43 105.47,-69.61 45.32,-48.99 57.69,21.64 20.59,56.21 69.68,21.68 96.76,96.8 -60.86,82.42 -93.32,97.97 -126.21,18.56 -204.8,-91.45 -94.61,30.16 -115.67,-67.54 -54.41,-49.06 -92.58,-10 -75.51,-171.65 -33.71,-120.39 8.01,-45.43 146.25,78.05 87.23,10.08 79.92,72.11 100.19,36.01" /><path
         id="path196"
         style="fill:#17398d;fill-opacity:1;fill-rule:nonzero;stroke:none"
         d="m 10919.1,3784.22 130.2,76.21 c 29.2,59.73 69.1,91.52 119.6,95.43 22.6,1.21 47.9,-2.77 75.7,-11.95 14.7,-3.52 64.1,-23.09 148.1,-58.79 9.7,-3.64 17.8,-6.21 24.2,-7.74 15.6,-4.26 26.6,-2.58 32.9,4.96 9.5,0.43 19.7,-0.58 30.7,-3.04 14.5,-2.82 33.3,-14.1 56.6,-33.75 16.8,-13.64 50.9,-47.74 102.2,-102.35 l 16.3,33.52 c 28.9,-15.47 51.5,-29.1 67.8,-40.98 22.6,-13.67 50.4,-45.7 83.3,-96.21 l -60.8,155.27 -236.3,172.15 -143,-6.87 -171.6,64.72 -189.9,-52.26 -73.2,-74.77 c -13.1,-22.34 -22.2,-38.9 -27.1,-49.65 -17.2,-28.08 -12.4,-49.41 14.3,-63.9" /><path
         id="path198"
         style="fill:#17398d;fill-opacity:1;fill-rule:nonzero;stroke:none"
         d="m 8496.88,3784.22 -130.08,76.21 c -29.26,59.73 -69.14,91.52 -119.61,95.43 -22.7,1.21 -47.93,-2.77 -75.78,-11.95 -14.69,-3.52 -64.03,-23.09 -148.01,-58.79 -9.77,-3.64 -17.89,-6.21 -24.3,-7.74 -15.62,-4.26 -26.56,-2.58 -32.81,4.96 -9.49,0.43 -19.73,-0.58 -30.74,-3.04 -14.46,-2.82 -33.32,-14.1 -56.57,-33.75 -16.87,-13.64 -50.97,-47.74 -102.26,-102.35 l -16.25,33.52 c -28.95,-15.47 -51.56,-29.1 -67.81,-40.98 -22.62,-13.67 -50.39,-45.7 -83.32,-96.21 l 60.78,155.27 236.25,172.15 143.04,-6.87 171.68,64.72 189.85,-52.26 73.16,-74.77 c 13.17,-22.34 22.23,-38.9 27.15,-49.65 17.19,-28.08 12.42,-49.41 -14.37,-63.9" /><path
         id="path200"
         style="fill:#17398d;fill-opacity:1;fill-rule:nonzero;stroke:none"
         d="m 11845.6,3521.09 -143,36.1 -115.9,59.92 -116.3,54.61 -149.3,62.19 -135,-48.36 -69.6,-57.23 -57.2,76.33 65.4,63.32 77.7,59.3 85.2,19.72 126.8,-40.86 c 78.9,-34.33 190.8,-85.39 335.7,-153.16 l 95.5,-131.88" /><path
         id="path202"
         style="fill:#17398d;fill-opacity:1;fill-rule:nonzero;stroke:none"
         d="m 7570.51,3521.09 142.93,36.1 115.94,59.92 116.21,54.61 149.41,62.19 135,-48.36 69.53,-57.23 57.27,76.33 -65.43,63.32 -77.74,59.3 -85.19,19.72 -126.8,-40.86 c -78.94,-34.33 -190.86,-85.39 -335.7,-153.16 l -95.43,-131.88" /><path
         id="path204"
         style="fill:#faee4c;fill-opacity:1;fill-rule:nonzero;stroke:none"
         d="m 11157.9,3642.81 46.7,-128.28 28,-100.9 88.8,90.98 118.2,169.3 30,-148.75 -56.3,-146.45 133.2,39.73 130.6,106.87 9.8,-90.19 -71.2,-118.56 156.1,48.13 57.8,94.69 -47.2,57.89 -210.1,111.56 c -89.6,39.02 -149.4,64.69 -179.4,77.03 -32.7,13.59 -66.9,26.76 -102.7,39.57 l -132.3,-102.62" /><path
         id="path206"
         style="fill:#faee4c;fill-opacity:1;fill-rule:nonzero;stroke:none"
         d="m 8258.2,3642.81 -46.75,-128.28 -27.97,-100.9 -88.79,90.98 -118.24,169.3 -30,-148.75 56.32,-146.45 -133.28,39.73 -130.54,106.87 -9.81,-90.19 71.25,-118.56 -156.09,48.13 -57.82,94.69 47.15,57.89 210.12,111.56 c 89.57,39.02 149.37,64.69 179.41,77.03 32.66,13.59 66.88,26.76 102.7,39.57 l 132.34,-102.62" /><path
         id="path208"
         style="fill:#ea820e;fill-opacity:1;fill-rule:nonzero;stroke:none"
         d="m 11245,3436.84 0.9,9.92 c 4.9,43.75 5.8,76.87 2.7,99.45 -2.3,20.59 -12.1,43.91 -29.3,69.96 23.7,19.06 44.2,28.71 61.4,28.99 21.3,0.86 51.1,-5.51 89.5,-19.11 l 2.3,73.05 -111.6,25.16 -87.5,-75.28 6.5,-49.57 32,-121.64 33.1,-40.93" /><path
         id="path210"
         style="fill:#ea820e;fill-opacity:1;fill-rule:nonzero;stroke:none"
         d="m 8171.09,3436.84 -1.01,9.92 c -4.85,43.75 -5.7,76.87 -2.62,99.45 2.31,20.59 12.07,43.91 29.34,69.96 -23.75,19.06 -44.26,28.71 -61.53,28.99 -21.25,0.86 -51.05,-5.51 -89.45,-19.11 l -2.3,73.05 111.64,25.16 87.46,-75.28 -6.45,-49.57 -32.07,-121.64 -33.01,-40.93" /><path
         id="path212"
         style="fill:#ea820e;fill-opacity:1;fill-rule:nonzero;stroke:none"
         d="m 11529,3445.35 -40,-6.8 c 16.1,26.53 26.1,47.9 29.9,64.11 4.5,15.7 7.1,42.26 7.7,79.68 l 65.2,-60.46 c 12.8,10 19.8,19.14 21.3,27.46 1.5,6.44 0.1,14.33 -4.2,23.67 -2.6,5.11 -5.5,9.92 -8.9,14.45 -3.6,4.84 -7.7,9.81 -12.3,14.88 l -7.1,7.54 c -18.6,17.23 -32.1,27.58 -40.6,31.06 -11.8,5.7 -20.6,7.85 -26.4,6.36 -5.1,-0.93 -9.2,-3.55 -12.1,-7.81 -3.1,-4.33 -5.4,-10 -7.2,-17.07 -1.8,-7.07 -3.1,-15.12 -4,-24.1 l -4.8,-74.8 -1.4,-15.04 c -2.2,-19.65 -6.2,-36.92 -11.9,-51.8 -9.9,-26.17 -27.4,-53.16 -52.5,-80.94 l 89.6,29.38 19.7,40.23" /><path
         id="path214"
         style="fill:#ea820e;fill-opacity:1;fill-rule:nonzero;stroke:none"
         d="m 7887.03,3445.35 40,-6.8 c -16.13,26.53 -26.05,47.9 -29.88,64.11 -4.53,15.7 -7.07,42.26 -7.66,79.68 l -65.31,-60.46 c -12.7,10 -19.77,19.14 -21.21,27.46 -1.56,6.44 -0.16,14.33 4.22,23.67 2.54,5.11 5.51,9.92 8.86,14.45 3.56,4.84 7.66,9.81 12.27,14.88 l 7.19,7.54 c 18.51,17.23 32.03,27.58 40.51,31.06 11.87,5.7 20.66,7.85 26.4,6.36 5.12,-0.93 9.18,-3.55 12.11,-7.81 3.05,-4.33 5.47,-10 7.23,-17.07 1.76,-7.07 3.08,-15.12 3.98,-24.1 l 4.77,-74.8 1.44,-15.04 c 2.23,-19.65 6.17,-36.92 11.88,-51.8 9.88,-26.17 27.34,-53.16 52.5,-80.94 l -89.57,29.38 -19.73,40.23" /><path
         id="path216"
         style="fill:#ea820e;fill-opacity:1;fill-rule:nonzero;stroke:none"
         d="m 11769.7,3391.21 -84,-33.12 c 23.2,22.69 37.4,41.13 42.8,55.27 6.5,13.67 10.1,36.91 10.7,69.76 15.9,-2.81 27.7,-7.5 35.4,-13.98 7.7,-5.59 19.2,-19.02 34.2,-40.31 l -15.4,73.55 -64.4,41.96 -29.9,-46.45 6.8,-63.71 -63.9,-90.94 -11.8,-25.31 70.6,17.23 68.9,56.05" /><path
         id="path218"
         style="fill:#ea820e;fill-opacity:1;fill-rule:nonzero;stroke:none"
         d="m 7646.37,3391.21 83.94,-33.12 c -23.12,22.69 -37.42,41.13 -42.81,55.27 -6.48,13.67 -10.04,36.91 -10.66,69.76 -15.86,-2.81 -27.66,-7.5 -35.39,-13.98 -7.78,-5.59 -19.18,-19.02 -34.26,-40.31 l 15.51,73.55 64.37,41.96 29.84,-46.45 -6.79,-63.71 63.9,-90.94 11.84,-25.31 -70.59,17.23 -68.9,56.05" /><path
         id="path220"
         style="fill:#0a1032;fill-opacity:1;fill-rule:nonzero;stroke:none"
         d="m 11826.2,3631.41 5.6,-8.29 c 30.9,-42.26 45.3,-74.68 43.4,-97.14 0.1,-12.66 -9.3,-30.47 -28.1,-53.4 -2.8,-42.7 -14,-76.21 -33.4,-100.55 -16.3,-20.9 -44.1,-40 -83.2,-57.23 -45.3,-20.15 -117.3,-43.9 -216.1,-71.13 56.2,58.99 91.9,101.1 107,126.37 17.5,26.05 30.7,60.86 39.5,104.49 -50.7,-54.88 -94.5,-92.19 -131.4,-111.91 -34.8,-21.14 -98.6,-45.12 -191.3,-71.92 33.2,58.48 55.4,107 66.8,145.47 12.2,36.8 25.5,101.29 39.6,193.36 -39.4,-79.06 -71.8,-132.62 -97.3,-160.62 -24.5,-30.08 -67,-63.64 -127.5,-100.67 -51.9,82.97 -81.6,136.92 -89.1,161.8 -10.8,27.85 -8.5,53.01 6.8,75.51 -37.9,1.79 -62.4,6.87 -73.6,15.23 -12.6,7.03 -23.8,25.04 -33.7,54.02 -81,19.18 -131.4,46.76 -151.3,82.74 -22.9,35.35 -26.6,71.01 -11.1,106.99 4.3,12.7 14.1,27.54 29.3,44.53 6.5,7.7 22,21.02 46.5,39.96 15.6,17.15 27.3,29.1 35.1,35.86 28.1,25 57.9,41.29 89.4,48.91 43.6,11.21 87.5,13.79 131.8,7.81 36.7,-1.37 98.5,-25.55 185.4,-72.58 61.4,18.79 109.9,16.25 145.4,-7.61 21.8,-10.98 59.4,-42.86 112.9,-95.55 14.1,-33.48 22.1,-60.98 24.1,-82.54 1.2,-26.13 -6.3,-55.16 -22.7,-87.11 -43.7,119.69 -99.7,193.79 -167.8,222.23 -30.3,13.59 -70.3,9.02 -119.9,-13.67 -71.4,57.11 -129.4,85.43 -173.7,84.96 -63,4.53 -110,-5.12 -141,-28.91 -17.4,-13.4 -33.4,-34.45 -48,-63.05 -35.1,-19.84 -55.5,-35.23 -61.4,-46.09 -8,-8.63 -9.6,-22.34 -5.1,-41.06 15.5,-38.71 59.8,-59.96 132.7,-63.74 9.4,-37.86 21.5,-62.82 36.3,-74.93 13,-13.32 42.7,-26.48 89,-39.53 17.8,-32.46 30.3,-59.88 37.4,-82.26 6.9,-20.16 11.3,-51.49 13.4,-93.95 l 4.2,-10.9 c 3.4,-2.38 8.7,1.37 15.7,11.14 11.3,15.78 24.1,37.57 38.5,65.31 31.4,60.39 52.4,108.75 63.2,145.08 -30.9,23.98 -56.7,35.31 -77.4,33.98 -17.9,3.59 -50.6,-22.23 -98.1,-77.42 l -69.8,22.3 c 65.6,81.18 115.7,124.61 150.1,130.35 26.7,13.56 74.3,-1.01 142.8,-43.67 -14,25 -26.1,42.89 -36.3,53.67 -33.8,36.41 -81.5,41.88 -143.2,16.37 -39.5,-15.94 -89.7,-63.71 -150.7,-143.28 l -70.9,53.48 c 79.8,89.96 132.1,141.6 157.1,154.84 39.4,31.84 105.7,41.72 198.9,29.61 l 6.8,51.91 74.8,-8.63 28.4,-111.21 c 53.7,-14.69 90.3,-27.81 109.6,-39.3 20.7,-10.78 44,-31.05 70.2,-60.86 l -8,-97.34 c -44,47.15 -73.9,75.35 -89.5,84.69 -16.5,11.79 -35.3,15.31 -56.4,10.51 l 2.2,-39.77 c 40.6,4.84 84,-7.46 130.3,-36.91 l -12.8,-106.8 -100.7,87.54 c -5.2,-65.08 -12.1,-110.51 -20.8,-136.29 -7.6,-26.99 -25.2,-60.7 -52.6,-101.09 36.8,17.69 64.1,34.68 82.2,50.93 22.1,18.36 41.2,45.12 57.1,80.28 20.9,51.83 35.6,105.5 44.4,161.05 12.9,72.07 14.4,116.95 4.5,134.57 l 36.2,-7.58 c 6,-54.22 6.6,-120.04 2,-197.42 l 11.1,-76.87 39.7,-14.42 c 2,-17.61 3,-30.27 3,-37.93 4.2,-42.89 -21.7,-95.11 -77.9,-156.68 64.3,29.53 104.5,50.63 120.6,63.28 19.3,14.42 31.1,30.43 35.4,48.13 -1.6,24.8 -13.6,44.02 -36,57.62 -15.5,9.76 -53.4,19.96 -113.7,30.66 l 11.6,67.93 c 69.4,-18.2 125.1,-40.12 167,-65.78 -27.6,32.89 -50.9,55 -70.3,66.25 -18.2,12.15 -51.2,25.23 -98.8,39.22 l 7.4,74.61 c 43.5,3.51 83.6,-11.88 120.3,-46.06 -16.2,40.59 -32.4,70.82 -48.4,90.74 -20.3,23.21 -49.9,41.22 -88.7,53.99 l -47.2,81.33 c 93.7,-3.71 159.1,-28.6 196.4,-74.65 41.5,-43.24 50.1,-105 25.8,-185.31" /><path
         id="path222"
         style="fill:#0a1032;fill-opacity:1;fill-rule:nonzero;stroke:none"
         d="m 7589.84,3631.41 -5.66,-8.29 c -30.86,-42.26 -45.31,-74.68 -43.36,-97.14 -0.08,-12.66 9.34,-30.47 28.13,-53.4 2.85,-42.7 13.98,-76.21 33.43,-100.55 16.29,-20.9 43.99,-40 83.17,-57.23 45.23,-20.19 117.3,-43.9 216.13,-71.13 -56.29,58.99 -91.99,101.1 -107.11,126.37 -17.42,26.05 -30.59,60.86 -39.45,104.49 50.7,-54.88 94.53,-92.19 131.4,-111.91 34.81,-21.14 98.6,-45.12 191.29,-71.92 -33.12,58.48 -55.35,107 -66.72,145.47 -12.3,36.8 -25.5,101.29 -39.64,193.36 39.41,-79.06 71.83,-132.62 97.34,-160.62 24.45,-30.08 66.95,-63.64 127.46,-100.67 51.87,82.97 81.6,136.92 89.1,161.8 10.78,27.85 8.52,53.01 -6.76,75.51 37.82,1.79 62.31,6.87 73.56,15.23 12.58,7.03 23.83,25.04 33.67,54.02 81.02,19.18 131.48,46.76 151.33,82.74 22.89,35.35 26.6,71.01 11.13,106.99 -4.37,12.7 -14.14,27.54 -29.33,44.53 -6.53,7.7 -22,21.02 -46.45,39.96 -15.66,17.15 -27.38,29.1 -35.12,35.86 -28.12,25 -57.93,41.29 -89.45,48.91 -43.59,11.21 -87.54,13.79 -131.8,7.81 -36.68,-1.37 -98.43,-25.55 -185.35,-72.58 -61.44,18.79 -109.88,16.25 -145.43,-7.61 -21.76,-10.98 -59.41,-42.86 -112.89,-95.55 -14.14,-33.48 -22.19,-60.98 -24.06,-82.54 -1.29,-26.13 6.25,-55.16 22.65,-87.11 43.72,119.69 99.65,193.79 167.82,222.23 30.27,13.59 70.23,9.02 119.84,-13.67 71.49,57.11 129.41,85.43 173.79,84.96 63.01,4.53 110,-5.12 140.94,-28.91 17.38,-13.4 33.4,-34.45 48.04,-63.05 35.04,-19.84 55.51,-35.23 61.41,-46.09 7.93,-8.63 9.61,-22.34 5,-41.06 -15.47,-38.71 -59.69,-59.96 -132.66,-63.74 -9.37,-37.86 -21.48,-62.82 -36.28,-74.93 -13.05,-13.32 -42.7,-26.48 -89.03,-39.53 -17.81,-32.46 -30.27,-59.88 -37.34,-82.26 -6.88,-20.16 -11.37,-51.49 -13.44,-93.95 l -4.18,-10.9 c -3.44,-2.38 -8.67,1.33 -15.7,11.14 -11.29,15.78 -24.14,37.57 -38.56,65.31 -31.32,60.39 -52.38,108.75 -63.12,145.08 30.86,23.98 56.64,35.31 77.42,33.98 17.85,3.59 50.55,-22.23 98.05,-77.42 l 69.84,22.3 c -65.66,81.18 -115.7,124.61 -150.12,130.35 -26.72,13.56 -74.29,-1.01 -142.77,-43.67 13.95,25 25.98,42.89 36.21,53.67 33.83,36.41 81.56,41.88 143.2,16.37 39.54,-15.94 89.77,-63.71 150.71,-143.28 l 70.9,53.48 c -79.73,89.96 -132.07,141.6 -157.04,154.84 -39.45,31.84 -105.74,41.72 -198.94,29.61 l -6.84,51.91 -74.8,-8.63 -28.32,-111.21 c -53.75,-14.69 -90.31,-27.81 -109.61,-39.3 -20.67,-10.78 -44.1,-31.05 -70.27,-60.86 l 8.04,-97.34 c 44.03,47.15 73.83,75.35 89.49,84.69 16.53,11.79 35.32,15.31 56.37,10.51 l -2.11,-39.77 c -40.62,4.84 -84.06,-7.46 -130.35,-36.91 l 12.85,-106.8 100.63,87.54 c 5.19,-65.08 12.15,-110.51 20.86,-136.29 7.61,-26.99 25.11,-60.7 52.54,-101.09 -36.72,17.69 -64.11,34.68 -82.15,50.93 -22.11,18.36 -41.17,45.12 -57.15,80.28 -20.82,51.83 -35.63,105.5 -44.34,161.05 -12.89,72.07 -14.41,116.95 -4.57,134.57 l -36.17,-7.58 c -5.94,-54.22 -6.6,-120.04 -1.95,-197.42 l -11.17,-76.87 -39.69,-14.42 c -1.99,-17.61 -3.01,-30.27 -3.01,-37.93 -4.26,-42.89 21.72,-95.11 77.89,-156.68 -64.3,29.53 -104.49,50.63 -120.51,63.28 -19.37,14.42 -31.17,30.43 -35.43,48.13 1.57,24.8 13.56,44.02 35.98,57.62 15.47,9.72 53.36,19.96 113.67,30.66 l -11.64,67.93 c -69.37,-18.2 -125,-40.12 -166.95,-65.78 27.58,32.89 50.97,54.96 70.27,66.25 18.28,12.15 51.25,25.23 98.87,39.22 l -7.42,74.61 c -43.52,3.51 -83.6,-11.88 -120.35,-46.06 16.25,40.59 32.38,70.82 48.47,90.74 20.31,23.21 49.85,41.22 88.67,53.99 l 47.19,81.33 c -93.67,-3.71 -159.1,-28.6 -196.37,-74.65 -41.52,-43.24 -50.15,-105 -25.82,-185.31" /></g></g></svg>